<svg width="64" height="16" viewBox="0 0 64 16" fill="none" xmlns="http://www.w3.org/2000/svg">
<path d="M62.7144 14.4767C63.2538 14.3583 63.5952 13.825 63.4767 13.2856C63.3583 12.7462 62.825 12.4048 62.2856 12.5233L62.7144 14.4767ZM0.812888 2.01766C0.270357 2.121 -0.0856777 2.64458 0.0176615 3.18711L1.70167 12.0282C1.80501 12.5707 2.32859 12.9267 2.87112 12.8234C3.41365 12.72 3.76969 12.1965 3.66635 11.6539L2.16945 3.79523L10.0282 2.29833C10.5707 2.19499 10.9267 1.67141 10.8234 1.12888C10.72 0.586348 10.1965 0.230313 9.65394 0.333652L0.812888 2.01766ZM62.2856 12.5233C52.2083 14.7353 40.102 14.2516 28.9356 12.1424C17.7589 10.0312 7.65639 6.31705 1.56231 2.17307L0.43769 3.82693C6.84361 8.18295 17.2411 11.9688 28.5644 14.1076C39.898 16.2484 52.2917 16.7647 62.7144 14.4767L62.2856 12.5233Z" fill="#2A9CC8"/>
</svg>
