<svg xmlns="http://www.w3.org/2000/svg" xmlns:xlink="http://www.w3.org/1999/xlink" contentStyleType="text/css" data-diagram-type="SEQUENCE" height="863px" preserveAspectRatio="none" style="width:1725px;height:863px;background:#FFFFFF;" version="1.1" viewBox="0 0 1725 863" width="1725px" zoomAndPan="magnify"><defs/><g><g><title>InvitationController</title><rect fill="#FFFFFF" height="624.166" style="stroke:#181818;stroke-width:1;" width="10" x="349.3179" y="148.1094"/></g><g><title>InvitationService</title><rect fill="#FFFFFF" height="594.8555" style="stroke:#181818;stroke-width:1;" width="10" x="604.9355" y="177.4199"/></g><g><title>MembershipService</title><rect fill="#FFFFFF" height="87.9316" style="stroke:#181818;stroke-width:1;" width="10" x="888.6543" y="507.8359"/></g><g><title>MessageBroker</title><rect fill="#FFFFFF" height="154.5527" style="stroke:#181818;stroke-width:1;" width="10" x="1029.5386" y="265.3516"/></g><g><title>DirectoryMicroservice</title><rect fill="#FFFFFF" height="71.6211" style="stroke:#181818;stroke-width:1;" width="10" x="1320.9951" y="294.6621"/></g><g><title>Database</title><rect fill="#FFFFFF" height="29.3105" style="stroke:#181818;stroke-width:1;" width="10" x="1668.6899" y="206.7305"/></g><g><title>Database</title><rect fill="#FFFFFF" height="29.3105" style="stroke:#181818;stroke-width:1;" width="10" x="1668.6899" y="449.2148"/></g><g><title>Database</title><rect fill="#FFFFFF" height="29.3105" style="stroke:#181818;stroke-width:1;" width="10" x="1668.6899" y="537.1465"/></g><rect fill="none" height="383.9922" style="stroke:#000000;stroke-width:1.5;" width="1699.0225" x="19" y="381.2832"/><g><title>User</title><rect fill="#000000" fill-opacity="0.00000" height="700.7871" width="8" x="43.1826" y="81.4883"/><line style="stroke:#181818;stroke-width:0.5;stroke-dasharray:5.0,5.0;" x1="47" x2="47" y1="81.4883" y2="782.2754"/></g><g><title>InvitationController</title><rect fill="#000000" fill-opacity="0.00000" height="700.7871" width="8" x="350.3179" y="81.4883"/><line style="stroke:#181818;stroke-width:0.5;stroke-dasharray:5.0,5.0;" x1="353.4604" x2="353.4604" y1="81.4883" y2="782.2754"/></g><g><title>InvitationService</title><rect fill="#000000" fill-opacity="0.00000" height="700.7871" width="8" x="605.9355" y="81.4883"/><line style="stroke:#181818;stroke-width:0.5;stroke-dasharray:5.0,5.0;" x1="609.4927" x2="609.4927" y1="81.4883" y2="782.2754"/></g><g><title>MembershipService</title><rect fill="#000000" fill-opacity="0.00000" height="700.7871" width="8" x="889.6543" y="81.4883"/><line style="stroke:#181818;stroke-width:0.5;stroke-dasharray:5.0,5.0;" x1="893.0122" x2="893.0122" y1="81.4883" y2="782.2754"/></g><g><title>MessageBroker</title><rect fill="#000000" fill-opacity="0.00000" height="700.7871" width="8" x="1030.5386" y="81.4883"/><line style="stroke:#181818;stroke-width:0.5;stroke-dasharray:5.0,5.0;" x1="1034.2964" x2="1034.2964" y1="81.4883" y2="782.2754"/></g><g><title>DirectoryMicroservice</title><rect fill="#000000" fill-opacity="0.00000" height="700.7871" width="8" x="1321.9951" y="81.4883"/><line style="stroke:#181818;stroke-width:0.5;stroke-dasharray:5.0,5.0;" x1="1325.6729" x2="1325.6729" y1="81.4883" y2="782.2754"/></g><g><title>Database</title><rect fill="#000000" fill-opacity="0.00000" height="700.7871" width="8" x="1669.6899" y="81.4883"/><line style="stroke:#181818;stroke-width:0.5;stroke-dasharray:5.0,5.0;" x1="1673.3574" x2="1673.3574" y1="81.4883" y2="782.2754"/></g><g class="participant participant-head" data-participant="user"><text fill="#000000" font-family="sans-serif" font-size="14" lengthAdjust="spacing" textLength="30.3652" x="29" y="78.5352">User</text><ellipse cx="47.1826" cy="13.5" fill="#E2E2F0" rx="8" ry="8" style="stroke:#181818;stroke-width:0.5;"/><path d="M47.1826,21.5 L47.1826,48.5 M34.1826,29.5 L60.1826,29.5 M47.1826,48.5 L34.1826,63.5 M47.1826,48.5 L60.1826,63.5" fill="none" style="stroke:#181818;stroke-width:0.5;"/></g><g class="participant participant-tail" data-participant="user"><text fill="#000000" font-family="sans-serif" font-size="14" lengthAdjust="spacing" textLength="30.3652" x="29" y="794.8105">User</text><ellipse cx="47.1826" cy="806.2637" fill="#E2E2F0" rx="8" ry="8" style="stroke:#181818;stroke-width:0.5;"/><path d="M47.1826,814.2637 L47.1826,841.2637 M34.1826,822.2637 L60.1826,822.2637 M47.1826,841.2637 L34.1826,856.2637 M47.1826,841.2637 L60.1826,856.2637" fill="none" style="stroke:#181818;stroke-width:0.5;"/></g><g class="participant participant-head" data-participant="controller"><rect fill="#E2E2F0" height="30.4883" rx="2.5" ry="2.5" style="stroke:#181818;stroke-width:0.5;" width="145.7148" x="281.4604" y="50"/><text fill="#000000" font-family="sans-serif" font-size="14" lengthAdjust="spacing" textLength="131.7148" x="288.4604" y="70.5352">InvitationController</text></g><g class="participant participant-tail" data-participant="controller"><rect fill="#E2E2F0" height="30.4883" rx="2.5" ry="2.5" style="stroke:#181818;stroke-width:0.5;" width="145.7148" x="281.4604" y="781.2754"/><text fill="#000000" font-family="sans-serif" font-size="14" lengthAdjust="spacing" textLength="131.7148" x="288.4604" y="801.8105">InvitationController</text></g><g class="participant participant-head" data-participant="invitationService"><rect fill="#E2E2F0" height="30.4883" rx="2.5" ry="2.5" style="stroke:#181818;stroke-width:0.5;" width="124.8857" x="547.4927" y="50"/><text fill="#000000" font-family="sans-serif" font-size="14" lengthAdjust="spacing" textLength="110.8857" x="554.4927" y="70.5352">InvitationService</text></g><g class="participant participant-tail" data-participant="invitationService"><rect fill="#E2E2F0" height="30.4883" rx="2.5" ry="2.5" style="stroke:#181818;stroke-width:0.5;" width="124.8857" x="547.4927" y="781.2754"/><text fill="#000000" font-family="sans-serif" font-size="14" lengthAdjust="spacing" textLength="110.8857" x="554.4927" y="801.8105">InvitationService</text></g><g class="participant participant-head" data-participant="membershipService"><rect fill="#E2E2F0" height="30.4883" rx="2.5" ry="2.5" style="stroke:#181818;stroke-width:0.5;" width="145.2842" x="821.0122" y="50"/><text fill="#000000" font-family="sans-serif" font-size="14" lengthAdjust="spacing" textLength="131.2842" x="828.0122" y="70.5352">MembershipService</text></g><g class="participant participant-tail" data-participant="membershipService"><rect fill="#E2E2F0" height="30.4883" rx="2.5" ry="2.5" style="stroke:#181818;stroke-width:0.5;" width="145.2842" x="821.0122" y="781.2754"/><text fill="#000000" font-family="sans-serif" font-size="14" lengthAdjust="spacing" textLength="131.2842" x="828.0122" y="801.8105">MembershipService</text></g><g class="participant participant-head" data-participant="broker"><rect fill="#E2E2F0" height="30.4883" rx="2.5" ry="2.5" style="stroke:#181818;stroke-width:0.5;" width="116.4844" x="976.2964" y="50"/><text fill="#000000" font-family="sans-serif" font-size="14" lengthAdjust="spacing" textLength="102.4844" x="983.2964" y="70.5352">MessageBroker</text></g><g class="participant participant-tail" data-participant="broker"><rect fill="#E2E2F0" height="30.4883" rx="2.5" ry="2.5" style="stroke:#181818;stroke-width:0.5;" width="116.4844" x="976.2964" y="781.2754"/><text fill="#000000" font-family="sans-serif" font-size="14" lengthAdjust="spacing" textLength="102.4844" x="983.2964" y="801.8105">MessageBroker</text></g><g class="participant participant-head" data-participant="directory"><rect fill="#E2E2F0" height="30.4883" rx="2.5" ry="2.5" style="stroke:#181818;stroke-width:0.5;" width="160.6445" x="1245.6729" y="50"/><text fill="#000000" font-family="sans-serif" font-size="14" lengthAdjust="spacing" textLength="146.6445" x="1252.6729" y="70.5352">DirectoryMicroservice</text></g><g class="participant participant-tail" data-participant="directory"><rect fill="#E2E2F0" height="30.4883" rx="2.5" ry="2.5" style="stroke:#181818;stroke-width:0.5;" width="160.6445" x="1245.6729" y="781.2754"/><text fill="#000000" font-family="sans-serif" font-size="14" lengthAdjust="spacing" textLength="146.6445" x="1252.6729" y="801.8105">DirectoryMicroservice</text></g><g class="participant participant-head" data-participant="db"><text fill="#000000" font-family="sans-serif" font-size="14" lengthAdjust="spacing" textLength="62.665" x="1639.3574" y="78.5352">Database</text><path d="M1655.6899,29 C1655.6899,19 1673.6899,19 1673.6899,19 C1673.6899,19 1691.6899,19 1691.6899,29 L1691.6899,55 C1691.6899,65 1673.6899,65 1673.6899,65 C1673.6899,65 1655.6899,65 1655.6899,55 L1655.6899,29" fill="#E2E2F0" style="stroke:#181818;stroke-width:1.5;"/><path d="M1655.6899,29 C1655.6899,39 1673.6899,39 1673.6899,39 C1673.6899,39 1691.6899,39 1691.6899,29" fill="none" style="stroke:#181818;stroke-width:1.5;"/></g><g class="participant participant-tail" data-participant="db"><text fill="#000000" font-family="sans-serif" font-size="14" lengthAdjust="spacing" textLength="62.665" x="1639.3574" y="794.8105">Database</text><path d="M1655.6899,807.7637 C1655.6899,797.7637 1673.6899,797.7637 1673.6899,797.7637 C1673.6899,797.7637 1691.6899,797.7637 1691.6899,807.7637 L1691.6899,833.7637 C1691.6899,843.7637 1673.6899,843.7637 1673.6899,843.7637 C1673.6899,843.7637 1655.6899,843.7637 1655.6899,833.7637 L1655.6899,807.7637" fill="#E2E2F0" style="stroke:#181818;stroke-width:1.5;"/><path d="M1655.6899,807.7637 C1655.6899,817.7637 1673.6899,817.7637 1673.6899,817.7637 C1673.6899,817.7637 1691.6899,817.7637 1691.6899,807.7637" fill="none" style="stroke:#181818;stroke-width:1.5;"/></g><g><title>InvitationController</title><rect fill="#FFFFFF" height="624.166" style="stroke:#181818;stroke-width:1;" width="10" x="349.3179" y="148.1094"/></g><g><title>InvitationService</title><rect fill="#FFFFFF" height="594.8555" style="stroke:#181818;stroke-width:1;" width="10" x="604.9355" y="177.4199"/></g><g><title>MembershipService</title><rect fill="#FFFFFF" height="87.9316" style="stroke:#181818;stroke-width:1;" width="10" x="888.6543" y="507.8359"/></g><g><title>MessageBroker</title><rect fill="#FFFFFF" height="154.5527" style="stroke:#181818;stroke-width:1;" width="10" x="1029.5386" y="265.3516"/></g><g><title>DirectoryMicroservice</title><rect fill="#FFFFFF" height="71.6211" style="stroke:#181818;stroke-width:1;" width="10" x="1320.9951" y="294.6621"/></g><g><title>Database</title><rect fill="#FFFFFF" height="29.3105" style="stroke:#181818;stroke-width:1;" width="10" x="1668.6899" y="206.7305"/></g><g><title>Database</title><rect fill="#FFFFFF" height="29.3105" style="stroke:#181818;stroke-width:1;" width="10" x="1668.6899" y="449.2148"/></g><g><title>Database</title><rect fill="#FFFFFF" height="29.3105" style="stroke:#181818;stroke-width:1;" width="10" x="1668.6899" y="537.1465"/></g><path d="M5,96.4883 L5,121.4883 L398,121.4883 L398,106.4883 L388,96.4883 L5,96.4883" fill="#FEFFDD" style="stroke:#181818;stroke-width:0.5;"/><path d="M388,96.4883 L388,106.4883 L398,106.4883 L388,96.4883" fill="#FEFFDD" style="stroke:#181818;stroke-width:0.5;"/><text fill="#000000" font-family="sans-serif" font-size="13" lengthAdjust="spacing" textLength="228.7314" x="82.7219" y="114.0566">User accepts a community invitation</text><g class="message" data-participant-1="user" data-participant-2="controller"><polygon fill="#181818" points="337.3179,144.1094,347.3179,148.1094,337.3179,152.1094,341.3179,148.1094" style="stroke:#181818;stroke-width:1;"/><line style="stroke:#181818;stroke-width:1;" x1="47.1826" x2="343.3179" y1="148.1094" y2="148.1094"/><text fill="#000000" font-family="sans-serif" font-size="13" lengthAdjust="spacing" textLength="268.855" x="54.1826" y="143.3672">POST /api/invitations/{invitationId}/accept</text></g><g class="message" data-participant-1="controller" data-participant-2="invitationService"><polygon fill="#181818" points="592.9355,173.4199,602.9355,177.4199,592.9355,181.4199,596.9355,177.4199" style="stroke:#181818;stroke-width:1;"/><line style="stroke:#181818;stroke-width:1;" x1="359.3179" x2="598.9355" y1="177.4199" y2="177.4199"/><text fill="#000000" font-family="sans-serif" font-size="13" lengthAdjust="spacing" textLength="226.6177" x="366.3179" y="172.6777">acceptInvitation(invitationId, userId)</text></g><g class="message" data-participant-1="invitationService" data-participant-2="db"><polygon fill="#181818" points="1656.6899,202.7305,1666.6899,206.7305,1656.6899,210.7305,1660.6899,206.7305" style="stroke:#181818;stroke-width:1;"/><line style="stroke:#181818;stroke-width:1;" x1="614.9355" x2="1662.6899" y1="206.7305" y2="206.7305"/><text fill="#000000" font-family="sans-serif" font-size="13" lengthAdjust="spacing" textLength="201.7983" x="621.9355" y="201.9883">getInvitationDetails(invitationId)</text></g><g class="message" data-participant-1="db" data-participant-2="invitationService"><polygon fill="#181818" points="625.9355,232.041,615.9355,236.041,625.9355,240.041,621.9355,236.041" style="stroke:#181818;stroke-width:1;"/><line style="stroke:#181818;stroke-width:1;stroke-dasharray:2.0,2.0;" x1="619.9355" x2="1672.6899" y1="236.041" y2="236.041"/><text fill="#000000" font-family="sans-serif" font-size="13" lengthAdjust="spacing" textLength="184.8057" x="631.9355" y="231.2988">invitation (with communityId)</text></g><g class="message" data-participant-1="invitationService" data-participant-2="broker"><polygon fill="#181818" points="1017.5386,261.3516,1027.5386,265.3516,1017.5386,269.3516,1021.5386,265.3516" style="stroke:#181818;stroke-width:1;"/><line style="stroke:#181818;stroke-width:1;" x1="614.9355" x2="1023.5386" y1="265.3516" y2="265.3516"/><text fill="#000000" font-family="sans-serif" font-size="13" lengthAdjust="spacing" textLength="313.7266" x="621.9355" y="260.6094">addMemberToManualGroup(userId, communityId)</text></g><g class="message" data-participant-1="broker" data-participant-2="directory"><polygon fill="#181818" points="1308.9951,290.6621,1318.9951,294.6621,1308.9951,298.6621,1312.9951,294.6621" style="stroke:#181818;stroke-width:1;"/><line style="stroke:#181818;stroke-width:1;" x1="1039.5386" x2="1314.9951" y1="294.6621" y2="294.6621"/><text fill="#000000" font-family="sans-serif" font-size="13" lengthAdjust="spacing" textLength="262.4565" x="1046.5386" y="289.9199">requestAddMember(userId, communityId)</text></g><g class="message" data-participant-1="directory" data-participant-2="directory"><line style="stroke:#181818;stroke-width:1;" x1="1330.9951" x2="1372.9951" y1="323.9727" y2="323.9727"/><line style="stroke:#181818;stroke-width:1;" x1="1372.9951" x2="1372.9951" y1="323.9727" y2="336.9727"/><line style="stroke:#181818;stroke-width:1;" x1="1331.9951" x2="1372.9951" y1="336.9727" y2="336.9727"/><polygon fill="#181818" points="1341.9951,332.9727,1331.9951,336.9727,1341.9951,340.9727,1337.9951,336.9727" style="stroke:#181818;stroke-width:1;"/><text fill="#000000" font-family="sans-serif" font-size="13" lengthAdjust="spacing" textLength="313.6948" x="1337.9951" y="319.2305">addMemberToGroupIfExists(userId, communityId)</text></g><g class="message" data-participant-1="directory" data-participant-2="broker"><polygon fill="#181818" points="1050.5386,362.2832,1040.5386,366.2832,1050.5386,370.2832,1046.5386,366.2832" style="stroke:#181818;stroke-width:1;"/><line style="stroke:#181818;stroke-width:1;stroke-dasharray:2.0,2.0;" x1="1044.5386" x2="1324.9951" y1="366.2832" y2="366.2832"/><text fill="#000000" font-family="sans-serif" font-size="13" lengthAdjust="spacing" textLength="188.9189" x="1056.5386" y="361.541">memberAdditionConfirmation</text></g><path d="M19,381.2832 L81.1387,381.2832 L81.1387,388.5938 L71.1387,398.5938 L19,398.5938 L19,381.2832" fill="#EEEEEE" style="stroke:#000000;stroke-width:1.5;"/><rect fill="none" height="383.9922" style="stroke:#000000;stroke-width:1.5;" width="1699.0225" x="19" y="381.2832"/><text fill="#000000" font-family="sans-serif" font-size="13" font-weight="bold" lengthAdjust="spacing" textLength="17.1387" x="34" y="394.8516">alt</text><text fill="#000000" font-family="sans-serif" font-size="11" font-weight="bold" lengthAdjust="spacing" textLength="168.2227" x="96.1387" y="393.918">[successful member addition]</text><g class="message" data-participant-1="broker" data-participant-2="invitationService"><polygon fill="#181818" points="625.9355,415.9043,615.9355,419.9043,625.9355,423.9043,621.9355,419.9043" style="stroke:#181818;stroke-width:1;"/><line style="stroke:#181818;stroke-width:1;stroke-dasharray:2.0,2.0;" x1="619.9355" x2="1033.5386" y1="419.9043" y2="419.9043"/><text fill="#000000" font-family="sans-serif" font-size="13" lengthAdjust="spacing" textLength="154.9082" x="631.9355" y="415.1621">memberAdditionSuccess</text></g><g class="message" data-participant-1="invitationService" data-participant-2="db"><polygon fill="#181818" points="1656.6899,445.2148,1666.6899,449.2148,1656.6899,453.2148,1660.6899,449.2148" style="stroke:#181818;stroke-width:1;"/><line style="stroke:#181818;stroke-width:1;" x1="614.9355" x2="1662.6899" y1="449.2148" y2="449.2148"/><text fill="#000000" font-family="sans-serif" font-size="13" lengthAdjust="spacing" textLength="304.8716" x="621.9355" y="444.4727">updateInvitationStatus(invitationId, "ACCEPTED")</text></g><g class="message" data-participant-1="db" data-participant-2="invitationService"><polygon fill="#181818" points="625.9355,474.5254,615.9355,478.5254,625.9355,482.5254,621.9355,478.5254" style="stroke:#181818;stroke-width:1;"/><line style="stroke:#181818;stroke-width:1;stroke-dasharray:2.0,2.0;" x1="619.9355" x2="1672.6899" y1="478.5254" y2="478.5254"/><text fill="#000000" font-family="sans-serif" font-size="13" lengthAdjust="spacing" textLength="126.6104" x="631.9355" y="473.7832">updateConfirmation</text></g><g class="message" data-participant-1="invitationService" data-participant-2="membershipService"><polygon fill="#181818" points="876.6543,503.8359,886.6543,507.8359,876.6543,511.8359,880.6543,507.8359" style="stroke:#181818;stroke-width:1;"/><line style="stroke:#181818;stroke-width:1;" x1="614.9355" x2="882.6543" y1="507.8359" y2="507.8359"/><text fill="#000000" font-family="sans-serif" font-size="13" lengthAdjust="spacing" textLength="254.7188" x="621.9355" y="503.0938">createMembership(userId, communityId)</text></g><g class="message" data-participant-1="membershipService" data-participant-2="db"><polygon fill="#181818" points="1656.6899,533.1465,1666.6899,537.1465,1656.6899,541.1465,1660.6899,537.1465" style="stroke:#181818;stroke-width:1;"/><line style="stroke:#181818;stroke-width:1;" x1="898.6543" x2="1662.6899" y1="537.1465" y2="537.1465"/><text fill="#000000" font-family="sans-serif" font-size="13" lengthAdjust="spacing" textLength="243.9912" x="905.6543" y="532.4043">saveMembership(userId, communityId)</text></g><g class="message" data-participant-1="db" data-participant-2="membershipService"><polygon fill="#181818" points="909.6543,562.457,899.6543,566.457,909.6543,570.457,905.6543,566.457" style="stroke:#181818;stroke-width:1;"/><line style="stroke:#181818;stroke-width:1;stroke-dasharray:2.0,2.0;" x1="903.6543" x2="1672.6899" y1="566.457" y2="566.457"/><text fill="#000000" font-family="sans-serif" font-size="13" lengthAdjust="spacing" textLength="90.8223" x="915.6543" y="561.7148">membershipId</text></g><g class="message" data-participant-1="membershipService" data-participant-2="invitationService"><polygon fill="#181818" points="625.9355,591.7676,615.9355,595.7676,625.9355,599.7676,621.9355,595.7676" style="stroke:#181818;stroke-width:1;"/><line style="stroke:#181818;stroke-width:1;stroke-dasharray:2.0,2.0;" x1="619.9355" x2="892.6543" y1="595.7676" y2="595.7676"/><text fill="#000000" font-family="sans-serif" font-size="13" lengthAdjust="spacing" textLength="117.6729" x="631.9355" y="591.0254">membershipResult</text></g><g class="message" data-participant-1="invitationService" data-participant-2="controller"><polygon fill="#181818" points="370.3179,621.0781,360.3179,625.0781,370.3179,629.0781,366.3179,625.0781" style="stroke:#181818;stroke-width:1;"/><line style="stroke:#181818;stroke-width:1;stroke-dasharray:2.0,2.0;" x1="364.3179" x2="603.9355" y1="625.0781" y2="625.0781"/><text fill="#000000" font-family="sans-serif" font-size="13" lengthAdjust="spacing" textLength="108.7036" x="376.3179" y="620.3359">successResponse</text></g><g class="message" data-participant-1="controller" data-participant-2="user"><polygon fill="#181818" points="58.1826,650.3887,48.1826,654.3887,58.1826,658.3887,54.1826,654.3887" style="stroke:#181818;stroke-width:1;"/><line style="stroke:#181818;stroke-width:1;stroke-dasharray:2.0,2.0;" x1="52.1826" x2="348.3179" y1="654.3887" y2="654.3887"/><text fill="#000000" font-family="sans-serif" font-size="13" lengthAdjust="spacing" textLength="278.1353" x="64.1826" y="649.6465">200 OK (Successfully joined the community)</text></g><line style="stroke:#000000;stroke-width:1;stroke-dasharray:2.0,2.0;" x1="19" x2="1718.0225" y1="663.3887" y2="663.3887"/><text fill="#000000" font-family="sans-serif" font-size="11" font-weight="bold" lengthAdjust="spacing" textLength="140.7388" x="24" y="674.0234">[member addition failed]</text><g class="message" data-participant-1="broker" data-participant-2="invitationService"><polygon fill="#181818" points="625.9355,694.6543,615.9355,698.6543,625.9355,702.6543,621.9355,698.6543" style="stroke:#181818;stroke-width:1;"/><line style="stroke:#181818;stroke-width:1;stroke-dasharray:2.0,2.0;" x1="619.9355" x2="1033.5386" y1="698.6543" y2="698.6543"/><text fill="#000000" font-family="sans-serif" font-size="13" lengthAdjust="spacing" textLength="148.3193" x="631.9355" y="693.9121">memberAdditionFailure</text></g><g class="message" data-participant-1="invitationService" data-participant-2="controller"><polygon fill="#181818" points="370.3179,723.9648,360.3179,727.9648,370.3179,731.9648,366.3179,727.9648" style="stroke:#181818;stroke-width:1;"/><line style="stroke:#181818;stroke-width:1;stroke-dasharray:2.0,2.0;" x1="364.3179" x2="603.9355" y1="727.9648" y2="727.9648"/><text fill="#000000" font-family="sans-serif" font-size="13" lengthAdjust="spacing" textLength="91.3809" x="376.3179" y="723.2227">errorResponse</text></g><g class="message" data-participant-1="controller" data-participant-2="user"><polygon fill="#181818" points="58.1826,753.2754,48.1826,757.2754,58.1826,761.2754,54.1826,757.2754" style="stroke:#181818;stroke-width:1;"/><line style="stroke:#181818;stroke-width:1;stroke-dasharray:2.0,2.0;" x1="52.1826" x2="348.3179" y1="757.2754" y2="757.2754"/><text fill="#000000" font-family="sans-serif" font-size="13" lengthAdjust="spacing" textLength="155.0859" x="64.1826" y="752.5332">500 Internal Server Error</text></g><!--SRC=[dLNRZjem47ttLunu0eaLgqfzoKEbBT0ggj2k2lq09nvstGOxzOKMLVttsax0pWLMMnw8OyySdpa-dj3II0MJRnhL1AW6wmQafihmajTK69ZauiWDDLoAfHH6oQfgGylBwxM4BQeZBp54y_viDsc3XmALVk5rcdJep_QJjARF-5797osd8WoxKIkkq5Tvsl1IIPt0i_CAOTJGWcfqqUse2IW84T8Wo2EgeCqyAJi3BnlGiiJQQA1kwN2mWfjJKYqXFWtkFdGIdnwtErZGcYzYf5xyYIyv-xjeW0aj3JzIHo8HdCInXnw8cxMiubbCK-nvg2LdimW-F1yocF9RiIA3Pqo0LsWehtG7Fy5r4h82xiP9nYcO_kBc9IheCHYcAEDqcWDtvJBMM6WdDrHOMdrMqjRJfinv5_U2shg5DCzGtTaH6IZyQL6RXpFmArZHI-Gox24c70ExVB_-pRNHuyW9Ib9dSoCSATxUo3rNXyPegLoH3AqCQElCeFNULcs-fn802BZVkVpnC-hkk6sWGbwoOQkadmr_LwrZQtVLC6aHxc5rpvoJX-Lo_RHRhoQpW9RQ86nyrL0DV4UM7jCMuZhBGS_9e5JeKcEB6Z-m3jDXvxhiEbWwQwFfyMsRTEKO8HwdSdPBY15AjypW0x-YjfNfWzueUqJiNbDiRUgGQzSDczIqpxbmhqa6x-xluV4BJBSNNrSd-2wvG0Rc1QDYCqAmqjXtFUnTnqBsPlD_ScbMuN-OlrSfAYNLwtM-TtNcmg0Ij0AFvLRNFfMWO2IzyCFkdImctur_]--></g></svg>