<svg xmlns="http://www.w3.org/2000/svg" xmlns:xlink="http://www.w3.org/1999/xlink" contentStyleType="text/css" data-diagram-type="SEQUENCE" height="876px" preserveAspectRatio="none" style="width:2224px;height:876px;background:#FFFFFF;" version="1.1" viewBox="0 0 2224 876" width="2224px" zoomAndPan="magnify"><defs/><g><g><title>ResourceController</title><rect fill="#FFFFFF" height="637.166" style="stroke:#181818;stroke-width:1;" width="10" x="382.4292" y="148.1094"/></g><g><title>ResourceService</title><rect fill="#FFFFFF" height="607.8555" style="stroke:#181818;stroke-width:1;" width="10" x="668.4585" y="177.4199"/></g><g><title>MessageBroker</title><rect fill="#FFFFFF" height="284.7949" style="stroke:#181818;stroke-width:1;" width="10" x="1159.2295" y="265.3516"/></g><g><title>ApplicationShareListener</title><rect fill="#FFFFFF" height="71.6211" style="stroke:#181818;stroke-width:1;" width="10" x="1477.7969" y="294.6621"/></g><g><title>Database</title><rect fill="#FFFFFF" height="29.3105" style="stroke:#181818;stroke-width:1;" width="10" x="1854.7607" y="206.7305"/></g><g><title>Database</title><rect fill="#FFFFFF" height="29.3105" style="stroke:#181818;stroke-width:1;" width="10" x="1854.7607" y="682.3438"/></g><g><title>ExplorerService</title><rect fill="#FFFFFF" height="71.6211" style="stroke:#181818;stroke-width:1;" width="10" x="1958.2036" y="424.9043"/></g><rect fill="none" height="266.75" style="stroke:#000000;stroke-width:1.5;" width="1885.0933" x="19" y="511.5254"/><g><title>User</title><rect fill="#000000" fill-opacity="0.00000" height="713.7871" width="8" x="43.1826" y="81.4883"/><line style="stroke:#181818;stroke-width:0.5;stroke-dasharray:5.0,5.0;" x1="47" x2="47" y1="81.4883" y2="795.2754"/></g><g><title>ResourceController</title><rect fill="#000000" fill-opacity="0.00000" height="713.7871" width="8" x="383.4292" y="81.4883"/><line style="stroke:#181818;stroke-width:0.5;stroke-dasharray:5.0,5.0;" x1="386.4604" x2="386.4604" y1="81.4883" y2="795.2754"/></g><g><title>ResourceService</title><rect fill="#000000" fill-opacity="0.00000" height="713.7871" width="8" x="669.4585" y="81.4883"/><line style="stroke:#181818;stroke-width:0.5;stroke-dasharray:5.0,5.0;" x1="672.9043" x2="672.9043" y1="81.4883" y2="795.2754"/></g><g><title>MessageBroker</title><rect fill="#000000" fill-opacity="0.00000" height="713.7871" width="8" x="1160.2295" y="81.4883"/><line style="stroke:#181818;stroke-width:0.5;stroke-dasharray:5.0,5.0;" x1="1163.9873" x2="1163.9873" y1="81.4883" y2="795.2754"/></g><g><title>ApplicationShareListener</title><rect fill="#000000" fill-opacity="0.00000" height="713.7871" width="8" x="1478.7969" y="81.4883"/><line style="stroke:#181818;stroke-width:0.5;stroke-dasharray:5.0,5.0;" x1="1482.6772" x2="1482.6772" y1="81.4883" y2="795.2754"/></g><g><title>Database</title><rect fill="#000000" fill-opacity="0.00000" height="713.7871" width="8" x="1855.7607" y="81.4883"/><line style="stroke:#181818;stroke-width:0.5;stroke-dasharray:5.0,5.0;" x1="1859.4282" x2="1859.4282" y1="81.4883" y2="795.2754"/></g><g><title>ExplorerService</title><rect fill="#000000" fill-opacity="0.00000" height="713.7871" width="8" x="1959.2036" y="81.4883"/><line style="stroke:#181818;stroke-width:0.5;stroke-dasharray:5.0,5.0;" x1="1963.0933" x2="1963.0933" y1="81.4883" y2="795.2754"/></g><g class="participant participant-head" data-participant="user"><text fill="#000000" font-family="sans-serif" font-size="14" lengthAdjust="spacing" textLength="30.3652" x="29" y="78.5352">User</text><ellipse cx="47.1826" cy="13.5" fill="#E2E2F0" rx="8" ry="8" style="stroke:#181818;stroke-width:0.5;"/><path d="M47.1826,21.5 L47.1826,48.5 M34.1826,29.5 L60.1826,29.5 M47.1826,48.5 L34.1826,63.5 M47.1826,48.5 L60.1826,63.5" fill="none" style="stroke:#181818;stroke-width:0.5;"/></g><g class="participant participant-tail" data-participant="user"><text fill="#000000" font-family="sans-serif" font-size="14" lengthAdjust="spacing" textLength="30.3652" x="29" y="807.8105">User</text><ellipse cx="47.1826" cy="819.2637" fill="#E2E2F0" rx="8" ry="8" style="stroke:#181818;stroke-width:0.5;"/><path d="M47.1826,827.2637 L47.1826,854.2637 M34.1826,835.2637 L60.1826,835.2637 M47.1826,854.2637 L34.1826,869.2637 M47.1826,854.2637 L60.1826,869.2637" fill="none" style="stroke:#181818;stroke-width:0.5;"/></g><g class="participant participant-head" data-participant="controller"><rect fill="#E2E2F0" height="30.4883" rx="2.5" ry="2.5" style="stroke:#181818;stroke-width:0.5;" width="143.9375" x="315.4604" y="50"/><text fill="#000000" font-family="sans-serif" font-size="14" lengthAdjust="spacing" textLength="129.9375" x="322.4604" y="70.5352">ResourceController</text></g><g class="participant participant-tail" data-participant="controller"><rect fill="#E2E2F0" height="30.4883" rx="2.5" ry="2.5" style="stroke:#181818;stroke-width:0.5;" width="143.9375" x="315.4604" y="794.2754"/><text fill="#000000" font-family="sans-serif" font-size="14" lengthAdjust="spacing" textLength="129.9375" x="322.4604" y="814.8105">ResourceController</text></g><g class="participant participant-head" data-participant="service"><rect fill="#E2E2F0" height="30.4883" rx="2.5" ry="2.5" style="stroke:#181818;stroke-width:0.5;" width="123.1084" x="611.9043" y="50"/><text fill="#000000" font-family="sans-serif" font-size="14" lengthAdjust="spacing" textLength="109.1084" x="618.9043" y="70.5352">ResourceService</text></g><g class="participant participant-tail" data-participant="service"><rect fill="#E2E2F0" height="30.4883" rx="2.5" ry="2.5" style="stroke:#181818;stroke-width:0.5;" width="123.1084" x="611.9043" y="794.2754"/><text fill="#000000" font-family="sans-serif" font-size="14" lengthAdjust="spacing" textLength="109.1084" x="618.9043" y="814.8105">ResourceService</text></g><g class="participant participant-head" data-participant="broker"><rect fill="#E2E2F0" height="30.4883" rx="2.5" ry="2.5" style="stroke:#181818;stroke-width:0.5;" width="116.4844" x="1105.9873" y="50"/><text fill="#000000" font-family="sans-serif" font-size="14" lengthAdjust="spacing" textLength="102.4844" x="1112.9873" y="70.5352">MessageBroker</text></g><g class="participant participant-tail" data-participant="broker"><rect fill="#E2E2F0" height="30.4883" rx="2.5" ry="2.5" style="stroke:#181818;stroke-width:0.5;" width="116.4844" x="1105.9873" y="794.2754"/><text fill="#000000" font-family="sans-serif" font-size="14" lengthAdjust="spacing" textLength="102.4844" x="1112.9873" y="814.8105">MessageBroker</text></g><g class="participant participant-head" data-participant="appListener"><rect fill="#E2E2F0" height="30.4883" rx="2.5" ry="2.5" style="stroke:#181818;stroke-width:0.5;" width="182.2393" x="1391.6772" y="50"/><text fill="#000000" font-family="sans-serif" font-size="14" lengthAdjust="spacing" textLength="168.2393" x="1398.6772" y="70.5352">ApplicationShareListener</text></g><g class="participant participant-tail" data-participant="appListener"><rect fill="#E2E2F0" height="30.4883" rx="2.5" ry="2.5" style="stroke:#181818;stroke-width:0.5;" width="182.2393" x="1391.6772" y="794.2754"/><text fill="#000000" font-family="sans-serif" font-size="14" lengthAdjust="spacing" textLength="168.2393" x="1398.6772" y="814.8105">ApplicationShareListener</text></g><g class="participant participant-head" data-participant="db"><text fill="#000000" font-family="sans-serif" font-size="14" lengthAdjust="spacing" textLength="62.665" x="1825.4282" y="78.5352">Database</text><path d="M1841.7607,29 C1841.7607,19 1859.7607,19 1859.7607,19 C1859.7607,19 1877.7607,19 1877.7607,29 L1877.7607,55 C1877.7607,65 1859.7607,65 1859.7607,65 C1859.7607,65 1841.7607,65 1841.7607,55 L1841.7607,29" fill="#E2E2F0" style="stroke:#181818;stroke-width:1.5;"/><path d="M1841.7607,29 C1841.7607,39 1859.7607,39 1859.7607,39 C1859.7607,39 1877.7607,39 1877.7607,29" fill="none" style="stroke:#181818;stroke-width:1.5;"/></g><g class="participant participant-tail" data-participant="db"><text fill="#000000" font-family="sans-serif" font-size="14" lengthAdjust="spacing" textLength="62.665" x="1825.4282" y="807.8105">Database</text><path d="M1841.7607,820.7637 C1841.7607,810.7637 1859.7607,810.7637 1859.7607,810.7637 C1859.7607,810.7637 1877.7607,810.7637 1877.7607,820.7637 L1877.7607,846.7637 C1877.7607,856.7637 1859.7607,856.7637 1859.7607,856.7637 C1859.7607,856.7637 1841.7607,856.7637 1841.7607,846.7637 L1841.7607,820.7637" fill="#E2E2F0" style="stroke:#181818;stroke-width:1.5;"/><path d="M1841.7607,820.7637 C1841.7607,830.7637 1859.7607,830.7637 1859.7607,830.7637 C1859.7607,830.7637 1877.7607,830.7637 1877.7607,820.7637" fill="none" style="stroke:#181818;stroke-width:1.5;"/></g><g class="participant participant-head" data-participant="explorer"><rect fill="#E2E2F0" height="30.4883" rx="2.5" ry="2.5" style="stroke:#181818;stroke-width:0.5;" width="118.2207" x="1904.0933" y="50"/><text fill="#000000" font-family="sans-serif" font-size="14" lengthAdjust="spacing" textLength="104.2207" x="1911.0933" y="70.5352">ExplorerService</text></g><g class="participant participant-tail" data-participant="explorer"><rect fill="#E2E2F0" height="30.4883" rx="2.5" ry="2.5" style="stroke:#181818;stroke-width:0.5;" width="118.2207" x="1904.0933" y="794.2754"/><text fill="#000000" font-family="sans-serif" font-size="14" lengthAdjust="spacing" textLength="104.2207" x="1911.0933" y="814.8105">ExplorerService</text></g><g><title>ResourceController</title><rect fill="#FFFFFF" height="637.166" style="stroke:#181818;stroke-width:1;" width="10" x="382.4292" y="148.1094"/></g><g><title>ResourceService</title><rect fill="#FFFFFF" height="607.8555" style="stroke:#181818;stroke-width:1;" width="10" x="668.4585" y="177.4199"/></g><g><title>MessageBroker</title><rect fill="#FFFFFF" height="284.7949" style="stroke:#181818;stroke-width:1;" width="10" x="1159.2295" y="265.3516"/></g><g><title>ApplicationShareListener</title><rect fill="#FFFFFF" height="71.6211" style="stroke:#181818;stroke-width:1;" width="10" x="1477.7969" y="294.6621"/></g><g><title>Database</title><rect fill="#FFFFFF" height="29.3105" style="stroke:#181818;stroke-width:1;" width="10" x="1854.7607" y="206.7305"/></g><g><title>Database</title><rect fill="#FFFFFF" height="29.3105" style="stroke:#181818;stroke-width:1;" width="10" x="1854.7607" y="682.3438"/></g><g><title>ExplorerService</title><rect fill="#FFFFFF" height="71.6211" style="stroke:#181818;stroke-width:1;" width="10" x="1958.2036" y="424.9043"/></g><path d="M5,96.4883 L5,121.4883 L430,121.4883 L430,106.4883 L420,96.4883 L5,96.4883" fill="#FEFFDD" style="stroke:#181818;stroke-width:0.5;"/><path d="M420,96.4883 L420,106.4883 L430,106.4883 L420,96.4883" fill="#FEFFDD" style="stroke:#181818;stroke-width:0.5;"/><text fill="#000000" font-family="sans-serif" font-size="13" lengthAdjust="spacing" textLength="223.8882" x="101.2549" y="114.0566">User adds a resource to community</text><g class="message" data-participant-1="user" data-participant-2="controller"><polygon fill="#181818" points="370.4292,144.1094,380.4292,148.1094,370.4292,152.1094,374.4292,148.1094" style="stroke:#181818;stroke-width:1;"/><line style="stroke:#181818;stroke-width:1;" x1="47.1826" x2="376.4292" y1="148.1094" y2="148.1094"/><text fill="#000000" font-family="sans-serif" font-size="13" lengthAdjust="spacing" textLength="316.2466" x="54.1826" y="143.3672">POST /api/communities/{communityId}/resources</text></g><g class="message" data-participant-1="controller" data-participant-2="service"><polygon fill="#181818" points="656.4585,173.4199,666.4585,177.4199,656.4585,181.4199,660.4585,177.4199" style="stroke:#181818;stroke-width:1;"/><line style="stroke:#181818;stroke-width:1;" x1="392.4292" x2="662.4585" y1="177.4199" y2="177.4199"/><text fill="#000000" font-family="sans-serif" font-size="13" lengthAdjust="spacing" textLength="257.0293" x="399.4292" y="172.6777">addResource(communityId, resourceDto)</text></g><g class="message" data-participant-1="service" data-participant-2="db"><polygon fill="#181818" points="1842.7607,202.7305,1852.7607,206.7305,1842.7607,210.7305,1846.7607,206.7305" style="stroke:#181818;stroke-width:1;"/><line style="stroke:#181818;stroke-width:1;" x1="678.4585" x2="1848.7607" y1="206.7305" y2="206.7305"/><text fill="#000000" font-family="sans-serif" font-size="13" lengthAdjust="spacing" textLength="148.0591" x="685.4585" y="201.9883">saveResource(resource)</text></g><g class="message" data-participant-1="db" data-participant-2="service"><polygon fill="#181818" points="689.4585,232.041,679.4585,236.041,689.4585,240.041,685.4585,236.041" style="stroke:#181818;stroke-width:1;"/><line style="stroke:#181818;stroke-width:1;stroke-dasharray:2.0,2.0;" x1="683.4585" x2="1858.7607" y1="236.041" y2="236.041"/><text fill="#000000" font-family="sans-serif" font-size="13" lengthAdjust="spacing" textLength="66.3901" x="695.4585" y="231.2988">resourceId</text></g><g class="message" data-participant-1="service" data-participant-2="broker"><polygon fill="#181818" points="1147.2295,261.3516,1157.2295,265.3516,1147.2295,269.3516,1151.2295,265.3516" style="stroke:#181818;stroke-width:1;"/><line style="stroke:#181818;stroke-width:1;" x1="678.4585" x2="1153.2295" y1="265.3516" y2="265.3516"/><text fill="#000000" font-family="sans-serif" font-size="13" lengthAdjust="spacing" textLength="426.334" x="685.4585" y="260.6094">addCommunityToShareGroups(communityId, resourceId, appName)</text></g><g class="message" data-participant-1="broker" data-participant-2="appListener"><polygon fill="#181818" points="1465.7969,290.6621,1475.7969,294.6621,1465.7969,298.6621,1469.7969,294.6621" style="stroke:#181818;stroke-width:1;"/><line style="stroke:#181818;stroke-width:1;" x1="1169.2295" x2="1471.7969" y1="294.6621" y2="294.6621"/><text fill="#000000" font-family="sans-serif" font-size="13" lengthAdjust="spacing" textLength="289.5674" x="1176.2295" y="289.9199">updateShareGroups(resourceId, communityId)</text></g><g class="message" data-participant-1="appListener" data-participant-2="appListener"><line style="stroke:#181818;stroke-width:1;" x1="1487.7969" x2="1529.7969" y1="323.9727" y2="323.9727"/><line style="stroke:#181818;stroke-width:1;" x1="1529.7969" x2="1529.7969" y1="323.9727" y2="336.9727"/><line style="stroke:#181818;stroke-width:1;" x1="1488.7969" x2="1529.7969" y1="336.9727" y2="336.9727"/><polygon fill="#181818" points="1498.7969,332.9727,1488.7969,336.9727,1498.7969,340.9727,1494.7969,336.9727" style="stroke:#181818;stroke-width:1;"/><text fill="#000000" font-family="sans-serif" font-size="13" lengthAdjust="spacing" textLength="342.9639" x="1494.7969" y="319.2305">addGroupToResourceShares(resourceId, communityId)</text></g><g class="message" data-participant-1="appListener" data-participant-2="broker"><polygon fill="#181818" points="1180.2295,362.2832,1170.2295,366.2832,1180.2295,370.2832,1176.2295,366.2832" style="stroke:#181818;stroke-width:1;"/><line style="stroke:#181818;stroke-width:1;stroke-dasharray:2.0,2.0;" x1="1174.2295" x2="1481.7969" y1="366.2832" y2="366.2832"/><text fill="#000000" font-family="sans-serif" font-size="13" lengthAdjust="spacing" textLength="161.9858" x="1186.2295" y="361.541">shareUpdateConfirmation</text></g><g class="message" data-participant-1="service" data-participant-2="broker"><polygon fill="#181818" points="1147.2295,391.5938,1157.2295,395.5938,1147.2295,399.5938,1151.2295,395.5938" style="stroke:#181818;stroke-width:1;"/><line style="stroke:#181818;stroke-width:1;" x1="678.4585" x2="1153.2295" y1="395.5938" y2="395.5938"/><text fill="#000000" font-family="sans-serif" font-size="13" lengthAdjust="spacing" textLength="456.771" x="685.4585" y="390.8516">notifyResourceAddedToCommunity(communityId, resourceId, appName)</text></g><g class="message" data-participant-1="broker" data-participant-2="explorer"><polygon fill="#181818" points="1946.2036,420.9043,1956.2036,424.9043,1946.2036,428.9043,1950.2036,424.9043" style="stroke:#181818;stroke-width:1;"/><line style="stroke:#181818;stroke-width:1;" x1="1169.2295" x2="1952.2036" y1="424.9043" y2="424.9043"/><text fill="#000000" font-family="sans-serif" font-size="13" lengthAdjust="spacing" textLength="358.1094" x="1176.2295" y="420.1621">updateResourceVisibility(resourceId, communityId, false)</text></g><g class="message" data-participant-1="explorer" data-participant-2="explorer"><line style="stroke:#181818;stroke-width:1;" x1="1968.2036" x2="2010.2036" y1="454.2148" y2="454.2148"/><line style="stroke:#181818;stroke-width:1;" x1="2010.2036" x2="2010.2036" y1="454.2148" y2="467.2148"/><line style="stroke:#181818;stroke-width:1;" x1="1969.2036" x2="2010.2036" y1="467.2148" y2="467.2148"/><polygon fill="#181818" points="1979.2036,463.2148,1969.2036,467.2148,1979.2036,471.2148,1975.2036,467.2148" style="stroke:#181818;stroke-width:1;"/><text fill="#000000" font-family="sans-serif" font-size="13" lengthAdjust="spacing" textLength="242.5059" x="1975.2036" y="449.4727">setResourceVisibility(resourceId, false)</text></g><g class="message" data-participant-1="explorer" data-participant-2="broker"><polygon fill="#181818" points="1180.2295,492.5254,1170.2295,496.5254,1180.2295,500.5254,1176.2295,496.5254" style="stroke:#181818;stroke-width:1;"/><line style="stroke:#181818;stroke-width:1;stroke-dasharray:2.0,2.0;" x1="1174.2295" x2="1962.2036" y1="496.5254" y2="496.5254"/><text fill="#000000" font-family="sans-serif" font-size="13" lengthAdjust="spacing" textLength="179.5308" x="1186.2295" y="491.7832">visibilityUpdateConfirmation</text></g><path d="M19,511.5254 L81.1387,511.5254 L81.1387,518.8359 L71.1387,528.8359 L19,528.8359 L19,511.5254" fill="#EEEEEE" style="stroke:#000000;stroke-width:1.5;"/><rect fill="none" height="266.75" style="stroke:#000000;stroke-width:1.5;" width="1885.0933" x="19" y="511.5254"/><text fill="#000000" font-family="sans-serif" font-size="13" font-weight="bold" lengthAdjust="spacing" textLength="17.1387" x="34" y="525.0938">alt</text><text fill="#000000" font-family="sans-serif" font-size="11" font-weight="bold" lengthAdjust="spacing" textLength="145.3311" x="96.1387" y="524.1602">[successful share update]</text><g class="message" data-participant-1="broker" data-participant-2="service"><polygon fill="#181818" points="689.4585,546.1465,679.4585,550.1465,689.4585,554.1465,685.4585,550.1465" style="stroke:#181818;stroke-width:1;"/><line style="stroke:#181818;stroke-width:1;stroke-dasharray:2.0,2.0;" x1="683.4585" x2="1163.2295" y1="550.1465" y2="550.1465"/><text fill="#000000" font-family="sans-serif" font-size="13" lengthAdjust="spacing" textLength="127.9751" x="695.4585" y="545.4043">shareUpdateSuccess</text></g><g class="message" data-participant-1="service" data-participant-2="controller"><polygon fill="#181818" points="403.4292,575.457,393.4292,579.457,403.4292,583.457,399.4292,579.457" style="stroke:#181818;stroke-width:1;"/><line style="stroke:#181818;stroke-width:1;stroke-dasharray:2.0,2.0;" x1="397.4292" x2="667.4585" y1="579.457" y2="579.457"/><text fill="#000000" font-family="sans-serif" font-size="13" lengthAdjust="spacing" textLength="114.6577" x="409.4292" y="574.7148">resourceResponse</text></g><g class="message" data-participant-1="controller" data-participant-2="user"><polygon fill="#181818" points="58.1826,604.7676,48.1826,608.7676,58.1826,612.7676,54.1826,608.7676" style="stroke:#181818;stroke-width:1;"/><line style="stroke:#181818;stroke-width:1;stroke-dasharray:2.0,2.0;" x1="52.1826" x2="381.4292" y1="608.7676" y2="608.7676"/><text fill="#000000" font-family="sans-serif" font-size="13" lengthAdjust="spacing" textLength="270.5879" x="64.1826" y="604.0254">201 Created (Resource added successfully)</text></g><line style="stroke:#000000;stroke-width:1;stroke-dasharray:2.0,2.0;" x1="19" x2="1904.0933" y1="617.7676" y2="617.7676"/><text fill="#000000" font-family="sans-serif" font-size="11" font-weight="bold" lengthAdjust="spacing" textLength="117.8472" x="24" y="628.4023">[share update failed]</text><g class="message" data-participant-1="broker" data-participant-2="service"><polygon fill="#181818" points="689.4585,649.0332,679.4585,653.0332,689.4585,657.0332,685.4585,653.0332" style="stroke:#181818;stroke-width:1;"/><line style="stroke:#181818;stroke-width:1;stroke-dasharray:2.0,2.0;" x1="683.4585" x2="1163.2295" y1="653.0332" y2="653.0332"/><text fill="#000000" font-family="sans-serif" font-size="13" lengthAdjust="spacing" textLength="121.3862" x="695.4585" y="648.291">shareUpdateFailure</text></g><g class="message" data-participant-1="service" data-participant-2="db"><polygon fill="#181818" points="1842.7607,678.3438,1852.7607,682.3438,1842.7607,686.3438,1846.7607,682.3438" style="stroke:#181818;stroke-width:1;"/><line style="stroke:#181818;stroke-width:1;" x1="678.4585" x2="1848.7607" y1="682.3438" y2="682.3438"/><text fill="#000000" font-family="sans-serif" font-size="13" lengthAdjust="spacing" textLength="170.7393" x="685.4585" y="677.6016">deleteResource(resourceId)</text></g><g class="message" data-participant-1="db" data-participant-2="service"><polygon fill="#181818" points="689.4585,707.6543,679.4585,711.6543,689.4585,715.6543,685.4585,711.6543" style="stroke:#181818;stroke-width:1;"/><line style="stroke:#181818;stroke-width:1;stroke-dasharray:2.0,2.0;" x1="683.4585" x2="1858.7607" y1="711.6543" y2="711.6543"/><text fill="#000000" font-family="sans-serif" font-size="13" lengthAdjust="spacing" textLength="133.9927" x="695.4585" y="706.9121">deletionConfirmation</text></g><g class="message" data-participant-1="service" data-participant-2="controller"><polygon fill="#181818" points="403.4292,736.9648,393.4292,740.9648,403.4292,744.9648,399.4292,740.9648" style="stroke:#181818;stroke-width:1;"/><line style="stroke:#181818;stroke-width:1;stroke-dasharray:2.0,2.0;" x1="397.4292" x2="667.4585" y1="740.9648" y2="740.9648"/><text fill="#000000" font-family="sans-serif" font-size="13" lengthAdjust="spacing" textLength="91.3809" x="409.4292" y="736.2227">errorResponse</text></g><g class="message" data-participant-1="controller" data-participant-2="user"><polygon fill="#181818" points="58.1826,766.2754,48.1826,770.2754,58.1826,774.2754,54.1826,770.2754" style="stroke:#181818;stroke-width:1;"/><line style="stroke:#181818;stroke-width:1;stroke-dasharray:2.0,2.0;" x1="52.1826" x2="381.4292" y1="770.2754" y2="770.2754"/><text fill="#000000" font-family="sans-serif" font-size="13" lengthAdjust="spacing" textLength="155.0859" x="64.1826" y="765.5332">500 Internal Server Error</text></g><!--SRC=[ZLJ1Rjim3BthAuXSsW4faWtO9OS1NTeD0RPkMDBUPOjPXIcM8CdPWc7_FacMR3fDq-PYIdby91yfyjfh2vDxXtO2t44R36QuzRAMXZSU9Z_GwTRMkDIDjrgf3Apxusdu6krUrfYmhhF7mA_e7F-97wt-bIchP8vHryOeMNClTRD-v1Q_IEUnoGxSc79cWdjUSOSmkSbMWeYAiKPx1Br7cwgRajGN40i7BaGW0vjJ1wy3PhTh6-aFZ4KdkFemSll-RRs16JToLe0ItUnlxxKI_sQ5pZ5UUxdd8GaY6XliI9ubMiHSYeINX6xQPtVZzPk1iKZBiX6vHBK0n_VOynHNuXTq4HLSqSW5jH9C80Mo2rXscNIDWD_IFy9pdQ6PT1rDHIrBBHkTu9-jReqxNMAqGs_l-8wcdCU3TTz8J_g_WDQ44K3AJUb874991uYHmnFoK40YtUX-lcEWSp4e6v72HR_xb6juKLjfTqb2Alaegmkuqrvk3t3xnoXjqUQ7TKhc9Y5BXjT2eDZeNlXNQ4sqdHp5Iwy9yrrHkuHwa4vMKiKWpmWoXIrNBeReoonah1Wnx131eN-1FZCExaIAVUzoNki-2SQL1zVMuRswRQkwFkKo6OHVaOO-6TBCTUUQe8G_3ssyxHjsj4jAIQ5QenlNHQFR8U3Z3bh0k_bRM5eCl08kYpXnDiDvI5qTWieOf1dL4DII2iLhIlaKaAt5CwMCw-asZa25_kdEYMyXekb2ISH7soUvX-QC6dMKGNOzgoPQg-tBKhwVps7LUBGDLn17FFnx6rqPDeBH2IaRbboHDVuV]--></g></svg>