<svg xmlns="http://www.w3.org/2000/svg" xmlns:xlink="http://www.w3.org/1999/xlink" contentStyleType="text/css" data-diagram-type="SEQUENCE" height="940px" preserveAspectRatio="none" style="width:1926px;height:940px;background:#FFFFFF;" version="1.1" viewBox="0 0 1926 940" width="1926px" zoomAndPan="magnify"><defs/><g><g><title>CommunityController</title><rect fill="#FFFFFF" height="701.7871" style="stroke:#181818;stroke-width:1;" width="10" x="368.9268" y="148.1094"/></g><g><title>CommunityService</title><rect fill="#FFFFFF" height="637.166" style="stroke:#181818;stroke-width:1;" width="10" x="707.2036" y="212.7305"/></g><g><title>MessageBroker</title><rect fill="#FFFFFF" height="154.5527" style="stroke:#181818;stroke-width:1;" width="10" x="1064.8091" y="401.5938"/></g><g><title>DirectoryMicroservice</title><rect fill="#FFFFFF" height="71.6211" style="stroke:#181818;stroke-width:1;" width="10" x="1439.4136" y="430.9043"/></g><g><title>Database</title><rect fill="#FFFFFF" height="29.3105" style="stroke:#181818;stroke-width:1;" width="10" x="1869.8882" y="284.3516"/></g><g><title>Database</title><rect fill="#FFFFFF" height="29.3105" style="stroke:#181818;stroke-width:1;" width="10" x="1869.8882" y="342.9727"/></g><g><title>Database</title><rect fill="#FFFFFF" height="29.3105" style="stroke:#181818;stroke-width:1;" width="10" x="1869.8882" y="688.3438"/></g><g><title>Database</title><rect fill="#FFFFFF" height="29.3105" style="stroke:#181818;stroke-width:1;" width="10" x="1869.8882" y="746.9648"/></g><rect fill="none" height="325.3711" style="stroke:#000000;stroke-width:1.5;" width="1896.2207" x="23" y="517.5254"/><g><title>User</title><rect fill="#000000" fill-opacity="0.00000" height="778.4082" width="8" x="47.1826" y="81.4883"/><line style="stroke:#181818;stroke-width:0.5;stroke-dasharray:5.0,5.0;" x1="51" x2="51" y1="81.4883" y2="859.8965"/></g><g><title>CommunityController</title><rect fill="#000000" fill-opacity="0.00000" height="778.4082" width="8" x="369.9268" y="81.4883"/><line style="stroke:#181818;stroke-width:0.5;stroke-dasharray:5.0,5.0;" x1="373.6455" x2="373.6455" y1="81.4883" y2="859.8965"/></g><g><title>CommunityService</title><rect fill="#000000" fill-opacity="0.00000" height="778.4082" width="8" x="708.2036" y="81.4883"/><line style="stroke:#181818;stroke-width:0.5;stroke-dasharray:5.0,5.0;" x1="711.3369" x2="711.3369" y1="81.4883" y2="859.8965"/></g><g><title>MessageBroker</title><rect fill="#000000" fill-opacity="0.00000" height="778.4082" width="8" x="1065.8091" y="81.4883"/><line style="stroke:#181818;stroke-width:0.5;stroke-dasharray:5.0,5.0;" x1="1069.5669" x2="1069.5669" y1="81.4883" y2="859.8965"/></g><g><title>DirectoryMicroservice</title><rect fill="#000000" fill-opacity="0.00000" height="778.4082" width="8" x="1440.4136" y="81.4883"/><line style="stroke:#181818;stroke-width:0.5;stroke-dasharray:5.0,5.0;" x1="1444.0913" x2="1444.0913" y1="81.4883" y2="859.8965"/></g><g><title>Database</title><rect fill="#000000" fill-opacity="0.00000" height="778.4082" width="8" x="1870.8882" y="81.4883"/><line style="stroke:#181818;stroke-width:0.5;stroke-dasharray:5.0,5.0;" x1="1874.5557" x2="1874.5557" y1="81.4883" y2="859.8965"/></g><g class="participant participant-head" data-participant="user"><text fill="#000000" font-family="sans-serif" font-size="14" lengthAdjust="spacing" textLength="30.3652" x="33" y="78.5352">User</text><ellipse cx="51.1826" cy="13.5" fill="#E2E2F0" rx="8" ry="8" style="stroke:#181818;stroke-width:0.5;"/><path d="M51.1826,21.5 L51.1826,48.5 M38.1826,29.5 L64.1826,29.5 M51.1826,48.5 L38.1826,63.5 M51.1826,48.5 L64.1826,63.5" fill="none" style="stroke:#181818;stroke-width:0.5;"/></g><g class="participant participant-tail" data-participant="user"><text fill="#000000" font-family="sans-serif" font-size="14" lengthAdjust="spacing" textLength="30.3652" x="33" y="872.4316">User</text><ellipse cx="51.1826" cy="883.8848" fill="#E2E2F0" rx="8" ry="8" style="stroke:#181818;stroke-width:0.5;"/><path d="M51.1826,891.8848 L51.1826,918.8848 M38.1826,899.8848 L64.1826,899.8848 M51.1826,918.8848 L38.1826,933.8848 M51.1826,918.8848 L64.1826,933.8848" fill="none" style="stroke:#181818;stroke-width:0.5;"/></g><g class="participant participant-head" data-participant="controller"><rect fill="#E2E2F0" height="30.4883" rx="2.5" ry="2.5" style="stroke:#181818;stroke-width:0.5;" width="160.5625" x="293.6455" y="50"/><text fill="#000000" font-family="sans-serif" font-size="14" lengthAdjust="spacing" textLength="146.5625" x="300.6455" y="70.5352">CommunityController</text></g><g class="participant participant-tail" data-participant="controller"><rect fill="#E2E2F0" height="30.4883" rx="2.5" ry="2.5" style="stroke:#181818;stroke-width:0.5;" width="160.5625" x="293.6455" y="858.8965"/><text fill="#000000" font-family="sans-serif" font-size="14" lengthAdjust="spacing" textLength="146.5625" x="300.6455" y="879.4316">CommunityController</text></g><g class="participant participant-head" data-participant="service"><rect fill="#E2E2F0" height="30.4883" rx="2.5" ry="2.5" style="stroke:#181818;stroke-width:0.5;" width="139.7334" x="642.3369" y="50"/><text fill="#000000" font-family="sans-serif" font-size="14" lengthAdjust="spacing" textLength="125.7334" x="649.3369" y="70.5352">CommunityService</text></g><g class="participant participant-tail" data-participant="service"><rect fill="#E2E2F0" height="30.4883" rx="2.5" ry="2.5" style="stroke:#181818;stroke-width:0.5;" width="139.7334" x="642.3369" y="858.8965"/><text fill="#000000" font-family="sans-serif" font-size="14" lengthAdjust="spacing" textLength="125.7334" x="649.3369" y="879.4316">CommunityService</text></g><g class="participant participant-head" data-participant="broker"><rect fill="#E2E2F0" height="30.4883" rx="2.5" ry="2.5" style="stroke:#181818;stroke-width:0.5;" width="116.4844" x="1011.5669" y="50"/><text fill="#000000" font-family="sans-serif" font-size="14" lengthAdjust="spacing" textLength="102.4844" x="1018.5669" y="70.5352">MessageBroker</text></g><g class="participant participant-tail" data-participant="broker"><rect fill="#E2E2F0" height="30.4883" rx="2.5" ry="2.5" style="stroke:#181818;stroke-width:0.5;" width="116.4844" x="1011.5669" y="858.8965"/><text fill="#000000" font-family="sans-serif" font-size="14" lengthAdjust="spacing" textLength="102.4844" x="1018.5669" y="879.4316">MessageBroker</text></g><g class="participant participant-head" data-participant="directory"><rect fill="#E2E2F0" height="30.4883" rx="2.5" ry="2.5" style="stroke:#181818;stroke-width:0.5;" width="160.6445" x="1364.0913" y="50"/><text fill="#000000" font-family="sans-serif" font-size="14" lengthAdjust="spacing" textLength="146.6445" x="1371.0913" y="70.5352">DirectoryMicroservice</text></g><g class="participant participant-tail" data-participant="directory"><rect fill="#E2E2F0" height="30.4883" rx="2.5" ry="2.5" style="stroke:#181818;stroke-width:0.5;" width="160.6445" x="1364.0913" y="858.8965"/><text fill="#000000" font-family="sans-serif" font-size="14" lengthAdjust="spacing" textLength="146.6445" x="1371.0913" y="879.4316">DirectoryMicroservice</text></g><g class="participant participant-head" data-participant="db"><text fill="#000000" font-family="sans-serif" font-size="14" lengthAdjust="spacing" textLength="62.665" x="1840.5557" y="78.5352">Database</text><path d="M1856.8882,29 C1856.8882,19 1874.8882,19 1874.8882,19 C1874.8882,19 1892.8882,19 1892.8882,29 L1892.8882,55 C1892.8882,65 1874.8882,65 1874.8882,65 C1874.8882,65 1856.8882,65 1856.8882,55 L1856.8882,29" fill="#E2E2F0" style="stroke:#181818;stroke-width:1.5;"/><path d="M1856.8882,29 C1856.8882,39 1874.8882,39 1874.8882,39 C1874.8882,39 1892.8882,39 1892.8882,29" fill="none" style="stroke:#181818;stroke-width:1.5;"/></g><g class="participant participant-tail" data-participant="db"><text fill="#000000" font-family="sans-serif" font-size="14" lengthAdjust="spacing" textLength="62.665" x="1840.5557" y="872.4316">Database</text><path d="M1856.8882,885.3848 C1856.8882,875.3848 1874.8882,875.3848 1874.8882,875.3848 C1874.8882,875.3848 1892.8882,875.3848 1892.8882,885.3848 L1892.8882,911.3848 C1892.8882,921.3848 1874.8882,921.3848 1874.8882,921.3848 C1874.8882,921.3848 1856.8882,921.3848 1856.8882,911.3848 L1856.8882,885.3848" fill="#E2E2F0" style="stroke:#181818;stroke-width:1.5;"/><path d="M1856.8882,885.3848 C1856.8882,895.3848 1874.8882,895.3848 1874.8882,895.3848 C1874.8882,895.3848 1892.8882,895.3848 1892.8882,885.3848" fill="none" style="stroke:#181818;stroke-width:1.5;"/></g><g><title>CommunityController</title><rect fill="#FFFFFF" height="701.7871" style="stroke:#181818;stroke-width:1;" width="10" x="368.9268" y="148.1094"/></g><g><title>CommunityService</title><rect fill="#FFFFFF" height="637.166" style="stroke:#181818;stroke-width:1;" width="10" x="707.2036" y="212.7305"/></g><g><title>MessageBroker</title><rect fill="#FFFFFF" height="154.5527" style="stroke:#181818;stroke-width:1;" width="10" x="1064.8091" y="401.5938"/></g><g><title>DirectoryMicroservice</title><rect fill="#FFFFFF" height="71.6211" style="stroke:#181818;stroke-width:1;" width="10" x="1439.4136" y="430.9043"/></g><g><title>Database</title><rect fill="#FFFFFF" height="29.3105" style="stroke:#181818;stroke-width:1;" width="10" x="1869.8882" y="284.3516"/></g><g><title>Database</title><rect fill="#FFFFFF" height="29.3105" style="stroke:#181818;stroke-width:1;" width="10" x="1869.8882" y="342.9727"/></g><g><title>Database</title><rect fill="#FFFFFF" height="29.3105" style="stroke:#181818;stroke-width:1;" width="10" x="1869.8882" y="688.3438"/></g><g><title>Database</title><rect fill="#FFFFFF" height="29.3105" style="stroke:#181818;stroke-width:1;" width="10" x="1869.8882" y="746.9648"/></g><path d="M5,96.4883 L5,121.4883 L421,121.4883 L421,106.4883 L411,96.4883 L5,96.4883" fill="#FEFFDD" style="stroke:#181818;stroke-width:0.5;"/><path d="M411,96.4883 L411,106.4883 L421,106.4883 L411,96.4883" fill="#FEFFDD" style="stroke:#181818;stroke-width:0.5;"/><text fill="#000000" font-family="sans-serif" font-size="13" lengthAdjust="spacing" textLength="192.7529" x="112.2275" y="114.0566">User creates a new community</text><g class="message" data-participant-1="user" data-participant-2="controller"><polygon fill="#181818" points="356.9268,144.1094,366.9268,148.1094,356.9268,152.1094,360.9268,148.1094" style="stroke:#181818;stroke-width:1;"/><line style="stroke:#181818;stroke-width:1;" x1="51.1826" x2="362.9268" y1="148.1094" y2="148.1094"/><text fill="#000000" font-family="sans-serif" font-size="13" lengthAdjust="spacing" textLength="150.6743" x="58.1826" y="143.3672">POST /api/communities</text></g><path d="M56,161.1094 L56,186.1094 L297,186.1094 L297,171.1094 L287,161.1094 L56,161.1094" fill="#FEFFDD" style="stroke:#181818;stroke-width:0.5;"/><path d="M287,161.1094 L287,171.1094 L297,171.1094 L287,161.1094" fill="#FEFFDD" style="stroke:#181818;stroke-width:0.5;"/><text fill="#000000" font-family="sans-serif" font-size="13" lengthAdjust="spacing" textLength="220.7334" x="62" y="178.6777">{ communityInfo, initialInvitations }</text><g class="message" data-participant-1="controller" data-participant-2="service"><polygon fill="#181818" points="695.2036,208.7305,705.2036,212.7305,695.2036,216.7305,699.2036,212.7305" style="stroke:#181818;stroke-width:1;"/><line style="stroke:#181818;stroke-width:1;" x1="378.9268" x2="701.2036" y1="212.7305" y2="212.7305"/><text fill="#000000" font-family="sans-serif" font-size="13" lengthAdjust="spacing" textLength="309.2769" x="385.9268" y="207.9883">createCommunity(communityDto, invitationsDto)</text></g><g class="message" data-participant-1="service" data-participant-2="service"><line style="stroke:#181818;stroke-width:1;" x1="717.2036" x2="759.2036" y1="242.041" y2="242.041"/><line style="stroke:#181818;stroke-width:1;" x1="759.2036" x2="759.2036" y1="242.041" y2="255.041"/><line style="stroke:#181818;stroke-width:1;" x1="718.2036" x2="759.2036" y1="255.041" y2="255.041"/><polygon fill="#181818" points="728.2036,251.041,718.2036,255.041,728.2036,259.041,724.2036,255.041" style="stroke:#181818;stroke-width:1;"/><text fill="#000000" font-family="sans-serif" font-size="13" lengthAdjust="spacing" textLength="159.104" x="724.2036" y="237.2988">validateCommunityData()</text></g><g class="message" data-participant-1="service" data-participant-2="db"><polygon fill="#181818" points="1857.8882,280.3516,1867.8882,284.3516,1857.8882,288.3516,1861.8882,284.3516" style="stroke:#181818;stroke-width:1;"/><line style="stroke:#181818;stroke-width:1;" x1="717.2036" x2="1863.8882" y1="284.3516" y2="284.3516"/><text fill="#000000" font-family="sans-serif" font-size="13" lengthAdjust="spacing" textLength="208.457" x="724.2036" y="279.6094">saveCommunity(communityData)</text></g><g class="message" data-participant-1="db" data-participant-2="service"><polygon fill="#181818" points="728.2036,309.6621,718.2036,313.6621,728.2036,317.6621,724.2036,313.6621" style="stroke:#181818;stroke-width:1;"/><line style="stroke:#181818;stroke-width:1;stroke-dasharray:2.0,2.0;" x1="722.2036" x2="1873.8882" y1="313.6621" y2="313.6621"/><text fill="#000000" font-family="sans-serif" font-size="13" lengthAdjust="spacing" textLength="82.3926" x="734.2036" y="308.9199">communityId</text></g><g class="message" data-participant-1="service" data-participant-2="db"><polygon fill="#181818" points="1857.8882,338.9727,1867.8882,342.9727,1857.8882,346.9727,1861.8882,342.9727" style="stroke:#181818;stroke-width:1;"/><line style="stroke:#181818;stroke-width:1;" x1="717.2036" x2="1863.8882" y1="342.9727" y2="342.9727"/><text fill="#000000" font-family="sans-serif" font-size="13" lengthAdjust="spacing" textLength="231.6133" x="724.2036" y="338.2305">saveInitialInvitations(invitationsData)</text></g><g class="message" data-participant-1="db" data-participant-2="service"><polygon fill="#181818" points="728.2036,368.2832,718.2036,372.2832,728.2036,376.2832,724.2036,372.2832" style="stroke:#181818;stroke-width:1;"/><line style="stroke:#181818;stroke-width:1;stroke-dasharray:2.0,2.0;" x1="722.2036" x2="1873.8882" y1="372.2832" y2="372.2832"/><text fill="#000000" font-family="sans-serif" font-size="13" lengthAdjust="spacing" textLength="84.208" x="734.2036" y="367.541">invitationsIds</text></g><g class="message" data-participant-1="service" data-participant-2="broker"><polygon fill="#181818" points="1052.8091,397.5938,1062.8091,401.5938,1052.8091,405.5938,1056.8091,401.5938" style="stroke:#181818;stroke-width:1;"/><line style="stroke:#181818;stroke-width:1;" x1="717.2036" x2="1058.8091" y1="401.5938" y2="401.5938"/><text fill="#000000" font-family="sans-serif" font-size="13" lengthAdjust="spacing" textLength="328.6055" x="724.2036" y="396.8516">createManualGroup(communityId, communityName)</text></g><g class="message" data-participant-1="broker" data-participant-2="directory"><polygon fill="#181818" points="1427.4136,426.9043,1437.4136,430.9043,1427.4136,434.9043,1431.4136,430.9043" style="stroke:#181818;stroke-width:1;"/><line style="stroke:#181818;stroke-width:1;" x1="1074.8091" x2="1433.4136" y1="430.9043" y2="430.9043"/><text fill="#000000" font-family="sans-serif" font-size="13" lengthAdjust="spacing" textLength="345.6045" x="1081.8091" y="426.1621">requestGroupCreation(communityId, communityName)</text></g><g class="message" data-participant-1="directory" data-participant-2="directory"><line style="stroke:#181818;stroke-width:1;" x1="1449.4136" x2="1491.4136" y1="460.2148" y2="460.2148"/><line style="stroke:#181818;stroke-width:1;" x1="1491.4136" x2="1491.4136" y1="460.2148" y2="473.2148"/><line style="stroke:#181818;stroke-width:1;" x1="1450.4136" x2="1491.4136" y1="473.2148" y2="473.2148"/><polygon fill="#181818" points="1460.4136,469.2148,1450.4136,473.2148,1460.4136,477.2148,1456.4136,473.2148" style="stroke:#181818;stroke-width:1;"/><text fill="#000000" font-family="sans-serif" font-size="13" lengthAdjust="spacing" textLength="396.4746" x="1456.4136" y="455.4727">createManualGroupIfNotExists(communityId, communityName)</text></g><g class="message" data-participant-1="directory" data-participant-2="broker"><polygon fill="#181818" points="1085.8091,498.5254,1075.8091,502.5254,1085.8091,506.5254,1081.8091,502.5254" style="stroke:#181818;stroke-width:1;"/><line style="stroke:#181818;stroke-width:1;stroke-dasharray:2.0,2.0;" x1="1079.8091" x2="1443.4136" y1="502.5254" y2="502.5254"/><text fill="#000000" font-family="sans-serif" font-size="13" lengthAdjust="spacing" textLength="129.8477" x="1091.8091" y="497.7832">groupCreationResult</text></g><path d="M23,517.5254 L85.1387,517.5254 L85.1387,524.8359 L75.1387,534.8359 L23,534.8359 L23,517.5254" fill="#EEEEEE" style="stroke:#000000;stroke-width:1.5;"/><rect fill="none" height="325.3711" style="stroke:#000000;stroke-width:1.5;" width="1896.2207" x="23" y="517.5254"/><text fill="#000000" font-family="sans-serif" font-size="13" font-weight="bold" lengthAdjust="spacing" textLength="17.1387" x="38" y="531.0938">alt</text><text fill="#000000" font-family="sans-serif" font-size="11" font-weight="bold" lengthAdjust="spacing" textLength="154.6499" x="100.1387" y="530.1602">[successful group creation]</text><g class="message" data-participant-1="broker" data-participant-2="service"><polygon fill="#181818" points="728.2036,552.1465,718.2036,556.1465,728.2036,560.1465,724.2036,556.1465" style="stroke:#181818;stroke-width:1;"/><line style="stroke:#181818;stroke-width:1;stroke-dasharray:2.0,2.0;" x1="722.2036" x2="1068.8091" y1="556.1465" y2="556.1465"/><text fill="#000000" font-family="sans-serif" font-size="13" lengthAdjust="spacing" textLength="139.9531" x="734.2036" y="551.4043">groupCreationSuccess</text></g><g class="message" data-participant-1="service" data-participant-2="controller"><polygon fill="#181818" points="389.9268,581.457,379.9268,585.457,389.9268,589.457,385.9268,585.457" style="stroke:#181818;stroke-width:1;"/><line style="stroke:#181818;stroke-width:1;stroke-dasharray:2.0,2.0;" x1="383.9268" x2="706.2036" y1="585.457" y2="585.457"/><text fill="#000000" font-family="sans-serif" font-size="13" lengthAdjust="spacing" textLength="130.6602" x="395.9268" y="580.7148">communityResponse</text></g><g class="message" data-participant-1="controller" data-participant-2="user"><polygon fill="#181818" points="62.1826,610.7676,52.1826,614.7676,62.1826,618.7676,58.1826,614.7676" style="stroke:#181818;stroke-width:1;"/><line style="stroke:#181818;stroke-width:1;stroke-dasharray:2.0,2.0;" x1="56.1826" x2="367.9268" y1="614.7676" y2="614.7676"/><text fill="#000000" font-family="sans-serif" font-size="13" lengthAdjust="spacing" textLength="293.7441" x="68.1826" y="610.0254">201 Created (Community created successfully)</text></g><line style="stroke:#000000;stroke-width:1;stroke-dasharray:2.0,2.0;" x1="23" x2="1919.2207" y1="623.7676" y2="623.7676"/><text fill="#000000" font-family="sans-serif" font-size="11" font-weight="bold" lengthAdjust="spacing" textLength="127.166" x="28" y="634.4023">[group creation failed]</text><g class="message" data-participant-1="broker" data-participant-2="service"><polygon fill="#181818" points="728.2036,655.0332,718.2036,659.0332,728.2036,663.0332,724.2036,659.0332" style="stroke:#181818;stroke-width:1;"/><line style="stroke:#181818;stroke-width:1;stroke-dasharray:2.0,2.0;" x1="722.2036" x2="1068.8091" y1="659.0332" y2="659.0332"/><text fill="#000000" font-family="sans-serif" font-size="13" lengthAdjust="spacing" textLength="133.3643" x="734.2036" y="654.291">groupCreationFailure</text></g><g class="message" data-participant-1="service" data-participant-2="db"><polygon fill="#181818" points="1857.8882,684.3438,1867.8882,688.3438,1857.8882,692.3438,1861.8882,688.3438" style="stroke:#181818;stroke-width:1;"/><line style="stroke:#181818;stroke-width:1;" x1="717.2036" x2="1863.8882" y1="688.3438" y2="688.3438"/><text fill="#000000" font-family="sans-serif" font-size="13" lengthAdjust="spacing" textLength="202.1792" x="724.2036" y="683.6016">deleteCommunity(communityId)</text></g><g class="message" data-participant-1="db" data-participant-2="service"><polygon fill="#181818" points="728.2036,713.6543,718.2036,717.6543,728.2036,721.6543,724.2036,717.6543" style="stroke:#181818;stroke-width:1;"/><line style="stroke:#181818;stroke-width:1;stroke-dasharray:2.0,2.0;" x1="722.2036" x2="1873.8882" y1="717.6543" y2="717.6543"/><text fill="#000000" font-family="sans-serif" font-size="13" lengthAdjust="spacing" textLength="133.9927" x="734.2036" y="712.9121">deletionConfirmation</text></g><g class="message" data-participant-1="service" data-participant-2="db"><polygon fill="#181818" points="1857.8882,742.9648,1867.8882,746.9648,1857.8882,750.9648,1861.8882,746.9648" style="stroke:#181818;stroke-width:1;"/><line style="stroke:#181818;stroke-width:1;" x1="717.2036" x2="1863.8882" y1="746.9648" y2="746.9648"/><text fill="#000000" font-family="sans-serif" font-size="13" lengthAdjust="spacing" textLength="196.8345" x="724.2036" y="742.2227">deleteInvitations(invitationsIds)</text></g><g class="message" data-participant-1="db" data-participant-2="service"><polygon fill="#181818" points="728.2036,772.2754,718.2036,776.2754,728.2036,780.2754,724.2036,776.2754" style="stroke:#181818;stroke-width:1;"/><line style="stroke:#181818;stroke-width:1;stroke-dasharray:2.0,2.0;" x1="722.2036" x2="1873.8882" y1="776.2754" y2="776.2754"/><text fill="#000000" font-family="sans-serif" font-size="13" lengthAdjust="spacing" textLength="133.9927" x="734.2036" y="771.5332">deletionConfirmation</text></g><g class="message" data-participant-1="service" data-participant-2="controller"><polygon fill="#181818" points="389.9268,801.5859,379.9268,805.5859,389.9268,809.5859,385.9268,805.5859" style="stroke:#181818;stroke-width:1;"/><line style="stroke:#181818;stroke-width:1;stroke-dasharray:2.0,2.0;" x1="383.9268" x2="706.2036" y1="805.5859" y2="805.5859"/><text fill="#000000" font-family="sans-serif" font-size="13" lengthAdjust="spacing" textLength="91.3809" x="395.9268" y="800.8438">errorResponse</text></g><g class="message" data-participant-1="controller" data-participant-2="user"><polygon fill="#181818" points="62.1826,830.8965,52.1826,834.8965,62.1826,838.8965,58.1826,834.8965" style="stroke:#181818;stroke-width:1;"/><line style="stroke:#181818;stroke-width:1;stroke-dasharray:2.0,2.0;" x1="56.1826" x2="367.9268" y1="834.8965" y2="834.8965"/><text fill="#000000" font-family="sans-serif" font-size="13" lengthAdjust="spacing" textLength="155.0859" x="68.1826" y="830.1543">500 Internal Server Error</text></g><!--SRC=[jLLDRnen4BtxLumuWKGKKgaN3ZsKfDKUIAlI_e1XFKkj6flOtcrHrV_UMU-Nbn329HnWTltytflnZC4yM0UJ7vxS1D13oO4ue0igLmSq0IOhkz-NHeNZofhWhDOjCkyVNy1lo5KgfmZsJJn6hibxtD57Pt-rdDiOZb7tob5jyhXMkRC-8PNTYf0OS8kU6Dr63M0hXB61m5RaOchpnFOIwgmXTuI1F20O-itBhNiXQZpSV1Zj-FfbynrkyQ1kEw0YBp0FgcAIj2PHrwdTpm2sYDfB-3lGPwQmSr0r0UhCL2fWKDPu-2V4m5BBjnalMwDzUQSzrts8L3q7Fyy6JrtfHHkCE2lKIgQiTVscin5ORfVWiJghpEX4Ykijjt0pCjqdB8Ma57bE8djMZscQrwjg2JYJ_e9WqsXTJTTeIjIVdIqFqyJmV73_Y7jAfDi-5SrlpA3hnIKuUYh9XqYtgldPpdMqGqEBFZmXVsOuAnvjUFYZVF0NHLB6f02xrEKtygKEex8DZb07y6MUyz0MfMusDdPufm3-TDL8JsJ4lscsHt0YqbQpVXk_-dCw6Ru-8_Pvu2EcY4wdXJSqa_PkSGTHbIHC-yPjgoUJFFIHIqEQhuvnGb2WqYIlo-iJOqj7L-VLDBmaJMVdEPEpY4-RDrAVT7iaO7c-c0lbziD1ZFl-iluBiyRZyyOcJWwNdBFkzODzlrX0PW8vWnhgVnXUVQYt2Z9IfAtRtNl9g-Hw_Wy0]--></g></svg>