<svg xmlns="http://www.w3.org/2000/svg" xmlns:xlink="http://www.w3.org/1999/xlink" contentStyleType="text/css" data-diagram-type="SEQUENCE" height="804px" preserveAspectRatio="none" style="width:1629px;height:804px;background:#FFFFFF;" version="1.1" viewBox="0 0 1629 804" width="1629px" zoomAndPan="magnify"><defs/><g><g><title>CommunityController</title><rect fill="#FFFFFF" height="565.5449" style="stroke:#181818;stroke-width:1;" width="10" x="391.7148" y="148.1094"/></g><g><title>CommunityService</title><rect fill="#FFFFFF" height="536.2344" style="stroke:#181818;stroke-width:1;" width="10" x="622.894" y="177.4199"/></g><g><title>MessageBroker</title><rect fill="#FFFFFF" height="213.1738" style="stroke:#181818;stroke-width:1;" width="10" x="865.6704" y="265.3516"/></g><g><title>DirectoryMicroservice</title><rect fill="#FFFFFF" height="130.2422" style="stroke:#181818;stroke-width:1;" width="10" x="1124.665" y="294.6621"/></g><g><title>DirectoryListener</title><rect fill="#FFFFFF" height="71.6211" style="stroke:#181818;stroke-width:1;" width="10" x="1279.9937" y="323.9727"/></g><g><title>Database</title><rect fill="#FFFFFF" height="29.3105" style="stroke:#181818;stroke-width:1;" width="10" x="1573.1875" y="206.7305"/></g><g><title>Database</title><rect fill="#FFFFFF" height="29.3105" style="stroke:#181818;stroke-width:1;" width="10" x="1573.1875" y="507.8359"/></g><rect fill="none" height="266.75" style="stroke:#000000;stroke-width:1.5;" width="1599.52" x="23" y="439.9043"/><g><title>User</title><rect fill="#000000" fill-opacity="0.00000" height="642.166" width="8" x="47.1826" y="81.4883"/><line style="stroke:#181818;stroke-width:0.5;stroke-dasharray:5.0,5.0;" x1="51" x2="51" y1="81.4883" y2="723.6543"/></g><g><title>CommunityController</title><rect fill="#000000" fill-opacity="0.00000" height="642.166" width="8" x="392.7148" y="81.4883"/><line style="stroke:#181818;stroke-width:0.5;stroke-dasharray:5.0,5.0;" x1="396.4336" x2="396.4336" y1="81.4883" y2="723.6543"/></g><g><title>CommunityService</title><rect fill="#000000" fill-opacity="0.00000" height="642.166" width="8" x="623.894" y="81.4883"/><line style="stroke:#181818;stroke-width:0.5;stroke-dasharray:5.0,5.0;" x1="627.0273" x2="627.0273" y1="81.4883" y2="723.6543"/></g><g><title>MessageBroker</title><rect fill="#000000" fill-opacity="0.00000" height="642.166" width="8" x="866.6704" y="81.4883"/><line style="stroke:#181818;stroke-width:0.5;stroke-dasharray:5.0,5.0;" x1="870.4282" x2="870.4282" y1="81.4883" y2="723.6543"/></g><g><title>DirectoryMicroservice</title><rect fill="#000000" fill-opacity="0.00000" height="642.166" width="8" x="1125.665" y="81.4883"/><line style="stroke:#181818;stroke-width:0.5;stroke-dasharray:5.0,5.0;" x1="1129.3428" x2="1129.3428" y1="81.4883" y2="723.6543"/></g><g><title>DirectoryListener</title><rect fill="#000000" fill-opacity="0.00000" height="642.166" width="8" x="1280.9937" y="81.4883"/><line style="stroke:#181818;stroke-width:0.5;stroke-dasharray:5.0,5.0;" x1="1284.9873" x2="1284.9873" y1="81.4883" y2="723.6543"/></g><g><title>Database</title><rect fill="#000000" fill-opacity="0.00000" height="642.166" width="8" x="1574.1875" y="81.4883"/><line style="stroke:#181818;stroke-width:0.5;stroke-dasharray:5.0,5.0;" x1="1577.855" x2="1577.855" y1="81.4883" y2="723.6543"/></g><g class="participant participant-head" data-participant="user"><text fill="#000000" font-family="sans-serif" font-size="14" lengthAdjust="spacing" textLength="30.3652" x="33" y="78.5352">User</text><ellipse cx="51.1826" cy="13.5" fill="#E2E2F0" rx="8" ry="8" style="stroke:#181818;stroke-width:0.5;"/><path d="M51.1826,21.5 L51.1826,48.5 M38.1826,29.5 L64.1826,29.5 M51.1826,48.5 L38.1826,63.5 M51.1826,48.5 L64.1826,63.5" fill="none" style="stroke:#181818;stroke-width:0.5;"/></g><g class="participant participant-tail" data-participant="user"><text fill="#000000" font-family="sans-serif" font-size="14" lengthAdjust="spacing" textLength="30.3652" x="33" y="736.1895">User</text><ellipse cx="51.1826" cy="747.6426" fill="#E2E2F0" rx="8" ry="8" style="stroke:#181818;stroke-width:0.5;"/><path d="M51.1826,755.6426 L51.1826,782.6426 M38.1826,763.6426 L64.1826,763.6426 M51.1826,782.6426 L38.1826,797.6426 M51.1826,782.6426 L64.1826,797.6426" fill="none" style="stroke:#181818;stroke-width:0.5;"/></g><g class="participant participant-head" data-participant="controller"><rect fill="#E2E2F0" height="30.4883" rx="2.5" ry="2.5" style="stroke:#181818;stroke-width:0.5;" width="160.5625" x="316.4336" y="50"/><text fill="#000000" font-family="sans-serif" font-size="14" lengthAdjust="spacing" textLength="146.5625" x="323.4336" y="70.5352">CommunityController</text></g><g class="participant participant-tail" data-participant="controller"><rect fill="#E2E2F0" height="30.4883" rx="2.5" ry="2.5" style="stroke:#181818;stroke-width:0.5;" width="160.5625" x="316.4336" y="722.6543"/><text fill="#000000" font-family="sans-serif" font-size="14" lengthAdjust="spacing" textLength="146.5625" x="323.4336" y="743.1895">CommunityController</text></g><g class="participant participant-head" data-participant="service"><rect fill="#E2E2F0" height="30.4883" rx="2.5" ry="2.5" style="stroke:#181818;stroke-width:0.5;" width="139.7334" x="558.0273" y="50"/><text fill="#000000" font-family="sans-serif" font-size="14" lengthAdjust="spacing" textLength="125.7334" x="565.0273" y="70.5352">CommunityService</text></g><g class="participant participant-tail" data-participant="service"><rect fill="#E2E2F0" height="30.4883" rx="2.5" ry="2.5" style="stroke:#181818;stroke-width:0.5;" width="139.7334" x="558.0273" y="722.6543"/><text fill="#000000" font-family="sans-serif" font-size="14" lengthAdjust="spacing" textLength="125.7334" x="565.0273" y="743.1895">CommunityService</text></g><g class="participant participant-head" data-participant="broker"><rect fill="#E2E2F0" height="30.4883" rx="2.5" ry="2.5" style="stroke:#181818;stroke-width:0.5;" width="116.4844" x="812.4282" y="50"/><text fill="#000000" font-family="sans-serif" font-size="14" lengthAdjust="spacing" textLength="102.4844" x="819.4282" y="70.5352">MessageBroker</text></g><g class="participant participant-tail" data-participant="broker"><rect fill="#E2E2F0" height="30.4883" rx="2.5" ry="2.5" style="stroke:#181818;stroke-width:0.5;" width="116.4844" x="812.4282" y="722.6543"/><text fill="#000000" font-family="sans-serif" font-size="14" lengthAdjust="spacing" textLength="102.4844" x="819.4282" y="743.1895">MessageBroker</text></g><g class="participant participant-head" data-participant="directory"><rect fill="#E2E2F0" height="30.4883" rx="2.5" ry="2.5" style="stroke:#181818;stroke-width:0.5;" width="160.6445" x="1049.3428" y="50"/><text fill="#000000" font-family="sans-serif" font-size="14" lengthAdjust="spacing" textLength="146.6445" x="1056.3428" y="70.5352">DirectoryMicroservice</text></g><g class="participant participant-tail" data-participant="directory"><rect fill="#E2E2F0" height="30.4883" rx="2.5" ry="2.5" style="stroke:#181818;stroke-width:0.5;" width="160.6445" x="1049.3428" y="722.6543"/><text fill="#000000" font-family="sans-serif" font-size="14" lengthAdjust="spacing" textLength="146.6445" x="1056.3428" y="743.1895">DirectoryMicroservice</text></g><g class="participant participant-head" data-participant="listener"><rect fill="#E2E2F0" height="30.4883" rx="2.5" ry="2.5" style="stroke:#181818;stroke-width:0.5;" width="130.0127" x="1219.9873" y="50"/><text fill="#000000" font-family="sans-serif" font-size="14" lengthAdjust="spacing" textLength="116.0127" x="1226.9873" y="70.5352">DirectoryListener</text></g><g class="participant participant-tail" data-participant="listener"><rect fill="#E2E2F0" height="30.4883" rx="2.5" ry="2.5" style="stroke:#181818;stroke-width:0.5;" width="130.0127" x="1219.9873" y="722.6543"/><text fill="#000000" font-family="sans-serif" font-size="14" lengthAdjust="spacing" textLength="116.0127" x="1226.9873" y="743.1895">DirectoryListener</text></g><g class="participant participant-head" data-participant="db"><text fill="#000000" font-family="sans-serif" font-size="14" lengthAdjust="spacing" textLength="62.665" x="1543.855" y="78.5352">Database</text><path d="M1560.1875,29 C1560.1875,19 1578.1875,19 1578.1875,19 C1578.1875,19 1596.1875,19 1596.1875,29 L1596.1875,55 C1596.1875,65 1578.1875,65 1578.1875,65 C1578.1875,65 1560.1875,65 1560.1875,55 L1560.1875,29" fill="#E2E2F0" style="stroke:#181818;stroke-width:1.5;"/><path d="M1560.1875,29 C1560.1875,39 1578.1875,39 1578.1875,39 C1578.1875,39 1596.1875,39 1596.1875,29" fill="none" style="stroke:#181818;stroke-width:1.5;"/></g><g class="participant participant-tail" data-participant="db"><text fill="#000000" font-family="sans-serif" font-size="14" lengthAdjust="spacing" textLength="62.665" x="1543.855" y="736.1895">Database</text><path d="M1560.1875,749.1426 C1560.1875,739.1426 1578.1875,739.1426 1578.1875,739.1426 C1578.1875,739.1426 1596.1875,739.1426 1596.1875,749.1426 L1596.1875,775.1426 C1596.1875,785.1426 1578.1875,785.1426 1578.1875,785.1426 C1578.1875,785.1426 1560.1875,785.1426 1560.1875,775.1426 L1560.1875,749.1426" fill="#E2E2F0" style="stroke:#181818;stroke-width:1.5;"/><path d="M1560.1875,749.1426 C1560.1875,759.1426 1578.1875,759.1426 1578.1875,759.1426 C1578.1875,759.1426 1596.1875,759.1426 1596.1875,749.1426" fill="none" style="stroke:#181818;stroke-width:1.5;"/></g><g><title>CommunityController</title><rect fill="#FFFFFF" height="565.5449" style="stroke:#181818;stroke-width:1;" width="10" x="391.7148" y="148.1094"/></g><g><title>CommunityService</title><rect fill="#FFFFFF" height="536.2344" style="stroke:#181818;stroke-width:1;" width="10" x="622.894" y="177.4199"/></g><g><title>MessageBroker</title><rect fill="#FFFFFF" height="213.1738" style="stroke:#181818;stroke-width:1;" width="10" x="865.6704" y="265.3516"/></g><g><title>DirectoryMicroservice</title><rect fill="#FFFFFF" height="130.2422" style="stroke:#181818;stroke-width:1;" width="10" x="1124.665" y="294.6621"/></g><g><title>DirectoryListener</title><rect fill="#FFFFFF" height="71.6211" style="stroke:#181818;stroke-width:1;" width="10" x="1279.9937" y="323.9727"/></g><g><title>Database</title><rect fill="#FFFFFF" height="29.3105" style="stroke:#181818;stroke-width:1;" width="10" x="1573.1875" y="206.7305"/></g><g><title>Database</title><rect fill="#FFFFFF" height="29.3105" style="stroke:#181818;stroke-width:1;" width="10" x="1573.1875" y="507.8359"/></g><path d="M5,96.4883 L5,121.4883 L443,121.4883 L443,106.4883 L433,96.4883 L5,96.4883" fill="#FEFFDD" style="stroke:#181818;stroke-width:0.5;"/><path d="M433,96.4883 L433,106.4883 L443,106.4883 L433,96.4883" fill="#FEFFDD" style="stroke:#181818;stroke-width:0.5;"/><text fill="#000000" font-family="sans-serif" font-size="13" lengthAdjust="spacing" textLength="163.3379" x="138.3291" y="114.0566">User deletes a community</text><g class="message" data-participant-1="user" data-participant-2="controller"><polygon fill="#181818" points="379.7148,144.1094,389.7148,148.1094,379.7148,152.1094,383.7148,148.1094" style="stroke:#181818;stroke-width:1;"/><line style="stroke:#181818;stroke-width:1;" x1="51.1826" x2="385.7148" y1="148.1094" y2="148.1094"/><text fill="#000000" font-family="sans-serif" font-size="13" lengthAdjust="spacing" textLength="261.8599" x="58.1826" y="143.3672">DELETE /api/communities/{communityId}</text></g><g class="message" data-participant-1="controller" data-participant-2="service"><polygon fill="#181818" points="610.894,173.4199,620.894,177.4199,610.894,181.4199,614.894,177.4199" style="stroke:#181818;stroke-width:1;"/><line style="stroke:#181818;stroke-width:1;" x1="401.7148" x2="616.894" y1="177.4199" y2="177.4199"/><text fill="#000000" font-family="sans-serif" font-size="13" lengthAdjust="spacing" textLength="202.1792" x="408.7148" y="172.6777">deleteCommunity(communityId)</text></g><g class="message" data-participant-1="service" data-participant-2="db"><polygon fill="#181818" points="1561.1875,202.7305,1571.1875,206.7305,1561.1875,210.7305,1565.1875,206.7305" style="stroke:#181818;stroke-width:1;"/><line style="stroke:#181818;stroke-width:1;" x1="632.894" x2="1567.1875" y1="206.7305" y2="206.7305"/><text fill="#000000" font-family="sans-serif" font-size="13" lengthAdjust="spacing" textLength="249.4312" x="639.894" y="201.9883">validateCommunityExists(communityId)</text></g><g class="message" data-participant-1="db" data-participant-2="service"><polygon fill="#181818" points="643.894,232.041,633.894,236.041,643.894,240.041,639.894,236.041" style="stroke:#181818;stroke-width:1;"/><line style="stroke:#181818;stroke-width:1;stroke-dasharray:2.0,2.0;" x1="637.894" x2="1577.1875" y1="236.041" y2="236.041"/><text fill="#000000" font-family="sans-serif" font-size="13" lengthAdjust="spacing" textLength="95.0435" x="649.894" y="231.2988">communityInfo</text></g><g class="message" data-participant-1="service" data-participant-2="broker"><polygon fill="#181818" points="853.6704,261.3516,863.6704,265.3516,853.6704,269.3516,857.6704,265.3516" style="stroke:#181818;stroke-width:1;"/><line style="stroke:#181818;stroke-width:1;" x1="632.894" x2="859.6704" y1="265.3516" y2="265.3516"/><text fill="#000000" font-family="sans-serif" font-size="13" lengthAdjust="spacing" textLength="213.7764" x="639.894" y="260.6094">deleteManualGroup(communityId)</text></g><g class="message" data-participant-1="broker" data-participant-2="directory"><polygon fill="#181818" points="1112.665,290.6621,1122.665,294.6621,1112.665,298.6621,1116.665,294.6621" style="stroke:#181818;stroke-width:1;"/><line style="stroke:#181818;stroke-width:1;" x1="875.6704" x2="1118.665" y1="294.6621" y2="294.6621"/><text fill="#000000" font-family="sans-serif" font-size="13" lengthAdjust="spacing" textLength="229.9946" x="882.6704" y="289.9199">requestGroupDeletion(communityId)</text></g><g class="message" data-participant-1="broker" data-participant-2="listener"><polygon fill="#181818" points="1267.9937,319.9727,1277.9937,323.9727,1267.9937,327.9727,1271.9937,323.9727" style="stroke:#181818;stroke-width:1;"/><line style="stroke:#181818;stroke-width:1;" x1="875.6704" x2="1273.9937" y1="323.9727" y2="323.9727"/><text fill="#000000" font-family="sans-serif" font-size="13" lengthAdjust="spacing" textLength="269.1406" x="882.6704" y="319.2305">notifyGroupDeletionRequest(communityId)</text></g><g class="message" data-participant-1="listener" data-participant-2="listener"><line style="stroke:#181818;stroke-width:1;" x1="1289.9937" x2="1331.9937" y1="353.2832" y2="353.2832"/><line style="stroke:#181818;stroke-width:1;" x1="1331.9937" x2="1331.9937" y1="353.2832" y2="366.2832"/><line style="stroke:#181818;stroke-width:1;" x1="1290.9937" x2="1331.9937" y1="366.2832" y2="366.2832"/><polygon fill="#181818" points="1300.9937,362.2832,1290.9937,366.2832,1300.9937,370.2832,1296.9937,366.2832" style="stroke:#181818;stroke-width:1;"/><text fill="#000000" font-family="sans-serif" font-size="13" lengthAdjust="spacing" textLength="259.1938" x="1296.9937" y="348.541">deleteManualGroupIfExists(communityId)</text></g><g class="message" data-participant-1="listener" data-participant-2="broker"><polygon fill="#181818" points="886.6704,391.5938,876.6704,395.5938,886.6704,399.5938,882.6704,395.5938" style="stroke:#181818;stroke-width:1;"/><line style="stroke:#181818;stroke-width:1;stroke-dasharray:2.0,2.0;" x1="880.6704" x2="1283.9937" y1="395.5938" y2="395.5938"/><text fill="#000000" font-family="sans-serif" font-size="13" lengthAdjust="spacing" textLength="173.2085" x="892.6704" y="390.8516">groupDeletionConfirmation</text></g><g class="message" data-participant-1="directory" data-participant-2="broker"><polygon fill="#181818" points="886.6704,420.9043,876.6704,424.9043,886.6704,428.9043,882.6704,424.9043" style="stroke:#181818;stroke-width:1;"/><line style="stroke:#181818;stroke-width:1;stroke-dasharray:2.0,2.0;" x1="880.6704" x2="1128.665" y1="424.9043" y2="424.9043"/><text fill="#000000" font-family="sans-serif" font-size="13" lengthAdjust="spacing" textLength="129.0923" x="892.6704" y="420.1621">groupDeletionResult</text></g><path d="M23,439.9043 L85.1387,439.9043 L85.1387,447.2148 L75.1387,457.2148 L23,457.2148 L23,439.9043" fill="#EEEEEE" style="stroke:#000000;stroke-width:1.5;"/><rect fill="none" height="266.75" style="stroke:#000000;stroke-width:1.5;" width="1599.52" x="23" y="439.9043"/><text fill="#000000" font-family="sans-serif" font-size="13" font-weight="bold" lengthAdjust="spacing" textLength="17.1387" x="38" y="453.4727">alt</text><text fill="#000000" font-family="sans-serif" font-size="11" font-weight="bold" lengthAdjust="spacing" textLength="154.6392" x="100.1387" y="452.5391">[successful group deletion]</text><g class="message" data-participant-1="broker" data-participant-2="service"><polygon fill="#181818" points="643.894,474.5254,633.894,478.5254,643.894,482.5254,639.894,478.5254" style="stroke:#181818;stroke-width:1;"/><line style="stroke:#181818;stroke-width:1;stroke-dasharray:2.0,2.0;" x1="637.894" x2="869.6704" y1="478.5254" y2="478.5254"/><text fill="#000000" font-family="sans-serif" font-size="13" lengthAdjust="spacing" textLength="139.1978" x="649.894" y="473.7832">groupDeletionSuccess</text></g><g class="message" data-participant-1="service" data-participant-2="db"><polygon fill="#181818" points="1561.1875,503.8359,1571.1875,507.8359,1561.1875,511.8359,1565.1875,507.8359" style="stroke:#181818;stroke-width:1;"/><line style="stroke:#181818;stroke-width:1;" x1="632.894" x2="1567.1875" y1="507.8359" y2="507.8359"/><text fill="#000000" font-family="sans-serif" font-size="13" lengthAdjust="spacing" textLength="231.1372" x="639.894" y="503.0938">deleteCommunityData(communityId)</text></g><g class="message" data-participant-1="db" data-participant-2="service"><polygon fill="#181818" points="643.894,533.1465,633.894,537.1465,643.894,541.1465,639.894,537.1465" style="stroke:#181818;stroke-width:1;"/><line style="stroke:#181818;stroke-width:1;stroke-dasharray:2.0,2.0;" x1="637.894" x2="1577.1875" y1="537.1465" y2="537.1465"/><text fill="#000000" font-family="sans-serif" font-size="13" lengthAdjust="spacing" textLength="133.9927" x="649.894" y="532.4043">deletionConfirmation</text></g><g class="message" data-participant-1="service" data-participant-2="controller"><polygon fill="#181818" points="412.7148,562.457,402.7148,566.457,412.7148,570.457,408.7148,566.457" style="stroke:#181818;stroke-width:1;"/><line style="stroke:#181818;stroke-width:1;stroke-dasharray:2.0,2.0;" x1="406.7148" x2="621.894" y1="566.457" y2="566.457"/><text fill="#000000" font-family="sans-serif" font-size="13" lengthAdjust="spacing" textLength="108.7036" x="418.7148" y="561.7148">successResponse</text></g><g class="message" data-participant-1="controller" data-participant-2="user"><polygon fill="#181818" points="62.1826,591.7676,52.1826,595.7676,62.1826,599.7676,58.1826,595.7676" style="stroke:#181818;stroke-width:1;"/><line style="stroke:#181818;stroke-width:1;stroke-dasharray:2.0,2.0;" x1="56.1826" x2="390.7148" y1="595.7676" y2="595.7676"/><text fill="#000000" font-family="sans-serif" font-size="13" lengthAdjust="spacing" textLength="316.5322" x="68.1826" y="591.0254">204 No Content (Community deleted successfully)</text></g><line style="stroke:#000000;stroke-width:1;stroke-dasharray:2.0,2.0;" x1="23" x2="1622.52" y1="604.7676" y2="604.7676"/><text fill="#000000" font-family="sans-serif" font-size="11" font-weight="bold" lengthAdjust="spacing" textLength="127.1553" x="28" y="615.4023">[group deletion failed]</text><g class="message" data-participant-1="broker" data-participant-2="service"><polygon fill="#181818" points="643.894,636.0332,633.894,640.0332,643.894,644.0332,639.894,640.0332" style="stroke:#181818;stroke-width:1;"/><line style="stroke:#181818;stroke-width:1;stroke-dasharray:2.0,2.0;" x1="637.894" x2="869.6704" y1="640.0332" y2="640.0332"/><text fill="#000000" font-family="sans-serif" font-size="13" lengthAdjust="spacing" textLength="132.6089" x="649.894" y="635.291">groupDeletionFailure</text></g><g class="message" data-participant-1="service" data-participant-2="controller"><polygon fill="#181818" points="412.7148,665.3438,402.7148,669.3438,412.7148,673.3438,408.7148,669.3438" style="stroke:#181818;stroke-width:1;"/><line style="stroke:#181818;stroke-width:1;stroke-dasharray:2.0,2.0;" x1="406.7148" x2="621.894" y1="669.3438" y2="669.3438"/><text fill="#000000" font-family="sans-serif" font-size="13" lengthAdjust="spacing" textLength="91.3809" x="418.7148" y="664.6016">errorResponse</text></g><g class="message" data-participant-1="controller" data-participant-2="user"><polygon fill="#181818" points="62.1826,694.6543,52.1826,698.6543,62.1826,702.6543,58.1826,698.6543" style="stroke:#181818;stroke-width:1;"/><line style="stroke:#181818;stroke-width:1;stroke-dasharray:2.0,2.0;" x1="56.1826" x2="390.7148" y1="698.6543" y2="698.6543"/><text fill="#000000" font-family="sans-serif" font-size="13" lengthAdjust="spacing" textLength="155.0859" x="68.1826" y="693.9121">500 Internal Server Error</text></g><!--SRC=[ZLJ1Rjim3BthAuYSMc15Wg6x-B336cy8qEpGRXz0MtGXL94yIGuQ3FltIRPiIswDDWU7jXuVoKTIM3jjOFFRaja0MkYymLeqJjIYHULWSwTFfqu9TxdJoXajPKJMq-iA_f7CMTJKW-rWvyWZMOjFzCtevyXPzMQEsWj38SdBKTH6suIKZoSh3lV2EbAHMiONnj5XXPOyC5e3MSMOqev0dydqCdnAIYmWA0IS93coWFueLibOmCBDrmozB-_BNoLiiHNR4Ih8RlzEVWV-Zs7jn1bzp4HBDjk1DDPRnD2Jk5S9qVLCDEhCeX4eU5N06QNmXS_-vOlNmwwmU2ru1JTf-1ce6iqufTWqsD31CTqZgWxb3wExTYLKx3WR_ljqn_OLOEXFHzRr_lj0ABHQItcQXOHgx7a1lhEYkMH43mFv2jyqBcoqSi9NzHsQjoITdHDjdj8q_5OrmfmmsAckSm9JQUia3sGxwRAsp7gWT62xklRRrdHoS1po3o71_qR5qePd_8-3UmzEWiJcXQ_zOp5qYv4DwvQh4tpIGUhf5uF7tz9faKTqpNDOR6HKm2lLQcMfnwQhvk5XaGlulBk5dnh2RKV-EhcQye_ry4HCURbcZAI_J79LeK4XYNzCtEyUsndwiBYBmiWORTulwyjk1mTVab4e8LpD_hGChemKP-deZ7T8yYcvd_u3]--></g></svg>