<svg xmlns="http://www.w3.org/2000/svg" xmlns:xlink="http://www.w3.org/1999/xlink" contentStyleType="text/css" data-diagram-type="SEQUENCE" height="1084px" preserveAspectRatio="none" style="width:1606px;height:1084px;background:#FFFFFF;" version="1.1" viewBox="0 0 1606 1084" width="1606px" zoomAndPan="magnify"><defs/><g><g><title>CommunityController</title><rect fill="#FFFFFF" height="845.6504" style="stroke:#181818;stroke-width:1;" width="10" x="392.2681" y="148.1094"/></g><g><title>CommunityService</title><rect fill="#FFFFFF" height="816.3398" style="stroke:#181818;stroke-width:1;" width="10" x="642.8076" y="177.4199"/></g><g><title>MembershipService</title><rect fill="#FFFFFF" height="146.5527" style="stroke:#181818;stroke-width:1;" width="10" x="1037.8896" y="382.5938"/></g><g><title>ResourceService</title><rect fill="#FFFFFF" height="146.5527" style="stroke:#181818;stroke-width:1;" width="10" x="1182.0859" y="558.457"/></g><g><title>Database</title><rect fill="#FFFFFF" height="29.3105" style="stroke:#181818;stroke-width:1;" width="10" x="1549.9429" y="206.7305"/></g><g><title>Database</title><rect fill="#FFFFFF" height="29.3105" style="stroke:#181818;stroke-width:1;" width="10" x="1549.9429" y="265.3516"/></g><g><title>Database</title><rect fill="#FFFFFF" height="29.3105" style="stroke:#181818;stroke-width:1;" width="10" x="1549.9429" y="323.9727"/></g><g><title>Database</title><rect fill="#FFFFFF" height="29.3105" style="stroke:#181818;stroke-width:1;" width="10" x="1549.9429" y="411.9043"/></g><g><title>Database</title><rect fill="#FFFFFF" height="29.3105" style="stroke:#181818;stroke-width:1;" width="10" x="1549.9429" y="470.5254"/></g><g><title>Database</title><rect fill="#FFFFFF" height="29.3105" style="stroke:#181818;stroke-width:1;" width="10" x="1549.9429" y="587.7676"/></g><g><title>Database</title><rect fill="#FFFFFF" height="29.3105" style="stroke:#181818;stroke-width:1;" width="10" x="1549.9429" y="646.3887"/></g><g><title>Database</title><rect fill="#FFFFFF" height="29.3105" style="stroke:#181818;stroke-width:1;" width="10" x="1549.9429" y="758.6309"/></g><g><title>Database</title><rect fill="#FFFFFF" height="29.3105" style="stroke:#181818;stroke-width:1;" width="10" x="1549.9429" y="890.8281"/></g><rect fill="none" height="266.75" style="stroke:#000000;stroke-width:1.5;" width="1579.2754" x="20" y="720.0098"/><g><title>Admin</title><rect fill="#000000" fill-opacity="0.00000" height="922.2715" width="8" x="51.1382" y="81.4883"/><line style="stroke:#181818;stroke-width:0.5;stroke-dasharray:5.0,5.0;" x1="55" x2="55" y1="81.4883" y2="1003.7598"/></g><g><title>CommunityController</title><rect fill="#000000" fill-opacity="0.00000" height="922.2715" width="8" x="393.2681" y="81.4883"/><line style="stroke:#181818;stroke-width:0.5;stroke-dasharray:5.0,5.0;" x1="396.9868" x2="396.9868" y1="81.4883" y2="1003.7598"/></g><g><title>CommunityService</title><rect fill="#000000" fill-opacity="0.00000" height="922.2715" width="8" x="643.8076" y="81.4883"/><line style="stroke:#181818;stroke-width:0.5;stroke-dasharray:5.0,5.0;" x1="646.9409" x2="646.9409" y1="81.4883" y2="1003.7598"/></g><g><title>MembershipService</title><rect fill="#000000" fill-opacity="0.00000" height="922.2715" width="8" x="1038.8896" y="81.4883"/><line style="stroke:#181818;stroke-width:0.5;stroke-dasharray:5.0,5.0;" x1="1042.2476" x2="1042.2476" y1="81.4883" y2="1003.7598"/></g><g><title>ResourceService</title><rect fill="#000000" fill-opacity="0.00000" height="922.2715" width="8" x="1183.0859" y="81.4883"/><line style="stroke:#181818;stroke-width:0.5;stroke-dasharray:5.0,5.0;" x1="1186.5317" x2="1186.5317" y1="81.4883" y2="1003.7598"/></g><g><title>Database</title><rect fill="#000000" fill-opacity="0.00000" height="922.2715" width="8" x="1550.9429" y="81.4883"/><line style="stroke:#181818;stroke-width:0.5;stroke-dasharray:5.0,5.0;" x1="1554.6104" x2="1554.6104" y1="81.4883" y2="1003.7598"/></g><g class="participant participant-head" data-participant="admin"><text fill="#000000" font-family="sans-serif" font-size="14" lengthAdjust="spacing" textLength="44.2764" x="30" y="78.5352">Admin</text><ellipse cx="55.1382" cy="13.5" fill="#E2E2F0" rx="8" ry="8" style="stroke:#181818;stroke-width:0.5;"/><path d="M55.1382,21.5 L55.1382,48.5 M42.1382,29.5 L68.1382,29.5 M55.1382,48.5 L42.1382,63.5 M55.1382,48.5 L68.1382,63.5" fill="none" style="stroke:#181818;stroke-width:0.5;"/></g><g class="participant participant-tail" data-participant="admin"><text fill="#000000" font-family="sans-serif" font-size="14" lengthAdjust="spacing" textLength="44.2764" x="30" y="1016.2949">Admin</text><ellipse cx="55.1382" cy="1027.748" fill="#E2E2F0" rx="8" ry="8" style="stroke:#181818;stroke-width:0.5;"/><path d="M55.1382,1035.748 L55.1382,1062.748 M42.1382,1043.748 L68.1382,1043.748 M55.1382,1062.748 L42.1382,1077.748 M55.1382,1062.748 L68.1382,1077.748" fill="none" style="stroke:#181818;stroke-width:0.5;"/></g><g class="participant participant-head" data-participant="controller"><rect fill="#E2E2F0" height="30.4883" rx="2.5" ry="2.5" style="stroke:#181818;stroke-width:0.5;" width="160.5625" x="316.9868" y="50"/><text fill="#000000" font-family="sans-serif" font-size="14" lengthAdjust="spacing" textLength="146.5625" x="323.9868" y="70.5352">CommunityController</text></g><g class="participant participant-tail" data-participant="controller"><rect fill="#E2E2F0" height="30.4883" rx="2.5" ry="2.5" style="stroke:#181818;stroke-width:0.5;" width="160.5625" x="316.9868" y="1002.7598"/><text fill="#000000" font-family="sans-serif" font-size="14" lengthAdjust="spacing" textLength="146.5625" x="323.9868" y="1023.2949">CommunityController</text></g><g class="participant participant-head" data-participant="service"><rect fill="#E2E2F0" height="30.4883" rx="2.5" ry="2.5" style="stroke:#181818;stroke-width:0.5;" width="139.7334" x="577.9409" y="50"/><text fill="#000000" font-family="sans-serif" font-size="14" lengthAdjust="spacing" textLength="125.7334" x="584.9409" y="70.5352">CommunityService</text></g><g class="participant participant-tail" data-participant="service"><rect fill="#E2E2F0" height="30.4883" rx="2.5" ry="2.5" style="stroke:#181818;stroke-width:0.5;" width="139.7334" x="577.9409" y="1002.7598"/><text fill="#000000" font-family="sans-serif" font-size="14" lengthAdjust="spacing" textLength="125.7334" x="584.9409" y="1023.2949">CommunityService</text></g><g class="participant participant-head" data-participant="membershipService"><rect fill="#E2E2F0" height="30.4883" rx="2.5" ry="2.5" style="stroke:#181818;stroke-width:0.5;" width="145.2842" x="970.2476" y="50"/><text fill="#000000" font-family="sans-serif" font-size="14" lengthAdjust="spacing" textLength="131.2842" x="977.2476" y="70.5352">MembershipService</text></g><g class="participant participant-tail" data-participant="membershipService"><rect fill="#E2E2F0" height="30.4883" rx="2.5" ry="2.5" style="stroke:#181818;stroke-width:0.5;" width="145.2842" x="970.2476" y="1002.7598"/><text fill="#000000" font-family="sans-serif" font-size="14" lengthAdjust="spacing" textLength="131.2842" x="977.2476" y="1023.2949">MembershipService</text></g><g class="participant participant-head" data-participant="resourceService"><rect fill="#E2E2F0" height="30.4883" rx="2.5" ry="2.5" style="stroke:#181818;stroke-width:0.5;" width="123.1084" x="1125.5317" y="50"/><text fill="#000000" font-family="sans-serif" font-size="14" lengthAdjust="spacing" textLength="109.1084" x="1132.5317" y="70.5352">ResourceService</text></g><g class="participant participant-tail" data-participant="resourceService"><rect fill="#E2E2F0" height="30.4883" rx="2.5" ry="2.5" style="stroke:#181818;stroke-width:0.5;" width="123.1084" x="1125.5317" y="1002.7598"/><text fill="#000000" font-family="sans-serif" font-size="14" lengthAdjust="spacing" textLength="109.1084" x="1132.5317" y="1023.2949">ResourceService</text></g><g class="participant participant-head" data-participant="db"><text fill="#000000" font-family="sans-serif" font-size="14" lengthAdjust="spacing" textLength="62.665" x="1520.6104" y="78.5352">Database</text><path d="M1536.9429,29 C1536.9429,19 1554.9429,19 1554.9429,19 C1554.9429,19 1572.9429,19 1572.9429,29 L1572.9429,55 C1572.9429,65 1554.9429,65 1554.9429,65 C1554.9429,65 1536.9429,65 1536.9429,55 L1536.9429,29" fill="#E2E2F0" style="stroke:#181818;stroke-width:1.5;"/><path d="M1536.9429,29 C1536.9429,39 1554.9429,39 1554.9429,39 C1554.9429,39 1572.9429,39 1572.9429,29" fill="none" style="stroke:#181818;stroke-width:1.5;"/></g><g class="participant participant-tail" data-participant="db"><text fill="#000000" font-family="sans-serif" font-size="14" lengthAdjust="spacing" textLength="62.665" x="1520.6104" y="1016.2949">Database</text><path d="M1536.9429,1029.248 C1536.9429,1019.248 1554.9429,1019.248 1554.9429,1019.248 C1554.9429,1019.248 1572.9429,1019.248 1572.9429,1029.248 L1572.9429,1055.248 C1572.9429,1065.248 1554.9429,1065.248 1554.9429,1065.248 C1554.9429,1065.248 1536.9429,1065.248 1536.9429,1055.248 L1536.9429,1029.248" fill="#E2E2F0" style="stroke:#181818;stroke-width:1.5;"/><path d="M1536.9429,1029.248 C1536.9429,1039.248 1554.9429,1039.248 1554.9429,1039.248 C1554.9429,1039.248 1572.9429,1039.248 1572.9429,1029.248" fill="none" style="stroke:#181818;stroke-width:1.5;"/></g><g><title>CommunityController</title><rect fill="#FFFFFF" height="845.6504" style="stroke:#181818;stroke-width:1;" width="10" x="392.2681" y="148.1094"/></g><g><title>CommunityService</title><rect fill="#FFFFFF" height="816.3398" style="stroke:#181818;stroke-width:1;" width="10" x="642.8076" y="177.4199"/></g><g><title>MembershipService</title><rect fill="#FFFFFF" height="146.5527" style="stroke:#181818;stroke-width:1;" width="10" x="1037.8896" y="382.5938"/></g><g><title>ResourceService</title><rect fill="#FFFFFF" height="146.5527" style="stroke:#181818;stroke-width:1;" width="10" x="1182.0859" y="558.457"/></g><g><title>Database</title><rect fill="#FFFFFF" height="29.3105" style="stroke:#181818;stroke-width:1;" width="10" x="1549.9429" y="206.7305"/></g><g><title>Database</title><rect fill="#FFFFFF" height="29.3105" style="stroke:#181818;stroke-width:1;" width="10" x="1549.9429" y="265.3516"/></g><g><title>Database</title><rect fill="#FFFFFF" height="29.3105" style="stroke:#181818;stroke-width:1;" width="10" x="1549.9429" y="323.9727"/></g><g><title>Database</title><rect fill="#FFFFFF" height="29.3105" style="stroke:#181818;stroke-width:1;" width="10" x="1549.9429" y="411.9043"/></g><g><title>Database</title><rect fill="#FFFFFF" height="29.3105" style="stroke:#181818;stroke-width:1;" width="10" x="1549.9429" y="470.5254"/></g><g><title>Database</title><rect fill="#FFFFFF" height="29.3105" style="stroke:#181818;stroke-width:1;" width="10" x="1549.9429" y="587.7676"/></g><g><title>Database</title><rect fill="#FFFFFF" height="29.3105" style="stroke:#181818;stroke-width:1;" width="10" x="1549.9429" y="646.3887"/></g><g><title>Database</title><rect fill="#FFFFFF" height="29.3105" style="stroke:#181818;stroke-width:1;" width="10" x="1549.9429" y="758.6309"/></g><g><title>Database</title><rect fill="#FFFFFF" height="29.3105" style="stroke:#181818;stroke-width:1;" width="10" x="1549.9429" y="890.8281"/></g><path d="M5,96.4883 L5,121.4883 L447,121.4883 L447,106.4883 L437,96.4883 L5,96.4883" fill="#FEFFDD" style="stroke:#181818;stroke-width:0.5;"/><path d="M437,96.4883 L437,106.4883 L447,106.4883 L437,96.4883" fill="#FEFFDD" style="stroke:#181818;stroke-width:0.5;"/><text fill="#000000" font-family="sans-serif" font-size="13" lengthAdjust="spacing" textLength="195.6157" x="123.9668" y="114.0566">Admin duplicates a community</text><g class="message" data-participant-1="admin" data-participant-2="controller"><polygon fill="#181818" points="380.2681,144.1094,390.2681,148.1094,380.2681,152.1094,384.2681,148.1094" style="stroke:#181818;stroke-width:1;"/><line style="stroke:#181818;stroke-width:1;" x1="55.1382" x2="386.2681" y1="148.1094" y2="148.1094"/><text fill="#000000" font-family="sans-serif" font-size="13" lengthAdjust="spacing" textLength="313.0474" x="62.1382" y="143.3672">POST /api/communities/{communityId}/duplicate</text></g><g class="message" data-participant-1="controller" data-participant-2="service"><polygon fill="#181818" points="630.8076,173.4199,640.8076,177.4199,630.8076,181.4199,634.8076,177.4199" style="stroke:#181818;stroke-width:1;"/><line style="stroke:#181818;stroke-width:1;" x1="402.2681" x2="636.8076" y1="177.4199" y2="177.4199"/><text fill="#000000" font-family="sans-serif" font-size="13" lengthAdjust="spacing" textLength="221.5396" x="409.2681" y="172.6777">duplicateCommunity(communityId)</text></g><g class="message" data-participant-1="service" data-participant-2="db"><polygon fill="#181818" points="1537.9429,202.7305,1547.9429,206.7305,1537.9429,210.7305,1541.9429,206.7305" style="stroke:#181818;stroke-width:1;"/><line style="stroke:#181818;stroke-width:1;" x1="652.8076" x2="1543.9429" y1="206.7305" y2="206.7305"/><text fill="#000000" font-family="sans-serif" font-size="13" lengthAdjust="spacing" textLength="227.0239" x="659.8076" y="201.9883">getCommunityDetails(communityId)</text></g><g class="message" data-participant-1="db" data-participant-2="service"><polygon fill="#181818" points="663.8076,232.041,653.8076,236.041,663.8076,240.041,659.8076,236.041" style="stroke:#181818;stroke-width:1;"/><line style="stroke:#181818;stroke-width:1;stroke-dasharray:2.0,2.0;" x1="657.8076" x2="1553.9429" y1="236.041" y2="236.041"/><text fill="#000000" font-family="sans-serif" font-size="13" lengthAdjust="spacing" textLength="113.6294" x="669.8076" y="231.2988">communityDetails</text></g><g class="message" data-participant-1="service" data-participant-2="db"><polygon fill="#181818" points="1537.9429,261.3516,1547.9429,265.3516,1537.9429,269.3516,1541.9429,265.3516" style="stroke:#181818;stroke-width:1;"/><line style="stroke:#181818;stroke-width:1;" x1="652.8076" x2="1543.9429" y1="265.3516" y2="265.3516"/><text fill="#000000" font-family="sans-serif" font-size="13" lengthAdjust="spacing" textLength="117.7363" x="659.8076" y="260.6094">beginTransaction()</text></g><g class="message" data-participant-1="db" data-participant-2="service"><polygon fill="#181818" points="663.8076,290.6621,653.8076,294.6621,663.8076,298.6621,659.8076,294.6621" style="stroke:#181818;stroke-width:1;"/><line style="stroke:#181818;stroke-width:1;stroke-dasharray:2.0,2.0;" x1="657.8076" x2="1553.9429" y1="294.6621" y2="294.6621"/><text fill="#000000" font-family="sans-serif" font-size="13" lengthAdjust="spacing" textLength="82.4941" x="669.8076" y="289.9199">transactionId</text></g><g class="message" data-participant-1="service" data-participant-2="db"><polygon fill="#181818" points="1537.9429,319.9727,1547.9429,323.9727,1537.9429,327.9727,1541.9429,323.9727" style="stroke:#181818;stroke-width:1;"/><line style="stroke:#181818;stroke-width:1;" x1="652.8076" x2="1543.9429" y1="323.9727" y2="323.9727"/><text fill="#000000" font-family="sans-serif" font-size="13" lengthAdjust="spacing" textLength="292.8364" x="659.8076" y="319.2305">createCommunityDuplicate(communityDetails)</text></g><g class="message" data-participant-1="db" data-participant-2="service"><polygon fill="#181818" points="663.8076,349.2832,653.8076,353.2832,663.8076,357.2832,659.8076,353.2832" style="stroke:#181818;stroke-width:1;"/><line style="stroke:#181818;stroke-width:1;stroke-dasharray:2.0,2.0;" x1="657.8076" x2="1553.9429" y1="353.2832" y2="353.2832"/><text fill="#000000" font-family="sans-serif" font-size="13" lengthAdjust="spacing" textLength="110.0557" x="669.8076" y="348.541">newCommunityId</text></g><g class="message" data-participant-1="service" data-participant-2="membershipService"><polygon fill="#181818" points="1025.8896,378.5938,1035.8896,382.5938,1025.8896,386.5938,1029.8896,382.5938" style="stroke:#181818;stroke-width:1;"/><line style="stroke:#181818;stroke-width:1;" x1="652.8076" x2="1031.8896" y1="382.5938" y2="382.5938"/><text fill="#000000" font-family="sans-serif" font-size="13" lengthAdjust="spacing" textLength="366.082" x="659.8076" y="377.8516">duplicateAdminMembers(communityId, newCommunityId)</text></g><g class="message" data-participant-1="membershipService" data-participant-2="db"><polygon fill="#181818" points="1537.9429,407.9043,1547.9429,411.9043,1537.9429,415.9043,1541.9429,411.9043" style="stroke:#181818;stroke-width:1;"/><line style="stroke:#181818;stroke-width:1;" x1="1047.8896" x2="1543.9429" y1="411.9043" y2="411.9043"/><text fill="#000000" font-family="sans-serif" font-size="13" lengthAdjust="spacing" textLength="210.1201" x="1054.8896" y="407.1621">getAdminMembers(communityId)</text></g><g class="message" data-participant-1="db" data-participant-2="membershipService"><polygon fill="#181818" points="1058.8896,437.2148,1048.8896,441.2148,1058.8896,445.2148,1054.8896,441.2148" style="stroke:#181818;stroke-width:1;"/><line style="stroke:#181818;stroke-width:1;stroke-dasharray:2.0,2.0;" x1="1052.8896" x2="1553.9429" y1="441.2148" y2="441.2148"/><text fill="#000000" font-family="sans-serif" font-size="13" lengthAdjust="spacing" textLength="119.4502" x="1064.8896" y="436.4727">adminMembersList</text></g><g class="message" data-participant-1="membershipService" data-participant-2="db"><polygon fill="#181818" points="1537.9429,466.5254,1547.9429,470.5254,1537.9429,474.5254,1541.9429,470.5254" style="stroke:#181818;stroke-width:1;"/><line style="stroke:#181818;stroke-width:1;" x1="1047.8896" x2="1543.9429" y1="470.5254" y2="470.5254"/><text fill="#000000" font-family="sans-serif" font-size="13" lengthAdjust="spacing" textLength="369.2749" x="1054.8896" y="465.7832">createMemberships(adminMembersList, newCommunityId)</text></g><g class="message" data-participant-1="db" data-participant-2="membershipService"><polygon fill="#181818" points="1058.8896,495.8359,1048.8896,499.8359,1058.8896,503.8359,1054.8896,499.8359" style="stroke:#181818;stroke-width:1;"/><line style="stroke:#181818;stroke-width:1;stroke-dasharray:2.0,2.0;" x1="1052.8896" x2="1553.9429" y1="499.8359" y2="499.8359"/><text fill="#000000" font-family="sans-serif" font-size="13" lengthAdjust="spacing" textLength="128.4639" x="1064.8896" y="495.0938">newMembershipsIds</text></g><g class="message" data-participant-1="membershipService" data-participant-2="service"><polygon fill="#181818" points="663.8076,525.1465,653.8076,529.1465,663.8076,533.1465,659.8076,529.1465" style="stroke:#181818;stroke-width:1;"/><line style="stroke:#181818;stroke-width:1;stroke-dasharray:2.0,2.0;" x1="657.8076" x2="1041.8896" y1="529.1465" y2="529.1465"/><text fill="#000000" font-family="sans-serif" font-size="13" lengthAdjust="spacing" textLength="228.0713" x="669.8076" y="524.4043">adminMembershipDuplicationResult</text></g><g class="message" data-participant-1="service" data-participant-2="resourceService"><polygon fill="#181818" points="1170.0859,554.457,1180.0859,558.457,1170.0859,562.457,1174.0859,558.457" style="stroke:#181818;stroke-width:1;"/><line style="stroke:#181818;stroke-width:1;" x1="652.8076" x2="1176.0859" y1="558.457" y2="558.457"/><text fill="#000000" font-family="sans-serif" font-size="13" lengthAdjust="spacing" textLength="357.3667" x="659.8076" y="553.7148">duplicateResourceLinks(communityId, newCommunityId)</text></g><g class="message" data-participant-1="resourceService" data-participant-2="db"><polygon fill="#181818" points="1537.9429,583.7676,1547.9429,587.7676,1537.9429,591.7676,1541.9429,587.7676" style="stroke:#181818;stroke-width:1;"/><line style="stroke:#181818;stroke-width:1;" x1="1192.0859" x2="1543.9429" y1="587.7676" y2="587.7676"/><text fill="#000000" font-family="sans-serif" font-size="13" lengthAdjust="spacing" textLength="247.8506" x="1199.0859" y="583.0254">getCommunityResources(communityId)</text></g><g class="message" data-participant-1="db" data-participant-2="resourceService"><polygon fill="#181818" points="1203.0859,613.0781,1193.0859,617.0781,1203.0859,621.0781,1199.0859,617.0781" style="stroke:#181818;stroke-width:1;"/><line style="stroke:#181818;stroke-width:1;stroke-dasharray:2.0,2.0;" x1="1197.0859" x2="1553.9429" y1="617.0781" y2="617.0781"/><text fill="#000000" font-family="sans-serif" font-size="13" lengthAdjust="spacing" textLength="83.2686" x="1209.0859" y="612.3359">resourcesList</text></g><g class="message" data-participant-1="resourceService" data-participant-2="db"><polygon fill="#181818" points="1537.9429,642.3887,1547.9429,646.3887,1537.9429,650.3887,1541.9429,646.3887" style="stroke:#181818;stroke-width:1;"/><line style="stroke:#181818;stroke-width:1;" x1="1192.0859" x2="1543.9429" y1="646.3887" y2="646.3887"/><text fill="#000000" font-family="sans-serif" font-size="13" lengthAdjust="spacing" textLength="338.8569" x="1199.0859" y="641.6465">createResourceLinks(resourcesList, newCommunityId)</text></g><g class="message" data-participant-1="db" data-participant-2="resourceService"><polygon fill="#181818" points="1203.0859,671.6992,1193.0859,675.6992,1203.0859,679.6992,1199.0859,675.6992" style="stroke:#181818;stroke-width:1;"/><line style="stroke:#181818;stroke-width:1;stroke-dasharray:2.0,2.0;" x1="1197.0859" x2="1553.9429" y1="675.6992" y2="675.6992"/><text fill="#000000" font-family="sans-serif" font-size="13" lengthAdjust="spacing" textLength="134.2275" x="1209.0859" y="670.957">newResourceLinksIds</text></g><g class="message" data-participant-1="resourceService" data-participant-2="service"><polygon fill="#181818" points="663.8076,701.0098,653.8076,705.0098,663.8076,709.0098,659.8076,705.0098" style="stroke:#181818;stroke-width:1;"/><line style="stroke:#181818;stroke-width:1;stroke-dasharray:2.0,2.0;" x1="657.8076" x2="1186.0859" y1="705.0098" y2="705.0098"/><text fill="#000000" font-family="sans-serif" font-size="13" lengthAdjust="spacing" textLength="198.2373" x="669.8076" y="700.2676">resourceLinksDuplicationResult</text></g><path d="M20,720.0098 L82.1387,720.0098 L82.1387,727.3203 L72.1387,737.3203 L20,737.3203 L20,720.0098" fill="#EEEEEE" style="stroke:#000000;stroke-width:1.5;"/><rect fill="none" height="266.75" style="stroke:#000000;stroke-width:1.5;" width="1579.2754" x="20" y="720.0098"/><text fill="#000000" font-family="sans-serif" font-size="13" font-weight="bold" lengthAdjust="spacing" textLength="17.1387" x="35" y="733.5781">alt</text><text fill="#000000" font-family="sans-serif" font-size="11" font-weight="bold" lengthAdjust="spacing" textLength="134.7393" x="97.1387" y="732.6445">[successful duplication]</text><g class="message" data-participant-1="service" data-participant-2="db"><polygon fill="#181818" points="1537.9429,754.6309,1547.9429,758.6309,1537.9429,762.6309,1541.9429,758.6309" style="stroke:#181818;stroke-width:1;"/><line style="stroke:#181818;stroke-width:1;" x1="652.8076" x2="1543.9429" y1="758.6309" y2="758.6309"/><text fill="#000000" font-family="sans-serif" font-size="13" lengthAdjust="spacing" textLength="212.4116" x="659.8076" y="753.8887">commitTransaction(transactionId)</text></g><g class="message" data-participant-1="db" data-participant-2="service"><polygon fill="#181818" points="663.8076,783.9414,653.8076,787.9414,663.8076,791.9414,659.8076,787.9414" style="stroke:#181818;stroke-width:1;"/><line style="stroke:#181818;stroke-width:1;stroke-dasharray:2.0,2.0;" x1="657.8076" x2="1553.9429" y1="787.9414" y2="787.9414"/><text fill="#000000" font-family="sans-serif" font-size="13" lengthAdjust="spacing" textLength="130.4316" x="669.8076" y="783.1992">commitConfirmation</text></g><g class="message" data-participant-1="service" data-participant-2="controller"><polygon fill="#181818" points="413.2681,813.252,403.2681,817.252,413.2681,821.252,409.2681,817.252" style="stroke:#181818;stroke-width:1;"/><line style="stroke:#181818;stroke-width:1;stroke-dasharray:2.0,2.0;" x1="407.2681" x2="641.8076" y1="817.252" y2="817.252"/><text fill="#000000" font-family="sans-serif" font-size="13" lengthAdjust="spacing" textLength="199.0688" x="419.2681" y="812.5098">duplicatedCommunityResponse</text></g><g class="message" data-participant-1="controller" data-participant-2="admin"><polygon fill="#181818" points="66.1382,842.5625,56.1382,846.5625,66.1382,850.5625,62.1382,846.5625" style="stroke:#181818;stroke-width:1;"/><line style="stroke:#181818;stroke-width:1;stroke-dasharray:2.0,2.0;" x1="60.1382" x2="391.2681" y1="846.5625" y2="846.5625"/><text fill="#000000" font-family="sans-serif" font-size="13" lengthAdjust="spacing" textLength="313.1299" x="72.1382" y="841.8203">201 Created (Community duplicated successfully)</text></g><line style="stroke:#000000;stroke-width:1;stroke-dasharray:2.0,2.0;" x1="20" x2="1599.2754" y1="855.5625" y2="855.5625"/><text fill="#000000" font-family="sans-serif" font-size="11" font-weight="bold" lengthAdjust="spacing" textLength="107.2554" x="25" y="866.1973">[duplication failed]</text><g class="message" data-participant-1="service" data-participant-2="db"><polygon fill="#181818" points="1537.9429,886.8281,1547.9429,890.8281,1537.9429,894.8281,1541.9429,890.8281" style="stroke:#181818;stroke-width:1;"/><line style="stroke:#181818;stroke-width:1;" x1="652.8076" x2="1543.9429" y1="890.8281" y2="890.8281"/><text fill="#000000" font-family="sans-serif" font-size="13" lengthAdjust="spacing" textLength="215.3125" x="659.8076" y="886.0859">rollbackTransaction(transactionId)</text></g><g class="message" data-participant-1="db" data-participant-2="service"><polygon fill="#181818" points="663.8076,916.1387,653.8076,920.1387,663.8076,924.1387,659.8076,920.1387" style="stroke:#181818;stroke-width:1;"/><line style="stroke:#181818;stroke-width:1;stroke-dasharray:2.0,2.0;" x1="657.8076" x2="1553.9429" y1="920.1387" y2="920.1387"/><text fill="#000000" font-family="sans-serif" font-size="13" lengthAdjust="spacing" textLength="133.3325" x="669.8076" y="915.3965">rollbackConfirmation</text></g><g class="message" data-participant-1="service" data-participant-2="controller"><polygon fill="#181818" points="413.2681,945.4492,403.2681,949.4492,413.2681,953.4492,409.2681,949.4492" style="stroke:#181818;stroke-width:1;"/><line style="stroke:#181818;stroke-width:1;stroke-dasharray:2.0,2.0;" x1="407.2681" x2="641.8076" y1="949.4492" y2="949.4492"/><text fill="#000000" font-family="sans-serif" font-size="13" lengthAdjust="spacing" textLength="91.3809" x="419.2681" y="944.707">errorResponse</text></g><g class="message" data-participant-1="controller" data-participant-2="admin"><polygon fill="#181818" points="66.1382,974.7598,56.1382,978.7598,66.1382,982.7598,62.1382,978.7598" style="stroke:#181818;stroke-width:1;"/><line style="stroke:#181818;stroke-width:1;stroke-dasharray:2.0,2.0;" x1="60.1382" x2="391.2681" y1="978.7598" y2="978.7598"/><text fill="#000000" font-family="sans-serif" font-size="13" lengthAdjust="spacing" textLength="155.0859" x="72.1382" y="974.0176">500 Internal Server Error</text></g><!--SRC=[fLLDQnin4BthLmYVrf1Wjz2B3uLYzs18QMdo1xJIE17HIekaTGcb_xrQsRixqdx449zaUTwRcVV68yQziNJrJLHIhoXpbBKdKZFh9PSrqvwkzgQg6YtzszveRurIO6Cexx_En3-2FKiECTXTpcda3wXAiEv5rZYqoczJq6zmfh4SCCIcTqGmpqhcWAuErrCC4oKXsdYWvWpsqkeTQcD7emvKDBMId7a8SeIVhzqG4W7q_ci2-VNpyObkM2qtNQG4j_dRmuxYtwOd98nxUGu7B1uPpYtvLQdTK4OlQ85OrmDNfosv7beMKUxeC_WUUW3Ff78p344OKT9xd9rdI280X-UvIdYM-iaoxTeeeujbTZz47iKxrDm25k7GoLBa9IwdrF1dFpI_a7CqVyYAE23NiSLQtcNqg9JnE9FH5N9iBiDaSnEbCeH_aCxdZSxcliWy_2LTaLCjDBbOKa0XsgDmDzI4dSDrX9Xk0CBiX5tGgAJ52RMHjTcUGCPsM-L1wjTRdSst3iakflw7NPxtlHtLsbrCsZgJ-c9gsbp2SvEder829k6Sy7HK47RKOl2YdoEDcVBKDJoKxqwDwWqCO4B39zyTeJFfyLvADiywOd3TxVUfLIY3XVeaRJMaIXjkRz8AieUY7pM1Xw4ssa74uLSWGEFGx-ZdxIUwZoOAMlH0H8R4K6zhGa25Pm-fGazXDOAO4gVDLZB- -a5vEfgF2WJM6dk395-sMthK7gncYhPp4Nx-tc89Q47my7GF8xf2x-v_]--></g></svg>