<svg xmlns="http://www.w3.org/2000/svg" xmlns:xlink="http://www.w3.org/1999/xlink" contentStyleType="text/css" data-diagram-type="SEQUENCE" height="804px" preserveAspectRatio="none" style="width:1783px;height:804px;background:#FFFFFF;" version="1.1" viewBox="0 0 1783 804" width="1783px" zoomAndPan="magnify"><defs/><g><g><title>CommunityController</title><rect fill="#FFFFFF" height="565.5449" style="stroke:#181818;stroke-width:1;" width="10" x="387.9697" y="148.1094"/></g><g><title>CommunityService</title><rect fill="#FFFFFF" height="536.2344" style="stroke:#181818;stroke-width:1;" width="10" x="660.1802" y="177.4199"/></g><g><title>MembershipService</title><rect fill="#FFFFFF" height="87.9316" style="stroke:#181818;stroke-width:1;" width="10" x="952.0493" y="449.2148"/></g><g><title>MessageBroker</title><rect fill="#FFFFFF" height="154.5527" style="stroke:#181818;stroke-width:1;" width="10" x="1092.9336" y="265.3516"/></g><g><title>DirectoryMicroservice</title><rect fill="#FFFFFF" height="71.6211" style="stroke:#181818;stroke-width:1;" width="10" x="1408.6128" y="294.6621"/></g><g><title>Database</title><rect fill="#FFFFFF" height="29.3105" style="stroke:#181818;stroke-width:1;" width="10" x="1727.083" y="206.7305"/></g><g><title>Database</title><rect fill="#FFFFFF" height="29.3105" style="stroke:#181818;stroke-width:1;" width="10" x="1727.083" y="478.5254"/></g><rect fill="none" height="325.3711" style="stroke:#000000;stroke-width:1.5;" width="1753.4155" x="23" y="381.2832"/><g><title>User</title><rect fill="#000000" fill-opacity="0.00000" height="642.166" width="8" x="47.1826" y="81.4883"/><line style="stroke:#181818;stroke-width:0.5;stroke-dasharray:5.0,5.0;" x1="51" x2="51" y1="81.4883" y2="723.6543"/></g><g><title>CommunityController</title><rect fill="#000000" fill-opacity="0.00000" height="642.166" width="8" x="388.9697" y="81.4883"/><line style="stroke:#181818;stroke-width:0.5;stroke-dasharray:5.0,5.0;" x1="392.6885" x2="392.6885" y1="81.4883" y2="723.6543"/></g><g><title>CommunityService</title><rect fill="#000000" fill-opacity="0.00000" height="642.166" width="8" x="661.1802" y="81.4883"/><line style="stroke:#181818;stroke-width:0.5;stroke-dasharray:5.0,5.0;" x1="664.3135" x2="664.3135" y1="81.4883" y2="723.6543"/></g><g><title>MembershipService</title><rect fill="#000000" fill-opacity="0.00000" height="642.166" width="8" x="953.0493" y="81.4883"/><line style="stroke:#181818;stroke-width:0.5;stroke-dasharray:5.0,5.0;" x1="956.4072" x2="956.4072" y1="81.4883" y2="723.6543"/></g><g><title>MessageBroker</title><rect fill="#000000" fill-opacity="0.00000" height="642.166" width="8" x="1093.9336" y="81.4883"/><line style="stroke:#181818;stroke-width:0.5;stroke-dasharray:5.0,5.0;" x1="1097.6914" x2="1097.6914" y1="81.4883" y2="723.6543"/></g><g><title>DirectoryMicroservice</title><rect fill="#000000" fill-opacity="0.00000" height="642.166" width="8" x="1409.6128" y="81.4883"/><line style="stroke:#181818;stroke-width:0.5;stroke-dasharray:5.0,5.0;" x1="1413.2905" x2="1413.2905" y1="81.4883" y2="723.6543"/></g><g><title>Database</title><rect fill="#000000" fill-opacity="0.00000" height="642.166" width="8" x="1728.083" y="81.4883"/><line style="stroke:#181818;stroke-width:0.5;stroke-dasharray:5.0,5.0;" x1="1731.7505" x2="1731.7505" y1="81.4883" y2="723.6543"/></g><g class="participant participant-head" data-participant="user"><text fill="#000000" font-family="sans-serif" font-size="14" lengthAdjust="spacing" textLength="30.3652" x="33" y="78.5352">User</text><ellipse cx="51.1826" cy="13.5" fill="#E2E2F0" rx="8" ry="8" style="stroke:#181818;stroke-width:0.5;"/><path d="M51.1826,21.5 L51.1826,48.5 M38.1826,29.5 L64.1826,29.5 M51.1826,48.5 L38.1826,63.5 M51.1826,48.5 L64.1826,63.5" fill="none" style="stroke:#181818;stroke-width:0.5;"/></g><g class="participant participant-tail" data-participant="user"><text fill="#000000" font-family="sans-serif" font-size="14" lengthAdjust="spacing" textLength="30.3652" x="33" y="736.1895">User</text><ellipse cx="51.1826" cy="747.6426" fill="#E2E2F0" rx="8" ry="8" style="stroke:#181818;stroke-width:0.5;"/><path d="M51.1826,755.6426 L51.1826,782.6426 M38.1826,763.6426 L64.1826,763.6426 M51.1826,782.6426 L38.1826,797.6426 M51.1826,782.6426 L64.1826,797.6426" fill="none" style="stroke:#181818;stroke-width:0.5;"/></g><g class="participant participant-head" data-participant="controller"><rect fill="#E2E2F0" height="30.4883" rx="2.5" ry="2.5" style="stroke:#181818;stroke-width:0.5;" width="160.5625" x="312.6885" y="50"/><text fill="#000000" font-family="sans-serif" font-size="14" lengthAdjust="spacing" textLength="146.5625" x="319.6885" y="70.5352">CommunityController</text></g><g class="participant participant-tail" data-participant="controller"><rect fill="#E2E2F0" height="30.4883" rx="2.5" ry="2.5" style="stroke:#181818;stroke-width:0.5;" width="160.5625" x="312.6885" y="722.6543"/><text fill="#000000" font-family="sans-serif" font-size="14" lengthAdjust="spacing" textLength="146.5625" x="319.6885" y="743.1895">CommunityController</text></g><g class="participant participant-head" data-participant="service"><rect fill="#E2E2F0" height="30.4883" rx="2.5" ry="2.5" style="stroke:#181818;stroke-width:0.5;" width="139.7334" x="595.3135" y="50"/><text fill="#000000" font-family="sans-serif" font-size="14" lengthAdjust="spacing" textLength="125.7334" x="602.3135" y="70.5352">CommunityService</text></g><g class="participant participant-tail" data-participant="service"><rect fill="#E2E2F0" height="30.4883" rx="2.5" ry="2.5" style="stroke:#181818;stroke-width:0.5;" width="139.7334" x="595.3135" y="722.6543"/><text fill="#000000" font-family="sans-serif" font-size="14" lengthAdjust="spacing" textLength="125.7334" x="602.3135" y="743.1895">CommunityService</text></g><g class="participant participant-head" data-participant="membershipService"><rect fill="#E2E2F0" height="30.4883" rx="2.5" ry="2.5" style="stroke:#181818;stroke-width:0.5;" width="145.2842" x="884.4072" y="50"/><text fill="#000000" font-family="sans-serif" font-size="14" lengthAdjust="spacing" textLength="131.2842" x="891.4072" y="70.5352">MembershipService</text></g><g class="participant participant-tail" data-participant="membershipService"><rect fill="#E2E2F0" height="30.4883" rx="2.5" ry="2.5" style="stroke:#181818;stroke-width:0.5;" width="145.2842" x="884.4072" y="722.6543"/><text fill="#000000" font-family="sans-serif" font-size="14" lengthAdjust="spacing" textLength="131.2842" x="891.4072" y="743.1895">MembershipService</text></g><g class="participant participant-head" data-participant="broker"><rect fill="#E2E2F0" height="30.4883" rx="2.5" ry="2.5" style="stroke:#181818;stroke-width:0.5;" width="116.4844" x="1039.6914" y="50"/><text fill="#000000" font-family="sans-serif" font-size="14" lengthAdjust="spacing" textLength="102.4844" x="1046.6914" y="70.5352">MessageBroker</text></g><g class="participant participant-tail" data-participant="broker"><rect fill="#E2E2F0" height="30.4883" rx="2.5" ry="2.5" style="stroke:#181818;stroke-width:0.5;" width="116.4844" x="1039.6914" y="722.6543"/><text fill="#000000" font-family="sans-serif" font-size="14" lengthAdjust="spacing" textLength="102.4844" x="1046.6914" y="743.1895">MessageBroker</text></g><g class="participant participant-head" data-participant="directory"><rect fill="#E2E2F0" height="30.4883" rx="2.5" ry="2.5" style="stroke:#181818;stroke-width:0.5;" width="160.6445" x="1333.2905" y="50"/><text fill="#000000" font-family="sans-serif" font-size="14" lengthAdjust="spacing" textLength="146.6445" x="1340.2905" y="70.5352">DirectoryMicroservice</text></g><g class="participant participant-tail" data-participant="directory"><rect fill="#E2E2F0" height="30.4883" rx="2.5" ry="2.5" style="stroke:#181818;stroke-width:0.5;" width="160.6445" x="1333.2905" y="722.6543"/><text fill="#000000" font-family="sans-serif" font-size="14" lengthAdjust="spacing" textLength="146.6445" x="1340.2905" y="743.1895">DirectoryMicroservice</text></g><g class="participant participant-head" data-participant="db"><text fill="#000000" font-family="sans-serif" font-size="14" lengthAdjust="spacing" textLength="62.665" x="1697.7505" y="78.5352">Database</text><path d="M1714.083,29 C1714.083,19 1732.083,19 1732.083,19 C1732.083,19 1750.083,19 1750.083,29 L1750.083,55 C1750.083,65 1732.083,65 1732.083,65 C1732.083,65 1714.083,65 1714.083,55 L1714.083,29" fill="#E2E2F0" style="stroke:#181818;stroke-width:1.5;"/><path d="M1714.083,29 C1714.083,39 1732.083,39 1732.083,39 C1732.083,39 1750.083,39 1750.083,29" fill="none" style="stroke:#181818;stroke-width:1.5;"/></g><g class="participant participant-tail" data-participant="db"><text fill="#000000" font-family="sans-serif" font-size="14" lengthAdjust="spacing" textLength="62.665" x="1697.7505" y="736.1895">Database</text><path d="M1714.083,749.1426 C1714.083,739.1426 1732.083,739.1426 1732.083,739.1426 C1732.083,739.1426 1750.083,739.1426 1750.083,749.1426 L1750.083,775.1426 C1750.083,785.1426 1732.083,785.1426 1732.083,785.1426 C1732.083,785.1426 1714.083,785.1426 1714.083,775.1426 L1714.083,749.1426" fill="#E2E2F0" style="stroke:#181818;stroke-width:1.5;"/><path d="M1714.083,749.1426 C1714.083,759.1426 1732.083,759.1426 1732.083,759.1426 C1732.083,759.1426 1750.083,759.1426 1750.083,749.1426" fill="none" style="stroke:#181818;stroke-width:1.5;"/></g><g><title>CommunityController</title><rect fill="#FFFFFF" height="565.5449" style="stroke:#181818;stroke-width:1;" width="10" x="387.9697" y="148.1094"/></g><g><title>CommunityService</title><rect fill="#FFFFFF" height="536.2344" style="stroke:#181818;stroke-width:1;" width="10" x="660.1802" y="177.4199"/></g><g><title>MembershipService</title><rect fill="#FFFFFF" height="87.9316" style="stroke:#181818;stroke-width:1;" width="10" x="952.0493" y="449.2148"/></g><g><title>MessageBroker</title><rect fill="#FFFFFF" height="154.5527" style="stroke:#181818;stroke-width:1;" width="10" x="1092.9336" y="265.3516"/></g><g><title>DirectoryMicroservice</title><rect fill="#FFFFFF" height="71.6211" style="stroke:#181818;stroke-width:1;" width="10" x="1408.6128" y="294.6621"/></g><g><title>Database</title><rect fill="#FFFFFF" height="29.3105" style="stroke:#181818;stroke-width:1;" width="10" x="1727.083" y="206.7305"/></g><g><title>Database</title><rect fill="#FFFFFF" height="29.3105" style="stroke:#181818;stroke-width:1;" width="10" x="1727.083" y="478.5254"/></g><path d="M5,96.4883 L5,121.4883 L440,121.4883 L440,106.4883 L430,96.4883 L5,96.4883" fill="#FEFFDD" style="stroke:#181818;stroke-width:0.5;"/><path d="M430,96.4883 L430,106.4883 L440,106.4883 L430,96.4883" fill="#FEFFDD" style="stroke:#181818;stroke-width:0.5;"/><text fill="#000000" font-family="sans-serif" font-size="13" lengthAdjust="spacing" textLength="156.9585" x="139.6462" y="114.0566">User leaves a community</text><g class="message" data-participant-1="user" data-participant-2="controller"><polygon fill="#181818" points="375.9697,144.1094,385.9697,148.1094,375.9697,152.1094,379.9697,148.1094" style="stroke:#181818;stroke-width:1;"/><line style="stroke:#181818;stroke-width:1;" x1="51.1826" x2="381.9697" y1="148.1094" y2="148.1094"/><text fill="#000000" font-family="sans-serif" font-size="13" lengthAdjust="spacing" textLength="287.3076" x="58.1826" y="143.3672">POST /api/communities/{communityId}/leave</text></g><g class="message" data-participant-1="controller" data-participant-2="service"><polygon fill="#181818" points="648.1802,173.4199,658.1802,177.4199,648.1802,181.4199,652.1802,177.4199" style="stroke:#181818;stroke-width:1;"/><line style="stroke:#181818;stroke-width:1;" x1="397.9697" x2="654.1802" y1="177.4199" y2="177.4199"/><text fill="#000000" font-family="sans-serif" font-size="13" lengthAdjust="spacing" textLength="243.2104" x="404.9697" y="172.6777">leaveCommunity(communityId, userId)</text></g><g class="message" data-participant-1="service" data-participant-2="db"><polygon fill="#181818" points="1715.083,202.7305,1725.083,206.7305,1715.083,210.7305,1719.083,206.7305" style="stroke:#181818;stroke-width:1;"/><line style="stroke:#181818;stroke-width:1;" x1="670.1802" x2="1721.083" y1="206.7305" y2="206.7305"/><text fill="#000000" font-family="sans-serif" font-size="13" lengthAdjust="spacing" textLength="265.1035" x="677.1802" y="201.9883">validateMembership(userId, communityId)</text></g><g class="message" data-participant-1="db" data-participant-2="service"><polygon fill="#181818" points="681.1802,232.041,671.1802,236.041,681.1802,240.041,677.1802,236.041" style="stroke:#181818;stroke-width:1;"/><line style="stroke:#181818;stroke-width:1;stroke-dasharray:2.0,2.0;" x1="675.1802" x2="1731.083" y1="236.041" y2="236.041"/><text fill="#000000" font-family="sans-serif" font-size="13" lengthAdjust="spacing" textLength="103.4731" x="687.1802" y="231.2988">membershipInfo</text></g><g class="message" data-participant-1="service" data-participant-2="broker"><polygon fill="#181818" points="1080.9336,261.3516,1090.9336,265.3516,1080.9336,269.3516,1084.9336,265.3516" style="stroke:#181818;stroke-width:1;"/><line style="stroke:#181818;stroke-width:1;" x1="670.1802" x2="1086.9336" y1="265.3516" y2="265.3516"/><text fill="#000000" font-family="sans-serif" font-size="13" lengthAdjust="spacing" textLength="353.0439" x="677.1802" y="260.6094">removeMemberFromManualGroup(userId, communityId)</text></g><g class="message" data-participant-1="broker" data-participant-2="directory"><polygon fill="#181818" points="1396.6128,290.6621,1406.6128,294.6621,1396.6128,298.6621,1400.6128,294.6621" style="stroke:#181818;stroke-width:1;"/><line style="stroke:#181818;stroke-width:1;" x1="1102.9336" x2="1402.6128" y1="294.6621" y2="294.6621"/><text fill="#000000" font-family="sans-serif" font-size="13" lengthAdjust="spacing" textLength="286.6792" x="1109.9336" y="289.9199">requestRemoveMember(userId, communityId)</text></g><g class="message" data-participant-1="directory" data-participant-2="directory"><line style="stroke:#181818;stroke-width:1;" x1="1418.6128" x2="1460.6128" y1="323.9727" y2="323.9727"/><line style="stroke:#181818;stroke-width:1;" x1="1460.6128" x2="1460.6128" y1="323.9727" y2="336.9727"/><line style="stroke:#181818;stroke-width:1;" x1="1419.6128" x2="1460.6128" y1="336.9727" y2="336.9727"/><polygon fill="#181818" points="1429.6128,332.9727,1419.6128,336.9727,1429.6128,340.9727,1425.6128,336.9727" style="stroke:#181818;stroke-width:1;"/><text fill="#000000" font-family="sans-serif" font-size="13" lengthAdjust="spacing" textLength="284.4702" x="1425.6128" y="319.2305">removeUserFromGroup(userId, communityId)</text></g><g class="message" data-participant-1="directory" data-participant-2="broker"><polygon fill="#181818" points="1113.9336,362.2832,1103.9336,366.2832,1113.9336,370.2832,1109.9336,366.2832" style="stroke:#181818;stroke-width:1;"/><line style="stroke:#181818;stroke-width:1;stroke-dasharray:2.0,2.0;" x1="1107.9336" x2="1412.6128" y1="366.2832" y2="366.2832"/><text fill="#000000" font-family="sans-serif" font-size="13" lengthAdjust="spacing" textLength="188.4048" x="1119.9336" y="361.541">memberRemovalConfirmation</text></g><path d="M23,381.2832 L85.1387,381.2832 L85.1387,388.5938 L75.1387,398.5938 L23,398.5938 L23,381.2832" fill="#EEEEEE" style="stroke:#000000;stroke-width:1.5;"/><rect fill="none" height="325.3711" style="stroke:#000000;stroke-width:1.5;" width="1753.4155" x="23" y="381.2832"/><text fill="#000000" font-family="sans-serif" font-size="13" font-weight="bold" lengthAdjust="spacing" textLength="17.1387" x="38" y="394.8516">alt</text><text fill="#000000" font-family="sans-serif" font-size="11" font-weight="bold" lengthAdjust="spacing" textLength="167.0249" x="100.1387" y="393.918">[successful member removal]</text><g class="message" data-participant-1="broker" data-participant-2="service"><polygon fill="#181818" points="681.1802,415.9043,671.1802,419.9043,681.1802,423.9043,677.1802,419.9043" style="stroke:#181818;stroke-width:1;"/><line style="stroke:#181818;stroke-width:1;stroke-dasharray:2.0,2.0;" x1="675.1802" x2="1096.9336" y1="419.9043" y2="419.9043"/><text fill="#000000" font-family="sans-serif" font-size="13" lengthAdjust="spacing" textLength="154.394" x="687.1802" y="415.1621">memberRemovalSuccess</text></g><g class="message" data-participant-1="service" data-participant-2="membershipService"><polygon fill="#181818" points="940.0493,445.2148,950.0493,449.2148,940.0493,453.2148,944.0493,449.2148" style="stroke:#181818;stroke-width:1;"/><line style="stroke:#181818;stroke-width:1;" x1="670.1802" x2="946.0493" y1="449.2148" y2="449.2148"/><text fill="#000000" font-family="sans-serif" font-size="13" lengthAdjust="spacing" textLength="262.8691" x="677.1802" y="444.4727">removeMembership(userId, communityId)</text></g><g class="message" data-participant-1="membershipService" data-participant-2="db"><polygon fill="#181818" points="1715.083,474.5254,1725.083,478.5254,1715.083,482.5254,1719.083,478.5254" style="stroke:#181818;stroke-width:1;"/><line style="stroke:#181818;stroke-width:1;" x1="962.0493" x2="1721.083" y1="478.5254" y2="478.5254"/><text fill="#000000" font-family="sans-serif" font-size="13" lengthAdjust="spacing" textLength="254.7441" x="969.0493" y="473.7832">deleteMembership(userId, communityId)</text></g><g class="message" data-participant-1="db" data-participant-2="membershipService"><polygon fill="#181818" points="973.0493,503.8359,963.0493,507.8359,973.0493,511.8359,969.0493,507.8359" style="stroke:#181818;stroke-width:1;"/><line style="stroke:#181818;stroke-width:1;stroke-dasharray:2.0,2.0;" x1="967.0493" x2="1731.083" y1="507.8359" y2="507.8359"/><text fill="#000000" font-family="sans-serif" font-size="13" lengthAdjust="spacing" textLength="133.9927" x="979.0493" y="503.0938">deletionConfirmation</text></g><g class="message" data-participant-1="membershipService" data-participant-2="service"><polygon fill="#181818" points="681.1802,533.1465,671.1802,537.1465,681.1802,541.1465,677.1802,537.1465" style="stroke:#181818;stroke-width:1;"/><line style="stroke:#181818;stroke-width:1;stroke-dasharray:2.0,2.0;" x1="675.1802" x2="956.0493" y1="537.1465" y2="537.1465"/><text fill="#000000" font-family="sans-serif" font-size="13" lengthAdjust="spacing" textLength="170.9233" x="687.1802" y="532.4043">membershipRemovalResult</text></g><g class="message" data-participant-1="service" data-participant-2="controller"><polygon fill="#181818" points="408.9697,562.457,398.9697,566.457,408.9697,570.457,404.9697,566.457" style="stroke:#181818;stroke-width:1;"/><line style="stroke:#181818;stroke-width:1;stroke-dasharray:2.0,2.0;" x1="402.9697" x2="659.1802" y1="566.457" y2="566.457"/><text fill="#000000" font-family="sans-serif" font-size="13" lengthAdjust="spacing" textLength="108.7036" x="414.9697" y="561.7148">successResponse</text></g><g class="message" data-participant-1="controller" data-participant-2="user"><polygon fill="#181818" points="62.1826,591.7676,52.1826,595.7676,62.1826,599.7676,58.1826,595.7676" style="stroke:#181818;stroke-width:1;"/><line style="stroke:#181818;stroke-width:1;stroke-dasharray:2.0,2.0;" x1="56.1826" x2="386.9697" y1="595.7676" y2="595.7676"/><text fill="#000000" font-family="sans-serif" font-size="13" lengthAdjust="spacing" textLength="312.7871" x="68.1826" y="591.0254">204 No Content (Successfully left the community)</text></g><line style="stroke:#000000;stroke-width:1;stroke-dasharray:2.0,2.0;" x1="23" x2="1776.4155" y1="604.7676" y2="604.7676"/><text fill="#000000" font-family="sans-serif" font-size="11" font-weight="bold" lengthAdjust="spacing" textLength="139.541" x="28" y="615.4023">[member removal failed]</text><g class="message" data-participant-1="broker" data-participant-2="service"><polygon fill="#181818" points="681.1802,636.0332,671.1802,640.0332,681.1802,644.0332,677.1802,640.0332" style="stroke:#181818;stroke-width:1;"/><line style="stroke:#181818;stroke-width:1;stroke-dasharray:2.0,2.0;" x1="675.1802" x2="1096.9336" y1="640.0332" y2="640.0332"/><text fill="#000000" font-family="sans-serif" font-size="13" lengthAdjust="spacing" textLength="147.8052" x="687.1802" y="635.291">memberRemovalFailure</text></g><g class="message" data-participant-1="service" data-participant-2="controller"><polygon fill="#181818" points="408.9697,665.3438,398.9697,669.3438,408.9697,673.3438,404.9697,669.3438" style="stroke:#181818;stroke-width:1;"/><line style="stroke:#181818;stroke-width:1;stroke-dasharray:2.0,2.0;" x1="402.9697" x2="659.1802" y1="669.3438" y2="669.3438"/><text fill="#000000" font-family="sans-serif" font-size="13" lengthAdjust="spacing" textLength="91.3809" x="414.9697" y="664.6016">errorResponse</text></g><g class="message" data-participant-1="controller" data-participant-2="user"><polygon fill="#181818" points="62.1826,694.6543,52.1826,698.6543,62.1826,702.6543,58.1826,698.6543" style="stroke:#181818;stroke-width:1;"/><line style="stroke:#181818;stroke-width:1;stroke-dasharray:2.0,2.0;" x1="56.1826" x2="386.9697" y1="698.6543" y2="698.6543"/><text fill="#000000" font-family="sans-serif" font-size="13" lengthAdjust="spacing" textLength="155.0859" x="68.1826" y="693.9121">500 Internal Server Error</text></g><!--SRC=[bLHDRzim3BthLn0vfK2A1CLsoM67TUkGGxQXsNu0RJEhCDbA9Jb0CEo_Jr-sQQTfkXmIHdfy91yfOkcqWTbFIsO6QA7rXZYWSRAK1smSpEvrNRUDTATxtJYZbSh8ilzx0RyZSvGbHR1DzXYvfReWOv_aWKFhwUdKoLhyHH-D_fqJAQ8vHdsIXa9bfwqiZRQClkfkH8KE2xJaqTbAW4A8HZi2VIGJzLYmMjSGf095U2GBw6zojK84ADn-686_VzlzW2KUvB83IhBBFxtNflgxZ5m2IoUFwCCoNSLW1-9SnZf5xtMUCxP5J7XJtGnydVGY6u6fAjPmH2Mz13HqOPvy5y086P4NfYhWbYSoz6hJxBMeY8DvmDIZDHYglQmfv8FHzHQR5jKNezjhqNENHVgDHNIT3BJFBLdtoDYl5TEFWUZDCzB05jeTCdqbHqR0IatQn9HG-RUpbwP69tKpacb80vK3svQbd-zzgx9xIWAL0F_fIZ_lG8woI-uHp89awS9f_69zENjiunPTdeh0qmSuVx9zhBEhRlmgKkJ-BuoVgLXP6i8NKe-SNk6HsXCnCicbv5wUxgpl8zbMkIdZAzLRHilNGkwpvplenYO7_jOzFCYnXhlLE_Yg8QnUydjjlki7H9ty6jWxS4yqI7OZ12bBa-61FKf5rTjcwC5ZMqDldg59PMICDjVhUhzQmSRNP1gVNf3DttuEheAQIl0NqgqlTiGsv3y0]--></g></svg>