<svg xmlns="http://www.w3.org/2000/svg" xmlns:xlink="http://www.w3.org/1999/xlink" contentStyleType="text/css" data-diagram-type="SEQUENCE" height="687px" preserveAspectRatio="none" style="width:2064px;height:687px;background:#FFFFFF;" version="1.1" viewBox="0 0 2064 687" width="2064px" zoomAndPan="magnify"><defs/><g><g><title>ResourceController</title><rect fill="#FFFFFF" height="448.3027" style="stroke:#181818;stroke-width:1;" width="10" x="477.6123" y="148.1094"/></g><g><title>ResourceService</title><rect fill="#FFFFFF" height="418.9922" style="stroke:#181818;stroke-width:1;" width="10" x="776.0957" y="177.4199"/></g><g><title>MessageBroker</title><rect fill="#FFFFFF" height="154.5527" style="stroke:#181818;stroke-width:1;" width="10" x="1270.7471" y="206.7305"/></g><g><title>ApplicationShareListener</title><rect fill="#FFFFFF" height="71.6211" style="stroke:#181818;stroke-width:1;" width="10" x="1592.2534" y="236.041"/></g><g><title>Database</title><rect fill="#FFFFFF" height="29.3105" style="stroke:#181818;stroke-width:1;" width="10" x="2008.5347" y="390.5938"/></g><rect fill="none" height="266.75" style="stroke:#000000;stroke-width:1.5;" width="2038.8672" x="19" y="322.6621"/><g><title>User</title><rect fill="#000000" fill-opacity="0.00000" height="524.9238" width="8" x="43.1826" y="81.4883"/><line style="stroke:#181818;stroke-width:0.5;stroke-dasharray:5.0,5.0;" x1="47" x2="47" y1="81.4883" y2="606.4121"/></g><g><title>ResourceController</title><rect fill="#000000" fill-opacity="0.00000" height="524.9238" width="8" x="478.6123" y="81.4883"/><line style="stroke:#181818;stroke-width:0.5;stroke-dasharray:5.0,5.0;" x1="481.6436" x2="481.6436" y1="81.4883" y2="606.4121"/></g><g><title>ResourceService</title><rect fill="#000000" fill-opacity="0.00000" height="524.9238" width="8" x="777.0957" y="81.4883"/><line style="stroke:#181818;stroke-width:0.5;stroke-dasharray:5.0,5.0;" x1="780.5415" x2="780.5415" y1="81.4883" y2="606.4121"/></g><g><title>MessageBroker</title><rect fill="#000000" fill-opacity="0.00000" height="524.9238" width="8" x="1271.7471" y="81.4883"/><line style="stroke:#181818;stroke-width:0.5;stroke-dasharray:5.0,5.0;" x1="1275.5049" x2="1275.5049" y1="81.4883" y2="606.4121"/></g><g><title>ApplicationShareListener</title><rect fill="#000000" fill-opacity="0.00000" height="524.9238" width="8" x="1593.2534" y="81.4883"/><line style="stroke:#181818;stroke-width:0.5;stroke-dasharray:5.0,5.0;" x1="1597.1338" x2="1597.1338" y1="81.4883" y2="606.4121"/></g><g><title>Database</title><rect fill="#000000" fill-opacity="0.00000" height="524.9238" width="8" x="2009.5347" y="81.4883"/><line style="stroke:#181818;stroke-width:0.5;stroke-dasharray:5.0,5.0;" x1="2013.2021" x2="2013.2021" y1="81.4883" y2="606.4121"/></g><g class="participant participant-head" data-participant="user"><text fill="#000000" font-family="sans-serif" font-size="14" lengthAdjust="spacing" textLength="30.3652" x="29" y="78.5352">User</text><ellipse cx="47.1826" cy="13.5" fill="#E2E2F0" rx="8" ry="8" style="stroke:#181818;stroke-width:0.5;"/><path d="M47.1826,21.5 L47.1826,48.5 M34.1826,29.5 L60.1826,29.5 M47.1826,48.5 L34.1826,63.5 M47.1826,48.5 L60.1826,63.5" fill="none" style="stroke:#181818;stroke-width:0.5;"/></g><g class="participant participant-tail" data-participant="user"><text fill="#000000" font-family="sans-serif" font-size="14" lengthAdjust="spacing" textLength="30.3652" x="29" y="618.9473">User</text><ellipse cx="47.1826" cy="630.4004" fill="#E2E2F0" rx="8" ry="8" style="stroke:#181818;stroke-width:0.5;"/><path d="M47.1826,638.4004 L47.1826,665.4004 M34.1826,646.4004 L60.1826,646.4004 M47.1826,665.4004 L34.1826,680.4004 M47.1826,665.4004 L60.1826,680.4004" fill="none" style="stroke:#181818;stroke-width:0.5;"/></g><g class="participant participant-head" data-participant="controller"><rect fill="#E2E2F0" height="30.4883" rx="2.5" ry="2.5" style="stroke:#181818;stroke-width:0.5;" width="143.9375" x="410.6436" y="50"/><text fill="#000000" font-family="sans-serif" font-size="14" lengthAdjust="spacing" textLength="129.9375" x="417.6436" y="70.5352">ResourceController</text></g><g class="participant participant-tail" data-participant="controller"><rect fill="#E2E2F0" height="30.4883" rx="2.5" ry="2.5" style="stroke:#181818;stroke-width:0.5;" width="143.9375" x="410.6436" y="605.4121"/><text fill="#000000" font-family="sans-serif" font-size="14" lengthAdjust="spacing" textLength="129.9375" x="417.6436" y="625.9473">ResourceController</text></g><g class="participant participant-head" data-participant="service"><rect fill="#E2E2F0" height="30.4883" rx="2.5" ry="2.5" style="stroke:#181818;stroke-width:0.5;" width="123.1084" x="719.5415" y="50"/><text fill="#000000" font-family="sans-serif" font-size="14" lengthAdjust="spacing" textLength="109.1084" x="726.5415" y="70.5352">ResourceService</text></g><g class="participant participant-tail" data-participant="service"><rect fill="#E2E2F0" height="30.4883" rx="2.5" ry="2.5" style="stroke:#181818;stroke-width:0.5;" width="123.1084" x="719.5415" y="605.4121"/><text fill="#000000" font-family="sans-serif" font-size="14" lengthAdjust="spacing" textLength="109.1084" x="726.5415" y="625.9473">ResourceService</text></g><g class="participant participant-head" data-participant="broker"><rect fill="#E2E2F0" height="30.4883" rx="2.5" ry="2.5" style="stroke:#181818;stroke-width:0.5;" width="116.4844" x="1217.5049" y="50"/><text fill="#000000" font-family="sans-serif" font-size="14" lengthAdjust="spacing" textLength="102.4844" x="1224.5049" y="70.5352">MessageBroker</text></g><g class="participant participant-tail" data-participant="broker"><rect fill="#E2E2F0" height="30.4883" rx="2.5" ry="2.5" style="stroke:#181818;stroke-width:0.5;" width="116.4844" x="1217.5049" y="605.4121"/><text fill="#000000" font-family="sans-serif" font-size="14" lengthAdjust="spacing" textLength="102.4844" x="1224.5049" y="625.9473">MessageBroker</text></g><g class="participant participant-head" data-participant="appListener"><rect fill="#E2E2F0" height="30.4883" rx="2.5" ry="2.5" style="stroke:#181818;stroke-width:0.5;" width="182.2393" x="1506.1338" y="50"/><text fill="#000000" font-family="sans-serif" font-size="14" lengthAdjust="spacing" textLength="168.2393" x="1513.1338" y="70.5352">ApplicationShareListener</text></g><g class="participant participant-tail" data-participant="appListener"><rect fill="#E2E2F0" height="30.4883" rx="2.5" ry="2.5" style="stroke:#181818;stroke-width:0.5;" width="182.2393" x="1506.1338" y="605.4121"/><text fill="#000000" font-family="sans-serif" font-size="14" lengthAdjust="spacing" textLength="168.2393" x="1513.1338" y="625.9473">ApplicationShareListener</text></g><g class="participant participant-head" data-participant="db"><text fill="#000000" font-family="sans-serif" font-size="14" lengthAdjust="spacing" textLength="62.665" x="1979.2021" y="78.5352">Database</text><path d="M1995.5347,29 C1995.5347,19 2013.5347,19 2013.5347,19 C2013.5347,19 2031.5347,19 2031.5347,29 L2031.5347,55 C2031.5347,65 2013.5347,65 2013.5347,65 C2013.5347,65 1995.5347,65 1995.5347,55 L1995.5347,29" fill="#E2E2F0" style="stroke:#181818;stroke-width:1.5;"/><path d="M1995.5347,29 C1995.5347,39 2013.5347,39 2013.5347,39 C2013.5347,39 2031.5347,39 2031.5347,29" fill="none" style="stroke:#181818;stroke-width:1.5;"/></g><g class="participant participant-tail" data-participant="db"><text fill="#000000" font-family="sans-serif" font-size="14" lengthAdjust="spacing" textLength="62.665" x="1979.2021" y="618.9473">Database</text><path d="M1995.5347,631.9004 C1995.5347,621.9004 2013.5347,621.9004 2013.5347,621.9004 C2013.5347,621.9004 2031.5347,621.9004 2031.5347,631.9004 L2031.5347,657.9004 C2031.5347,667.9004 2013.5347,667.9004 2013.5347,667.9004 C2013.5347,667.9004 1995.5347,667.9004 1995.5347,657.9004 L1995.5347,631.9004" fill="#E2E2F0" style="stroke:#181818;stroke-width:1.5;"/><path d="M1995.5347,631.9004 C1995.5347,641.9004 2013.5347,641.9004 2013.5347,641.9004 C2013.5347,641.9004 2031.5347,641.9004 2031.5347,631.9004" fill="none" style="stroke:#181818;stroke-width:1.5;"/></g><g><title>ResourceController</title><rect fill="#FFFFFF" height="448.3027" style="stroke:#181818;stroke-width:1;" width="10" x="477.6123" y="148.1094"/></g><g><title>ResourceService</title><rect fill="#FFFFFF" height="418.9922" style="stroke:#181818;stroke-width:1;" width="10" x="776.0957" y="177.4199"/></g><g><title>MessageBroker</title><rect fill="#FFFFFF" height="154.5527" style="stroke:#181818;stroke-width:1;" width="10" x="1270.7471" y="206.7305"/></g><g><title>ApplicationShareListener</title><rect fill="#FFFFFF" height="71.6211" style="stroke:#181818;stroke-width:1;" width="10" x="1592.2534" y="236.041"/></g><g><title>Database</title><rect fill="#FFFFFF" height="29.3105" style="stroke:#181818;stroke-width:1;" width="10" x="2008.5347" y="390.5938"/></g><path d="M5,96.4883 L5,121.4883 L525,121.4883 L525,106.4883 L515,96.4883 L5,96.4883" fill="#FEFFDD" style="stroke:#181818;stroke-width:0.5;"/><path d="M515,96.4883 L515,106.4883 L525,106.4883 L515,96.4883" fill="#FEFFDD" style="stroke:#181818;stroke-width:0.5;"/><text fill="#000000" font-family="sans-serif" font-size="13" lengthAdjust="spacing" textLength="264.3735" x="128.6038" y="114.0566">User removes a resource from community</text><g class="message" data-participant-1="user" data-participant-2="controller"><polygon fill="#181818" points="465.6123,144.1094,475.6123,148.1094,465.6123,152.1094,469.6123,148.1094" style="stroke:#181818;stroke-width:1;"/><line style="stroke:#181818;stroke-width:1;" x1="47.1826" x2="471.6123" y1="148.1094" y2="148.1094"/><text fill="#000000" font-family="sans-serif" font-size="13" lengthAdjust="spacing" textLength="411.4297" x="54.1826" y="143.3672">DELETE /api/communities/{communityId}/resources/{resourceId}</text></g><g class="message" data-participant-1="controller" data-participant-2="service"><polygon fill="#181818" points="764.0957,173.4199,774.0957,177.4199,764.0957,181.4199,768.0957,177.4199" style="stroke:#181818;stroke-width:1;"/><line style="stroke:#181818;stroke-width:1;" x1="487.6123" x2="770.0957" y1="177.4199" y2="177.4199"/><text fill="#000000" font-family="sans-serif" font-size="13" lengthAdjust="spacing" textLength="269.4834" x="494.6123" y="172.6777">removeResource(communityId, resourceId)</text></g><g class="message" data-participant-1="service" data-participant-2="broker"><polygon fill="#181818" points="1258.7471,202.7305,1268.7471,206.7305,1258.7471,210.7305,1262.7471,206.7305" style="stroke:#181818;stroke-width:1;"/><line style="stroke:#181818;stroke-width:1;" x1="786.0957" x2="1264.7471" y1="206.7305" y2="206.7305"/><text fill="#000000" font-family="sans-serif" font-size="13" lengthAdjust="spacing" textLength="465.6514" x="793.0957" y="201.9883">removeCommunityFromShareGroups(communityId, resourceId, appName)</text></g><g class="message" data-participant-1="broker" data-participant-2="appListener"><polygon fill="#181818" points="1580.2534,232.041,1590.2534,236.041,1580.2534,240.041,1584.2534,236.041" style="stroke:#181818;stroke-width:1;"/><line style="stroke:#181818;stroke-width:1;" x1="1280.7471" x2="1586.2534" y1="236.041" y2="236.041"/><text fill="#000000" font-family="sans-serif" font-size="13" lengthAdjust="spacing" textLength="292.5063" x="1287.7471" y="231.2988">removeShareGroups(resourceId, communityId)</text></g><g class="message" data-participant-1="appListener" data-participant-2="appListener"><line style="stroke:#181818;stroke-width:1;" x1="1602.2534" x2="1644.2534" y1="265.3516" y2="265.3516"/><line style="stroke:#181818;stroke-width:1;" x1="1644.2534" x2="1644.2534" y1="265.3516" y2="278.3516"/><line style="stroke:#181818;stroke-width:1;" x1="1603.2534" x2="1644.2534" y1="278.3516" y2="278.3516"/><polygon fill="#181818" points="1613.2534,274.3516,1603.2534,278.3516,1613.2534,282.3516,1609.2534,278.3516" style="stroke:#181818;stroke-width:1;"/><text fill="#000000" font-family="sans-serif" font-size="13" lengthAdjust="spacing" textLength="382.2813" x="1609.2534" y="260.6094">removeGroupFromResourceShares(resourceId, communityId)</text></g><g class="message" data-participant-1="appListener" data-participant-2="broker"><polygon fill="#181818" points="1291.7471,303.6621,1281.7471,307.6621,1291.7471,311.6621,1287.7471,307.6621" style="stroke:#181818;stroke-width:1;"/><line style="stroke:#181818;stroke-width:1;stroke-dasharray:2.0,2.0;" x1="1285.7471" x2="1596.2534" y1="307.6621" y2="307.6621"/><text fill="#000000" font-family="sans-serif" font-size="13" lengthAdjust="spacing" textLength="170.5806" x="1297.7471" y="302.9199">shareRemovalConfirmation</text></g><path d="M19,322.6621 L81.1387,322.6621 L81.1387,329.9727 L71.1387,339.9727 L19,339.9727 L19,322.6621" fill="#EEEEEE" style="stroke:#000000;stroke-width:1.5;"/><rect fill="none" height="266.75" style="stroke:#000000;stroke-width:1.5;" width="2038.8672" x="19" y="322.6621"/><text fill="#000000" font-family="sans-serif" font-size="13" font-weight="bold" lengthAdjust="spacing" textLength="17.1387" x="34" y="336.2305">alt</text><text fill="#000000" font-family="sans-serif" font-size="11" font-weight="bold" lengthAdjust="spacing" textLength="151.8677" x="96.1387" y="335.2969">[successful share removal]</text><g class="message" data-participant-1="broker" data-participant-2="service"><polygon fill="#181818" points="797.0957,357.2832,787.0957,361.2832,797.0957,365.2832,793.0957,361.2832" style="stroke:#181818;stroke-width:1;"/><line style="stroke:#181818;stroke-width:1;stroke-dasharray:2.0,2.0;" x1="791.0957" x2="1274.7471" y1="361.2832" y2="361.2832"/><text fill="#000000" font-family="sans-serif" font-size="13" lengthAdjust="spacing" textLength="136.5698" x="803.0957" y="356.541">shareRemovalSuccess</text></g><g class="message" data-participant-1="service" data-participant-2="db"><polygon fill="#181818" points="1996.5347,386.5938,2006.5347,390.5938,1996.5347,394.5938,2000.5347,390.5938" style="stroke:#181818;stroke-width:1;"/><line style="stroke:#181818;stroke-width:1;" x1="786.0957" x2="2002.5347" y1="390.5938" y2="390.5938"/><text fill="#000000" font-family="sans-serif" font-size="13" lengthAdjust="spacing" textLength="170.7393" x="793.0957" y="385.8516">deleteResource(resourceId)</text></g><g class="message" data-participant-1="db" data-participant-2="service"><polygon fill="#181818" points="797.0957,415.9043,787.0957,419.9043,797.0957,423.9043,793.0957,419.9043" style="stroke:#181818;stroke-width:1;"/><line style="stroke:#181818;stroke-width:1;stroke-dasharray:2.0,2.0;" x1="791.0957" x2="2012.5347" y1="419.9043" y2="419.9043"/><text fill="#000000" font-family="sans-serif" font-size="13" lengthAdjust="spacing" textLength="133.9927" x="803.0957" y="415.1621">deletionConfirmation</text></g><g class="message" data-participant-1="service" data-participant-2="controller"><polygon fill="#181818" points="498.6123,445.2148,488.6123,449.2148,498.6123,453.2148,494.6123,449.2148" style="stroke:#181818;stroke-width:1;"/><line style="stroke:#181818;stroke-width:1;stroke-dasharray:2.0,2.0;" x1="492.6123" x2="775.0957" y1="449.2148" y2="449.2148"/><text fill="#000000" font-family="sans-serif" font-size="13" lengthAdjust="spacing" textLength="108.7036" x="504.6123" y="444.4727">successResponse</text></g><g class="message" data-participant-1="controller" data-participant-2="user"><polygon fill="#181818" points="58.1826,474.5254,48.1826,478.5254,58.1826,482.5254,54.1826,478.5254" style="stroke:#181818;stroke-width:1;"/><line style="stroke:#181818;stroke-width:1;stroke-dasharray:2.0,2.0;" x1="52.1826" x2="476.6123" y1="478.5254" y2="478.5254"/><text fill="#000000" font-family="sans-serif" font-size="13" lengthAdjust="spacing" textLength="309.2197" x="64.1826" y="473.7832">204 No Content (Resource removed successfully)</text></g><line style="stroke:#000000;stroke-width:1;stroke-dasharray:2.0,2.0;" x1="19" x2="2057.8672" y1="487.5254" y2="487.5254"/><text fill="#000000" font-family="sans-serif" font-size="11" font-weight="bold" lengthAdjust="spacing" textLength="124.3838" x="24" y="498.1602">[share removal failed]</text><g class="message" data-participant-1="broker" data-participant-2="service"><polygon fill="#181818" points="797.0957,518.791,787.0957,522.791,797.0957,526.791,793.0957,522.791" style="stroke:#181818;stroke-width:1;"/><line style="stroke:#181818;stroke-width:1;stroke-dasharray:2.0,2.0;" x1="791.0957" x2="1274.7471" y1="522.791" y2="522.791"/><text fill="#000000" font-family="sans-serif" font-size="13" lengthAdjust="spacing" textLength="129.981" x="803.0957" y="518.0488">shareRemovalFailure</text></g><g class="message" data-participant-1="service" data-participant-2="controller"><polygon fill="#181818" points="498.6123,548.1016,488.6123,552.1016,498.6123,556.1016,494.6123,552.1016" style="stroke:#181818;stroke-width:1;"/><line style="stroke:#181818;stroke-width:1;stroke-dasharray:2.0,2.0;" x1="492.6123" x2="775.0957" y1="552.1016" y2="552.1016"/><text fill="#000000" font-family="sans-serif" font-size="13" lengthAdjust="spacing" textLength="91.3809" x="504.6123" y="547.3594">errorResponse</text></g><g class="message" data-participant-1="controller" data-participant-2="user"><polygon fill="#181818" points="58.1826,577.4121,48.1826,581.4121,58.1826,585.4121,54.1826,581.4121" style="stroke:#181818;stroke-width:1;"/><line style="stroke:#181818;stroke-width:1;stroke-dasharray:2.0,2.0;" x1="52.1826" x2="476.6123" y1="581.4121" y2="581.4121"/><text fill="#000000" font-family="sans-serif" font-size="13" lengthAdjust="spacing" textLength="155.0859" x="64.1826" y="576.6699">500 Internal Server Error</text></g><!--SRC=[ZLJ1Rjim3BthAuYSMY13Wc6xv31WQzEYGDT3itq0RJERKDaI93b0CUpVHybIGWVBrXmSIdvy91z9OnkjXyNtG7u1661aGpdqKRVQuH1XyKp1Zhwb6pj4RuqfmFPu_3jyH_wWMyhOCDbpu5SA0N_G5szV2cMJpJdgitD6jnYr7NO_qTEZ3f66ue3ErRFgC6A3WM1nMwmCwHgb1Xi9x85yhcufKjz0AXmyzVoQ-TYQieUzjpq3-tuST7nLAdd2kqyptzlju_RR5bRezAf2DONLhwFVG_TxLIdvlffyhR2D-e2Sc11IdUmKgyYsAVbLPQy4_H9EdDSdpYguAaPYczIjP3ULuuuBpShUUpkwS8bycSH-mfv4bD8lDVsd6A8XDP3abdGYZg2K7LNYS84yywOAZbENelqhaAGKeeJazvmuqV2WxxNlyyofZYxaPYA4iUMsXlre9lyfAJGA-5T5aNsKKNQJSyQA84NJT9iVee5Tis6aeNYQ1DdyX3xIyDXducQUG7RdicObdcLGNEVHpoQ_LCvvE3i4obWvkmnF2xE1z-iFy6GXVJk8r_cgPbxwrmaDpUkrKcHuWsTYmXwreUvDcjunTFJqPatFgYBlhVz_JH_NQtZWUlp0sQNF7B_T9bT5GwVanDGr55TYs_y0]--></g></svg>