<svg xmlns="http://www.w3.org/2000/svg" xmlns:xlink="http://www.w3.org/1999/xlink" contentStyleType="text/css" data-diagram-type="SEQUENCE" height="817px" preserveAspectRatio="none" style="width:2403px;height:817px;background:#FFFFFF;" version="1.1" viewBox="0 0 2403 817" width="2403px" zoomAndPan="magnify"><defs/><g><g><title>ResourceController</title><rect fill="#FFFFFF" height="578.5449" style="stroke:#181818;stroke-width:1;" width="10" x="477.6123" y="148.1094"/></g><g><title>ResourceService</title><rect fill="#FFFFFF" height="549.2344" style="stroke:#181818;stroke-width:1;" width="10" x="776.0957" y="177.4199"/></g><g><title>MessageBroker</title><rect fill="#FFFFFF" height="284.7949" style="stroke:#181818;stroke-width:1;" width="10" x="1300.0522" y="206.7305"/></g><g><title>ApplicationShareListener</title><rect fill="#FFFFFF" height="71.6211" style="stroke:#181818;stroke-width:1;" width="10" x="1621.5586" y="236.041"/></g><g><title>Database</title><rect fill="#FFFFFF" height="29.3105" style="stroke:#181818;stroke-width:1;" width="10" x="2037.8398" y="520.8359"/></g><g><title>ExplorerService</title><rect fill="#FFFFFF" height="71.6211" style="stroke:#181818;stroke-width:1;" width="10" x="2141.2827" y="366.2832"/></g><rect fill="none" height="266.75" style="stroke:#000000;stroke-width:1.5;" width="2068.1724" x="19" y="452.9043"/><g><title>User</title><rect fill="#000000" fill-opacity="0.00000" height="655.166" width="8" x="43.1826" y="81.4883"/><line style="stroke:#181818;stroke-width:0.5;stroke-dasharray:5.0,5.0;" x1="47" x2="47" y1="81.4883" y2="736.6543"/></g><g><title>ResourceController</title><rect fill="#000000" fill-opacity="0.00000" height="655.166" width="8" x="478.6123" y="81.4883"/><line style="stroke:#181818;stroke-width:0.5;stroke-dasharray:5.0,5.0;" x1="481.6436" x2="481.6436" y1="81.4883" y2="736.6543"/></g><g><title>ResourceService</title><rect fill="#000000" fill-opacity="0.00000" height="655.166" width="8" x="777.0957" y="81.4883"/><line style="stroke:#181818;stroke-width:0.5;stroke-dasharray:5.0,5.0;" x1="780.5415" x2="780.5415" y1="81.4883" y2="736.6543"/></g><g><title>MessageBroker</title><rect fill="#000000" fill-opacity="0.00000" height="655.166" width="8" x="1301.0522" y="81.4883"/><line style="stroke:#181818;stroke-width:0.5;stroke-dasharray:5.0,5.0;" x1="1304.8101" x2="1304.8101" y1="81.4883" y2="736.6543"/></g><g><title>ApplicationShareListener</title><rect fill="#000000" fill-opacity="0.00000" height="655.166" width="8" x="1622.5586" y="81.4883"/><line style="stroke:#181818;stroke-width:0.5;stroke-dasharray:5.0,5.0;" x1="1626.439" x2="1626.439" y1="81.4883" y2="736.6543"/></g><g><title>Database</title><rect fill="#000000" fill-opacity="0.00000" height="655.166" width="8" x="2038.8398" y="81.4883"/><line style="stroke:#181818;stroke-width:0.5;stroke-dasharray:5.0,5.0;" x1="2042.5073" x2="2042.5073" y1="81.4883" y2="736.6543"/></g><g><title>ExplorerService</title><rect fill="#000000" fill-opacity="0.00000" height="655.166" width="8" x="2142.2827" y="81.4883"/><line style="stroke:#181818;stroke-width:0.5;stroke-dasharray:5.0,5.0;" x1="2146.1724" x2="2146.1724" y1="81.4883" y2="736.6543"/></g><g class="participant participant-head" data-participant="user"><text fill="#000000" font-family="sans-serif" font-size="14" lengthAdjust="spacing" textLength="30.3652" x="29" y="78.5352">User</text><ellipse cx="47.1826" cy="13.5" fill="#E2E2F0" rx="8" ry="8" style="stroke:#181818;stroke-width:0.5;"/><path d="M47.1826,21.5 L47.1826,48.5 M34.1826,29.5 L60.1826,29.5 M47.1826,48.5 L34.1826,63.5 M47.1826,48.5 L60.1826,63.5" fill="none" style="stroke:#181818;stroke-width:0.5;"/></g><g class="participant participant-tail" data-participant="user"><text fill="#000000" font-family="sans-serif" font-size="14" lengthAdjust="spacing" textLength="30.3652" x="29" y="749.1895">User</text><ellipse cx="47.1826" cy="760.6426" fill="#E2E2F0" rx="8" ry="8" style="stroke:#181818;stroke-width:0.5;"/><path d="M47.1826,768.6426 L47.1826,795.6426 M34.1826,776.6426 L60.1826,776.6426 M47.1826,795.6426 L34.1826,810.6426 M47.1826,795.6426 L60.1826,810.6426" fill="none" style="stroke:#181818;stroke-width:0.5;"/></g><g class="participant participant-head" data-participant="controller"><rect fill="#E2E2F0" height="30.4883" rx="2.5" ry="2.5" style="stroke:#181818;stroke-width:0.5;" width="143.9375" x="410.6436" y="50"/><text fill="#000000" font-family="sans-serif" font-size="14" lengthAdjust="spacing" textLength="129.9375" x="417.6436" y="70.5352">ResourceController</text></g><g class="participant participant-tail" data-participant="controller"><rect fill="#E2E2F0" height="30.4883" rx="2.5" ry="2.5" style="stroke:#181818;stroke-width:0.5;" width="143.9375" x="410.6436" y="735.6543"/><text fill="#000000" font-family="sans-serif" font-size="14" lengthAdjust="spacing" textLength="129.9375" x="417.6436" y="756.1895">ResourceController</text></g><g class="participant participant-head" data-participant="service"><rect fill="#E2E2F0" height="30.4883" rx="2.5" ry="2.5" style="stroke:#181818;stroke-width:0.5;" width="123.1084" x="719.5415" y="50"/><text fill="#000000" font-family="sans-serif" font-size="14" lengthAdjust="spacing" textLength="109.1084" x="726.5415" y="70.5352">ResourceService</text></g><g class="participant participant-tail" data-participant="service"><rect fill="#E2E2F0" height="30.4883" rx="2.5" ry="2.5" style="stroke:#181818;stroke-width:0.5;" width="123.1084" x="719.5415" y="735.6543"/><text fill="#000000" font-family="sans-serif" font-size="14" lengthAdjust="spacing" textLength="109.1084" x="726.5415" y="756.1895">ResourceService</text></g><g class="participant participant-head" data-participant="broker"><rect fill="#E2E2F0" height="30.4883" rx="2.5" ry="2.5" style="stroke:#181818;stroke-width:0.5;" width="116.4844" x="1246.8101" y="50"/><text fill="#000000" font-family="sans-serif" font-size="14" lengthAdjust="spacing" textLength="102.4844" x="1253.8101" y="70.5352">MessageBroker</text></g><g class="participant participant-tail" data-participant="broker"><rect fill="#E2E2F0" height="30.4883" rx="2.5" ry="2.5" style="stroke:#181818;stroke-width:0.5;" width="116.4844" x="1246.8101" y="735.6543"/><text fill="#000000" font-family="sans-serif" font-size="14" lengthAdjust="spacing" textLength="102.4844" x="1253.8101" y="756.1895">MessageBroker</text></g><g class="participant participant-head" data-participant="appListener"><rect fill="#E2E2F0" height="30.4883" rx="2.5" ry="2.5" style="stroke:#181818;stroke-width:0.5;" width="182.2393" x="1535.439" y="50"/><text fill="#000000" font-family="sans-serif" font-size="14" lengthAdjust="spacing" textLength="168.2393" x="1542.439" y="70.5352">ApplicationShareListener</text></g><g class="participant participant-tail" data-participant="appListener"><rect fill="#E2E2F0" height="30.4883" rx="2.5" ry="2.5" style="stroke:#181818;stroke-width:0.5;" width="182.2393" x="1535.439" y="735.6543"/><text fill="#000000" font-family="sans-serif" font-size="14" lengthAdjust="spacing" textLength="168.2393" x="1542.439" y="756.1895">ApplicationShareListener</text></g><g class="participant participant-head" data-participant="db"><text fill="#000000" font-family="sans-serif" font-size="14" lengthAdjust="spacing" textLength="62.665" x="2008.5073" y="78.5352">Database</text><path d="M2024.8398,29 C2024.8398,19 2042.8398,19 2042.8398,19 C2042.8398,19 2060.8398,19 2060.8398,29 L2060.8398,55 C2060.8398,65 2042.8398,65 2042.8398,65 C2042.8398,65 2024.8398,65 2024.8398,55 L2024.8398,29" fill="#E2E2F0" style="stroke:#181818;stroke-width:1.5;"/><path d="M2024.8398,29 C2024.8398,39 2042.8398,39 2042.8398,39 C2042.8398,39 2060.8398,39 2060.8398,29" fill="none" style="stroke:#181818;stroke-width:1.5;"/></g><g class="participant participant-tail" data-participant="db"><text fill="#000000" font-family="sans-serif" font-size="14" lengthAdjust="spacing" textLength="62.665" x="2008.5073" y="749.1895">Database</text><path d="M2024.8398,762.1426 C2024.8398,752.1426 2042.8398,752.1426 2042.8398,752.1426 C2042.8398,752.1426 2060.8398,752.1426 2060.8398,762.1426 L2060.8398,788.1426 C2060.8398,798.1426 2042.8398,798.1426 2042.8398,798.1426 C2042.8398,798.1426 2024.8398,798.1426 2024.8398,788.1426 L2024.8398,762.1426" fill="#E2E2F0" style="stroke:#181818;stroke-width:1.5;"/><path d="M2024.8398,762.1426 C2024.8398,772.1426 2042.8398,772.1426 2042.8398,772.1426 C2042.8398,772.1426 2060.8398,772.1426 2060.8398,762.1426" fill="none" style="stroke:#181818;stroke-width:1.5;"/></g><g class="participant participant-head" data-participant="explorer"><rect fill="#E2E2F0" height="30.4883" rx="2.5" ry="2.5" style="stroke:#181818;stroke-width:0.5;" width="118.2207" x="2087.1724" y="50"/><text fill="#000000" font-family="sans-serif" font-size="14" lengthAdjust="spacing" textLength="104.2207" x="2094.1724" y="70.5352">ExplorerService</text></g><g class="participant participant-tail" data-participant="explorer"><rect fill="#E2E2F0" height="30.4883" rx="2.5" ry="2.5" style="stroke:#181818;stroke-width:0.5;" width="118.2207" x="2087.1724" y="735.6543"/><text fill="#000000" font-family="sans-serif" font-size="14" lengthAdjust="spacing" textLength="104.2207" x="2094.1724" y="756.1895">ExplorerService</text></g><g><title>ResourceController</title><rect fill="#FFFFFF" height="578.5449" style="stroke:#181818;stroke-width:1;" width="10" x="477.6123" y="148.1094"/></g><g><title>ResourceService</title><rect fill="#FFFFFF" height="549.2344" style="stroke:#181818;stroke-width:1;" width="10" x="776.0957" y="177.4199"/></g><g><title>MessageBroker</title><rect fill="#FFFFFF" height="284.7949" style="stroke:#181818;stroke-width:1;" width="10" x="1300.0522" y="206.7305"/></g><g><title>ApplicationShareListener</title><rect fill="#FFFFFF" height="71.6211" style="stroke:#181818;stroke-width:1;" width="10" x="1621.5586" y="236.041"/></g><g><title>Database</title><rect fill="#FFFFFF" height="29.3105" style="stroke:#181818;stroke-width:1;" width="10" x="2037.8398" y="520.8359"/></g><g><title>ExplorerService</title><rect fill="#FFFFFF" height="71.6211" style="stroke:#181818;stroke-width:1;" width="10" x="2141.2827" y="366.2832"/></g><path d="M5,96.4883 L5,121.4883 L525,121.4883 L525,106.4883 L515,96.4883 L5,96.4883" fill="#FEFFDD" style="stroke:#181818;stroke-width:0.5;"/><path d="M515,96.4883 L515,106.4883 L525,106.4883 L515,96.4883" fill="#FEFFDD" style="stroke:#181818;stroke-width:0.5;"/><text fill="#000000" font-family="sans-serif" font-size="13" lengthAdjust="spacing" textLength="264.3735" x="128.6038" y="114.0566">User removes a resource from community</text><g class="message" data-participant-1="user" data-participant-2="controller"><polygon fill="#181818" points="465.6123,144.1094,475.6123,148.1094,465.6123,152.1094,469.6123,148.1094" style="stroke:#181818;stroke-width:1;"/><line style="stroke:#181818;stroke-width:1;" x1="47.1826" x2="471.6123" y1="148.1094" y2="148.1094"/><text fill="#000000" font-family="sans-serif" font-size="13" lengthAdjust="spacing" textLength="411.4297" x="54.1826" y="143.3672">DELETE /api/communities/{communityId}/resources/{resourceId}</text></g><g class="message" data-participant-1="controller" data-participant-2="service"><polygon fill="#181818" points="764.0957,173.4199,774.0957,177.4199,764.0957,181.4199,768.0957,177.4199" style="stroke:#181818;stroke-width:1;"/><line style="stroke:#181818;stroke-width:1;" x1="487.6123" x2="770.0957" y1="177.4199" y2="177.4199"/><text fill="#000000" font-family="sans-serif" font-size="13" lengthAdjust="spacing" textLength="269.4834" x="494.6123" y="172.6777">removeResource(communityId, resourceId)</text></g><g class="message" data-participant-1="service" data-participant-2="broker"><polygon fill="#181818" points="1288.0522,202.7305,1298.0522,206.7305,1288.0522,210.7305,1292.0522,206.7305" style="stroke:#181818;stroke-width:1;"/><line style="stroke:#181818;stroke-width:1;" x1="786.0957" x2="1294.0522" y1="206.7305" y2="206.7305"/><text fill="#000000" font-family="sans-serif" font-size="13" lengthAdjust="spacing" textLength="465.6514" x="793.0957" y="201.9883">removeCommunityFromShareGroups(communityId, resourceId, appName)</text></g><g class="message" data-participant-1="broker" data-participant-2="appListener"><polygon fill="#181818" points="1609.5586,232.041,1619.5586,236.041,1609.5586,240.041,1613.5586,236.041" style="stroke:#181818;stroke-width:1;"/><line style="stroke:#181818;stroke-width:1;" x1="1310.0522" x2="1615.5586" y1="236.041" y2="236.041"/><text fill="#000000" font-family="sans-serif" font-size="13" lengthAdjust="spacing" textLength="292.5063" x="1317.0522" y="231.2988">removeShareGroups(resourceId, communityId)</text></g><g class="message" data-participant-1="appListener" data-participant-2="appListener"><line style="stroke:#181818;stroke-width:1;" x1="1631.5586" x2="1673.5586" y1="265.3516" y2="265.3516"/><line style="stroke:#181818;stroke-width:1;" x1="1673.5586" x2="1673.5586" y1="265.3516" y2="278.3516"/><line style="stroke:#181818;stroke-width:1;" x1="1632.5586" x2="1673.5586" y1="278.3516" y2="278.3516"/><polygon fill="#181818" points="1642.5586,274.3516,1632.5586,278.3516,1642.5586,282.3516,1638.5586,278.3516" style="stroke:#181818;stroke-width:1;"/><text fill="#000000" font-family="sans-serif" font-size="13" lengthAdjust="spacing" textLength="382.2813" x="1638.5586" y="260.6094">removeGroupFromResourceShares(resourceId, communityId)</text></g><g class="message" data-participant-1="appListener" data-participant-2="broker"><polygon fill="#181818" points="1321.0522,303.6621,1311.0522,307.6621,1321.0522,311.6621,1317.0522,307.6621" style="stroke:#181818;stroke-width:1;"/><line style="stroke:#181818;stroke-width:1;stroke-dasharray:2.0,2.0;" x1="1315.0522" x2="1625.5586" y1="307.6621" y2="307.6621"/><text fill="#000000" font-family="sans-serif" font-size="13" lengthAdjust="spacing" textLength="170.5806" x="1327.0522" y="302.9199">shareRemovalConfirmation</text></g><g class="message" data-participant-1="service" data-participant-2="broker"><polygon fill="#181818" points="1288.0522,332.9727,1298.0522,336.9727,1288.0522,340.9727,1292.0522,336.9727" style="stroke:#181818;stroke-width:1;"/><line style="stroke:#181818;stroke-width:1;" x1="786.0957" x2="1294.0522" y1="336.9727" y2="336.9727"/><text fill="#000000" font-family="sans-serif" font-size="13" lengthAdjust="spacing" textLength="489.9565" x="793.0957" y="332.2305">notifyResourceRemovedFromCommunity(communityId, resourceId, appName)</text></g><g class="message" data-participant-1="broker" data-participant-2="explorer"><polygon fill="#181818" points="2129.2827,362.2832,2139.2827,366.2832,2129.2827,370.2832,2133.2827,366.2832" style="stroke:#181818;stroke-width:1;"/><line style="stroke:#181818;stroke-width:1;" x1="1310.0522" x2="2135.2827" y1="366.2832" y2="366.2832"/><text fill="#000000" font-family="sans-serif" font-size="13" lengthAdjust="spacing" textLength="354.0151" x="1317.0522" y="361.541">updateResourceVisibility(resourceId, communityId, true)</text></g><g class="message" data-participant-1="explorer" data-participant-2="explorer"><line style="stroke:#181818;stroke-width:1;" x1="2151.2827" x2="2193.2827" y1="395.5938" y2="395.5938"/><line style="stroke:#181818;stroke-width:1;" x1="2193.2827" x2="2193.2827" y1="395.5938" y2="408.5938"/><line style="stroke:#181818;stroke-width:1;" x1="2152.2827" x2="2193.2827" y1="408.5938" y2="408.5938"/><polygon fill="#181818" points="2162.2827,404.5938,2152.2827,408.5938,2162.2827,412.5938,2158.2827,408.5938" style="stroke:#181818;stroke-width:1;"/><text fill="#000000" font-family="sans-serif" font-size="13" lengthAdjust="spacing" textLength="238.4116" x="2158.2827" y="390.8516">setResourceVisibility(resourceId, true)</text></g><g class="message" data-participant-1="explorer" data-participant-2="broker"><polygon fill="#181818" points="1321.0522,433.9043,1311.0522,437.9043,1321.0522,441.9043,1317.0522,437.9043" style="stroke:#181818;stroke-width:1;"/><line style="stroke:#181818;stroke-width:1;stroke-dasharray:2.0,2.0;" x1="1315.0522" x2="2145.2827" y1="437.9043" y2="437.9043"/><text fill="#000000" font-family="sans-serif" font-size="13" lengthAdjust="spacing" textLength="179.5308" x="1327.0522" y="433.1621">visibilityUpdateConfirmation</text></g><path d="M19,452.9043 L81.1387,452.9043 L81.1387,460.2148 L71.1387,470.2148 L19,470.2148 L19,452.9043" fill="#EEEEEE" style="stroke:#000000;stroke-width:1.5;"/><rect fill="none" height="266.75" style="stroke:#000000;stroke-width:1.5;" width="2068.1724" x="19" y="452.9043"/><text fill="#000000" font-family="sans-serif" font-size="13" font-weight="bold" lengthAdjust="spacing" textLength="17.1387" x="34" y="466.4727">alt</text><text fill="#000000" font-family="sans-serif" font-size="11" font-weight="bold" lengthAdjust="spacing" textLength="151.8677" x="96.1387" y="465.5391">[successful share removal]</text><g class="message" data-participant-1="broker" data-participant-2="service"><polygon fill="#181818" points="797.0957,487.5254,787.0957,491.5254,797.0957,495.5254,793.0957,491.5254" style="stroke:#181818;stroke-width:1;"/><line style="stroke:#181818;stroke-width:1;stroke-dasharray:2.0,2.0;" x1="791.0957" x2="1304.0522" y1="491.5254" y2="491.5254"/><text fill="#000000" font-family="sans-serif" font-size="13" lengthAdjust="spacing" textLength="136.5698" x="803.0957" y="486.7832">shareRemovalSuccess</text></g><g class="message" data-participant-1="service" data-participant-2="db"><polygon fill="#181818" points="2025.8398,516.8359,2035.8398,520.8359,2025.8398,524.8359,2029.8398,520.8359" style="stroke:#181818;stroke-width:1;"/><line style="stroke:#181818;stroke-width:1;" x1="786.0957" x2="2031.8398" y1="520.8359" y2="520.8359"/><text fill="#000000" font-family="sans-serif" font-size="13" lengthAdjust="spacing" textLength="170.7393" x="793.0957" y="516.0938">deleteResource(resourceId)</text></g><g class="message" data-participant-1="db" data-participant-2="service"><polygon fill="#181818" points="797.0957,546.1465,787.0957,550.1465,797.0957,554.1465,793.0957,550.1465" style="stroke:#181818;stroke-width:1;"/><line style="stroke:#181818;stroke-width:1;stroke-dasharray:2.0,2.0;" x1="791.0957" x2="2041.8398" y1="550.1465" y2="550.1465"/><text fill="#000000" font-family="sans-serif" font-size="13" lengthAdjust="spacing" textLength="133.9927" x="803.0957" y="545.4043">deletionConfirmation</text></g><g class="message" data-participant-1="service" data-participant-2="controller"><polygon fill="#181818" points="498.6123,575.457,488.6123,579.457,498.6123,583.457,494.6123,579.457" style="stroke:#181818;stroke-width:1;"/><line style="stroke:#181818;stroke-width:1;stroke-dasharray:2.0,2.0;" x1="492.6123" x2="775.0957" y1="579.457" y2="579.457"/><text fill="#000000" font-family="sans-serif" font-size="13" lengthAdjust="spacing" textLength="108.7036" x="504.6123" y="574.7148">successResponse</text></g><g class="message" data-participant-1="controller" data-participant-2="user"><polygon fill="#181818" points="58.1826,604.7676,48.1826,608.7676,58.1826,612.7676,54.1826,608.7676" style="stroke:#181818;stroke-width:1;"/><line style="stroke:#181818;stroke-width:1;stroke-dasharray:2.0,2.0;" x1="52.1826" x2="476.6123" y1="608.7676" y2="608.7676"/><text fill="#000000" font-family="sans-serif" font-size="13" lengthAdjust="spacing" textLength="309.2197" x="64.1826" y="604.0254">204 No Content (Resource removed successfully)</text></g><line style="stroke:#000000;stroke-width:1;stroke-dasharray:2.0,2.0;" x1="19" x2="2087.1724" y1="617.7676" y2="617.7676"/><text fill="#000000" font-family="sans-serif" font-size="11" font-weight="bold" lengthAdjust="spacing" textLength="124.3838" x="24" y="628.4023">[share removal failed]</text><g class="message" data-participant-1="broker" data-participant-2="service"><polygon fill="#181818" points="797.0957,649.0332,787.0957,653.0332,797.0957,657.0332,793.0957,653.0332" style="stroke:#181818;stroke-width:1;"/><line style="stroke:#181818;stroke-width:1;stroke-dasharray:2.0,2.0;" x1="791.0957" x2="1304.0522" y1="653.0332" y2="653.0332"/><text fill="#000000" font-family="sans-serif" font-size="13" lengthAdjust="spacing" textLength="129.981" x="803.0957" y="648.291">shareRemovalFailure</text></g><g class="message" data-participant-1="service" data-participant-2="controller"><polygon fill="#181818" points="498.6123,678.3438,488.6123,682.3438,498.6123,686.3438,494.6123,682.3438" style="stroke:#181818;stroke-width:1;"/><line style="stroke:#181818;stroke-width:1;stroke-dasharray:2.0,2.0;" x1="492.6123" x2="775.0957" y1="682.3438" y2="682.3438"/><text fill="#000000" font-family="sans-serif" font-size="13" lengthAdjust="spacing" textLength="91.3809" x="504.6123" y="677.6016">errorResponse</text></g><g class="message" data-participant-1="controller" data-participant-2="user"><polygon fill="#181818" points="58.1826,707.6543,48.1826,711.6543,58.1826,715.6543,54.1826,711.6543" style="stroke:#181818;stroke-width:1;"/><line style="stroke:#181818;stroke-width:1;stroke-dasharray:2.0,2.0;" x1="52.1826" x2="476.6123" y1="711.6543" y2="711.6543"/><text fill="#000000" font-family="sans-serif" font-size="13" lengthAdjust="spacing" textLength="155.0859" x="64.1826" y="706.9121">500 Internal Server Error</text></g><!--SRC=[ZLJ1Rjim3BthAuXScW4P4WpR9OS1MveE1ReUcdLtsMPMOR9bI7AsODY_Zv8bcmwIDJauj4o-HpwAbAKt5cRF3kqCf8EE3D5AwrMfMjbuc3sXCvqjSMCQRutMoR4SNi-xxz0UL8dHr_NsrF4hEYT_u6ThVYR88ffJhqzjgrKflJBDxaLQV53EOvC2PDlcTr59Bmlf46QtoOekLI54Opo2EQ2DrIrOwci8XOF5cZuJ7bbzzh2tfYR7kkuQvOz2X4Xu-t4IUxjzs7xRmbAsQfbT5Rhbdo7kllgxp91qdaqw5hBqwY0fCIQa6Et0bMHRf_ooidC6lu0Hyys8cGKNDx3fdNi9uPVoBt19Kv720dVVYqozoOnt94kC-M9DrxfBgIn2QnvbZIodr5tH_mSErhvCnB4v7EDXaBp_WhrS08-ueOBXZWQs_n5nI2QA2t5F0LDg6ekzidLKKrHuFhSRU3HUxO-m_TrgOz6cwJYdU1CzSugH1QkGzT24ArHdAizEEEDOO3fRGzVIv0ntwxjogb0wa5nGPG7UTe5Xg3HZYMm4rf70eNy5lGSSevaOXo7YEUPvIUqX1o6r1zULD6zkt-c-LNt_fHP0lwmC7p3Uq5qV77qPGxg-uJG-MEUgOasU6aSPvtmgW_S0G_ie0XVJ168urJIfxoI353fbFrb9gNBAepMDm-ZBbmgvXqssXdUhztGd8Inrf3qxpvcdKQcOXlf8tKPDgtKY9kobqbXTfUaTkNOMhzRqf2gqrjZNQ_gmMi4zrMCRoYxSTlgw3Q42cqhmwvBt8pjYQ_WV]--></g></svg>