<svg xmlns="http://www.w3.org/2000/svg" xmlns:xlink="http://www.w3.org/1999/xlink" contentStyleType="text/css" data-diagram-type="SEQUENCE" height="781px" preserveAspectRatio="none" style="width:1788px;height:781px;background:#FFFFFF;" version="1.1" viewBox="0 0 1788 781" width="1788px" zoomAndPan="magnify"><defs/><g><g><title>CommunityController</title><rect fill="#FFFFFF" height="542.2344" style="stroke:#181818;stroke-width:1;" width="10" x="376.2529" y="148.1094"/></g><g><title>CommunityService</title><rect fill="#FFFFFF" height="477.6133" style="stroke:#181818;stroke-width:1;" width="10" x="687.146" y="212.7305"/></g><g><title>MessageBroker</title><rect fill="#FFFFFF" height="154.5527" style="stroke:#181818;stroke-width:1;" width="10" x="1032.6655" y="300.6621"/></g><g><title>DirectoryMicroservice</title><rect fill="#FFFFFF" height="71.6211" style="stroke:#181818;stroke-width:1;" width="10" x="1381.2192" y="329.9727"/></g><g><title>Database</title><rect fill="#FFFFFF" height="29.3105" style="stroke:#181818;stroke-width:1;" width="10" x="1731.707" y="242.041"/></g><g><title>Database</title><rect fill="#FFFFFF" height="29.3105" style="stroke:#181818;stroke-width:1;" width="10" x="1731.707" y="484.5254"/></g><rect fill="none" height="266.75" style="stroke:#000000;stroke-width:1.5;" width="1761.0396" x="20" y="416.5938"/><g><title>Admin</title><rect fill="#000000" fill-opacity="0.00000" height="618.8555" width="8" x="51.1382" y="81.4883"/><line style="stroke:#181818;stroke-width:0.5;stroke-dasharray:5.0,5.0;" x1="55" x2="55" y1="81.4883" y2="700.3438"/></g><g><title>CommunityController</title><rect fill="#000000" fill-opacity="0.00000" height="618.8555" width="8" x="377.2529" y="81.4883"/><line style="stroke:#181818;stroke-width:0.5;stroke-dasharray:5.0,5.0;" x1="380.9717" x2="380.9717" y1="81.4883" y2="700.3438"/></g><g><title>CommunityService</title><rect fill="#000000" fill-opacity="0.00000" height="618.8555" width="8" x="688.146" y="81.4883"/><line style="stroke:#181818;stroke-width:0.5;stroke-dasharray:5.0,5.0;" x1="691.2793" x2="691.2793" y1="81.4883" y2="700.3438"/></g><g><title>MessageBroker</title><rect fill="#000000" fill-opacity="0.00000" height="618.8555" width="8" x="1033.6655" y="81.4883"/><line style="stroke:#181818;stroke-width:0.5;stroke-dasharray:5.0,5.0;" x1="1037.4233" x2="1037.4233" y1="81.4883" y2="700.3438"/></g><g><title>DirectoryMicroservice</title><rect fill="#000000" fill-opacity="0.00000" height="618.8555" width="8" x="1382.2192" y="81.4883"/><line style="stroke:#181818;stroke-width:0.5;stroke-dasharray:5.0,5.0;" x1="1385.897" x2="1385.897" y1="81.4883" y2="700.3438"/></g><g><title>Database</title><rect fill="#000000" fill-opacity="0.00000" height="618.8555" width="8" x="1732.707" y="81.4883"/><line style="stroke:#181818;stroke-width:0.5;stroke-dasharray:5.0,5.0;" x1="1736.3745" x2="1736.3745" y1="81.4883" y2="700.3438"/></g><g class="participant participant-head" data-participant="admin"><text fill="#000000" font-family="sans-serif" font-size="14" lengthAdjust="spacing" textLength="44.2764" x="30" y="78.5352">Admin</text><ellipse cx="55.1382" cy="13.5" fill="#E2E2F0" rx="8" ry="8" style="stroke:#181818;stroke-width:0.5;"/><path d="M55.1382,21.5 L55.1382,48.5 M42.1382,29.5 L68.1382,29.5 M55.1382,48.5 L42.1382,63.5 M55.1382,48.5 L68.1382,63.5" fill="none" style="stroke:#181818;stroke-width:0.5;"/></g><g class="participant participant-tail" data-participant="admin"><text fill="#000000" font-family="sans-serif" font-size="14" lengthAdjust="spacing" textLength="44.2764" x="30" y="712.8789">Admin</text><ellipse cx="55.1382" cy="724.332" fill="#E2E2F0" rx="8" ry="8" style="stroke:#181818;stroke-width:0.5;"/><path d="M55.1382,732.332 L55.1382,759.332 M42.1382,740.332 L68.1382,740.332 M55.1382,759.332 L42.1382,774.332 M55.1382,759.332 L68.1382,774.332" fill="none" style="stroke:#181818;stroke-width:0.5;"/></g><g class="participant participant-head" data-participant="controller"><rect fill="#E2E2F0" height="30.4883" rx="2.5" ry="2.5" style="stroke:#181818;stroke-width:0.5;" width="160.5625" x="300.9717" y="50"/><text fill="#000000" font-family="sans-serif" font-size="14" lengthAdjust="spacing" textLength="146.5625" x="307.9717" y="70.5352">CommunityController</text></g><g class="participant participant-tail" data-participant="controller"><rect fill="#E2E2F0" height="30.4883" rx="2.5" ry="2.5" style="stroke:#181818;stroke-width:0.5;" width="160.5625" x="300.9717" y="699.3438"/><text fill="#000000" font-family="sans-serif" font-size="14" lengthAdjust="spacing" textLength="146.5625" x="307.9717" y="719.8789">CommunityController</text></g><g class="participant participant-head" data-participant="service"><rect fill="#E2E2F0" height="30.4883" rx="2.5" ry="2.5" style="stroke:#181818;stroke-width:0.5;" width="139.7334" x="622.2793" y="50"/><text fill="#000000" font-family="sans-serif" font-size="14" lengthAdjust="spacing" textLength="125.7334" x="629.2793" y="70.5352">CommunityService</text></g><g class="participant participant-tail" data-participant="service"><rect fill="#E2E2F0" height="30.4883" rx="2.5" ry="2.5" style="stroke:#181818;stroke-width:0.5;" width="139.7334" x="622.2793" y="699.3438"/><text fill="#000000" font-family="sans-serif" font-size="14" lengthAdjust="spacing" textLength="125.7334" x="629.2793" y="719.8789">CommunityService</text></g><g class="participant participant-head" data-participant="broker"><rect fill="#E2E2F0" height="30.4883" rx="2.5" ry="2.5" style="stroke:#181818;stroke-width:0.5;" width="116.4844" x="979.4233" y="50"/><text fill="#000000" font-family="sans-serif" font-size="14" lengthAdjust="spacing" textLength="102.4844" x="986.4233" y="70.5352">MessageBroker</text></g><g class="participant participant-tail" data-participant="broker"><rect fill="#E2E2F0" height="30.4883" rx="2.5" ry="2.5" style="stroke:#181818;stroke-width:0.5;" width="116.4844" x="979.4233" y="699.3438"/><text fill="#000000" font-family="sans-serif" font-size="14" lengthAdjust="spacing" textLength="102.4844" x="986.4233" y="719.8789">MessageBroker</text></g><g class="participant participant-head" data-participant="directory"><rect fill="#E2E2F0" height="30.4883" rx="2.5" ry="2.5" style="stroke:#181818;stroke-width:0.5;" width="160.6445" x="1305.897" y="50"/><text fill="#000000" font-family="sans-serif" font-size="14" lengthAdjust="spacing" textLength="146.6445" x="1312.897" y="70.5352">DirectoryMicroservice</text></g><g class="participant participant-tail" data-participant="directory"><rect fill="#E2E2F0" height="30.4883" rx="2.5" ry="2.5" style="stroke:#181818;stroke-width:0.5;" width="160.6445" x="1305.897" y="699.3438"/><text fill="#000000" font-family="sans-serif" font-size="14" lengthAdjust="spacing" textLength="146.6445" x="1312.897" y="719.8789">DirectoryMicroservice</text></g><g class="participant participant-head" data-participant="db"><text fill="#000000" font-family="sans-serif" font-size="14" lengthAdjust="spacing" textLength="62.665" x="1702.3745" y="78.5352">Database</text><path d="M1718.707,29 C1718.707,19 1736.707,19 1736.707,19 C1736.707,19 1754.707,19 1754.707,29 L1754.707,55 C1754.707,65 1736.707,65 1736.707,65 C1736.707,65 1718.707,65 1718.707,55 L1718.707,29" fill="#E2E2F0" style="stroke:#181818;stroke-width:1.5;"/><path d="M1718.707,29 C1718.707,39 1736.707,39 1736.707,39 C1736.707,39 1754.707,39 1754.707,29" fill="none" style="stroke:#181818;stroke-width:1.5;"/></g><g class="participant participant-tail" data-participant="db"><text fill="#000000" font-family="sans-serif" font-size="14" lengthAdjust="spacing" textLength="62.665" x="1702.3745" y="712.8789">Database</text><path d="M1718.707,725.832 C1718.707,715.832 1736.707,715.832 1736.707,715.832 C1736.707,715.832 1754.707,715.832 1754.707,725.832 L1754.707,751.832 C1754.707,761.832 1736.707,761.832 1736.707,761.832 C1736.707,761.832 1718.707,761.832 1718.707,751.832 L1718.707,725.832" fill="#E2E2F0" style="stroke:#181818;stroke-width:1.5;"/><path d="M1718.707,725.832 C1718.707,735.832 1736.707,735.832 1736.707,735.832 C1736.707,735.832 1754.707,735.832 1754.707,725.832" fill="none" style="stroke:#181818;stroke-width:1.5;"/></g><g><title>CommunityController</title><rect fill="#FFFFFF" height="542.2344" style="stroke:#181818;stroke-width:1;" width="10" x="376.2529" y="148.1094"/></g><g><title>CommunityService</title><rect fill="#FFFFFF" height="477.6133" style="stroke:#181818;stroke-width:1;" width="10" x="687.146" y="212.7305"/></g><g><title>MessageBroker</title><rect fill="#FFFFFF" height="154.5527" style="stroke:#181818;stroke-width:1;" width="10" x="1032.6655" y="300.6621"/></g><g><title>DirectoryMicroservice</title><rect fill="#FFFFFF" height="71.6211" style="stroke:#181818;stroke-width:1;" width="10" x="1381.2192" y="329.9727"/></g><g><title>Database</title><rect fill="#FFFFFF" height="29.3105" style="stroke:#181818;stroke-width:1;" width="10" x="1731.707" y="242.041"/></g><g><title>Database</title><rect fill="#FFFFFF" height="29.3105" style="stroke:#181818;stroke-width:1;" width="10" x="1731.707" y="484.5254"/></g><path d="M5,96.4883 L5,121.4883 L431,121.4883 L431,106.4883 L421,96.4883 L5,96.4883" fill="#FEFFDD" style="stroke:#181818;stroke-width:0.5;"/><path d="M421,96.4883 L421,106.4883 L431,106.4883 L421,96.4883" fill="#FEFFDD" style="stroke:#181818;stroke-width:0.5;"/><text fill="#000000" font-family="sans-serif" font-size="13" lengthAdjust="spacing" textLength="198.7451" x="114.3945" y="114.0566">Admin updates community title</text><g class="message" data-participant-1="admin" data-participant-2="controller"><polygon fill="#181818" points="364.2529,144.1094,374.2529,148.1094,364.2529,152.1094,368.2529,148.1094" style="stroke:#181818;stroke-width:1;"/><line style="stroke:#181818;stroke-width:1;" x1="55.1382" x2="370.2529" y1="148.1094" y2="148.1094"/><text fill="#000000" font-family="sans-serif" font-size="13" lengthAdjust="spacing" textLength="258.7559" x="62.1382" y="143.3672">PATCH /api/communities/{communityId}</text></g><path d="M60,161.1094 L60,186.1094 L275,186.1094 L275,171.1094 L265,161.1094 L60,161.1094" fill="#FEFFDD" style="stroke:#181818;stroke-width:0.5;"/><path d="M265,161.1094 L265,171.1094 L275,171.1094 L265,161.1094" fill="#FEFFDD" style="stroke:#181818;stroke-width:0.5;"/><text fill="#000000" font-family="sans-serif" font-size="13" lengthAdjust="spacing" textLength="194.835" x="66" y="178.6777">{ title: "New Community Title" }</text><g class="message" data-participant-1="controller" data-participant-2="service"><polygon fill="#181818" points="675.146,208.7305,685.146,212.7305,675.146,216.7305,679.146,212.7305" style="stroke:#181818;stroke-width:1;"/><line style="stroke:#181818;stroke-width:1;" x1="386.2529" x2="681.146" y1="212.7305" y2="212.7305"/><text fill="#000000" font-family="sans-serif" font-size="13" lengthAdjust="spacing" textLength="281.8931" x="393.2529" y="207.9883">updateCommunity(communityId, updateDto)</text></g><g class="message" data-participant-1="service" data-participant-2="db"><polygon fill="#181818" points="1719.707,238.041,1729.707,242.041,1719.707,246.041,1723.707,242.041" style="stroke:#181818;stroke-width:1;"/><line style="stroke:#181818;stroke-width:1;" x1="697.146" x2="1725.707" y1="242.041" y2="242.041"/><text fill="#000000" font-family="sans-serif" font-size="13" lengthAdjust="spacing" textLength="249.4312" x="704.146" y="237.2988">validateCommunityExists(communityId)</text></g><g class="message" data-participant-1="db" data-participant-2="service"><polygon fill="#181818" points="708.146,267.3516,698.146,271.3516,708.146,275.3516,704.146,271.3516" style="stroke:#181818;stroke-width:1;"/><line style="stroke:#181818;stroke-width:1;stroke-dasharray:2.0,2.0;" x1="702.146" x2="1735.707" y1="271.3516" y2="271.3516"/><text fill="#000000" font-family="sans-serif" font-size="13" lengthAdjust="spacing" textLength="95.0435" x="714.146" y="266.6094">communityInfo</text></g><g class="message" data-participant-1="service" data-participant-2="broker"><polygon fill="#181818" points="1020.6655,296.6621,1030.6655,300.6621,1020.6655,304.6621,1024.6655,300.6621" style="stroke:#181818;stroke-width:1;"/><line style="stroke:#181818;stroke-width:1;" x1="697.146" x2="1026.6655" y1="300.6621" y2="300.6621"/><text fill="#000000" font-family="sans-serif" font-size="13" lengthAdjust="spacing" textLength="316.5195" x="704.146" y="295.9199">updateManualGroupName(communityId, newTitle)</text></g><g class="message" data-participant-1="broker" data-participant-2="directory"><polygon fill="#181818" points="1369.2192,325.9727,1379.2192,329.9727,1369.2192,333.9727,1373.2192,329.9727" style="stroke:#181818;stroke-width:1;"/><line style="stroke:#181818;stroke-width:1;" x1="1042.6655" x2="1375.2192" y1="329.9727" y2="329.9727"/><text fill="#000000" font-family="sans-serif" font-size="13" lengthAdjust="spacing" textLength="319.5537" x="1049.6655" y="325.2305">requestGroupNameUpdate(communityId, newTitle)</text></g><g class="message" data-participant-1="directory" data-participant-2="directory"><line style="stroke:#181818;stroke-width:1;" x1="1391.2192" x2="1433.2192" y1="359.2832" y2="359.2832"/><line style="stroke:#181818;stroke-width:1;" x1="1433.2192" x2="1433.2192" y1="359.2832" y2="372.2832"/><line style="stroke:#181818;stroke-width:1;" x1="1392.2192" x2="1433.2192" y1="372.2832" y2="372.2832"/><polygon fill="#181818" points="1402.2192,368.2832,1392.2192,372.2832,1402.2192,376.2832,1398.2192,372.2832" style="stroke:#181818;stroke-width:1;"/><text fill="#000000" font-family="sans-serif" font-size="13" lengthAdjust="spacing" textLength="316.4878" x="1398.2192" y="354.541">updateGroupNameIfExists(communityId, newTitle)</text></g><g class="message" data-participant-1="directory" data-participant-2="broker"><polygon fill="#181818" points="1053.6655,397.5938,1043.6655,401.5938,1053.6655,405.5938,1049.6655,401.5938" style="stroke:#181818;stroke-width:1;"/><line style="stroke:#181818;stroke-width:1;stroke-dasharray:2.0,2.0;" x1="1047.6655" x2="1385.2192" y1="401.5938" y2="401.5938"/><text fill="#000000" font-family="sans-serif" font-size="13" lengthAdjust="spacing" textLength="165.2104" x="1059.6655" y="396.8516">groupUpdateConfirmation</text></g><path d="M20,416.5938 L82.1387,416.5938 L82.1387,423.9043 L72.1387,433.9043 L20,433.9043 L20,416.5938" fill="#EEEEEE" style="stroke:#000000;stroke-width:1.5;"/><rect fill="none" height="266.75" style="stroke:#000000;stroke-width:1.5;" width="1761.0396" x="20" y="416.5938"/><text fill="#000000" font-family="sans-serif" font-size="13" font-weight="bold" lengthAdjust="spacing" textLength="17.1387" x="35" y="430.1621">alt</text><text fill="#000000" font-family="sans-serif" font-size="11" font-weight="bold" lengthAdjust="spacing" textLength="147.7695" x="97.1387" y="429.2285">[successful group update]</text><g class="message" data-participant-1="broker" data-participant-2="service"><polygon fill="#181818" points="708.146,451.2148,698.146,455.2148,708.146,459.2148,704.146,455.2148" style="stroke:#181818;stroke-width:1;"/><line style="stroke:#181818;stroke-width:1;stroke-dasharray:2.0,2.0;" x1="702.146" x2="1036.6655" y1="455.2148" y2="455.2148"/><text fill="#000000" font-family="sans-serif" font-size="13" lengthAdjust="spacing" textLength="131.1997" x="714.146" y="450.4727">groupUpdateSuccess</text></g><g class="message" data-participant-1="service" data-participant-2="db"><polygon fill="#181818" points="1719.707,480.5254,1729.707,484.5254,1719.707,488.5254,1723.707,484.5254" style="stroke:#181818;stroke-width:1;"/><line style="stroke:#181818;stroke-width:1;" x1="697.146" x2="1725.707" y1="484.5254" y2="484.5254"/><text fill="#000000" font-family="sans-serif" font-size="13" lengthAdjust="spacing" textLength="296.6006" x="704.146" y="479.7832">updateCommunityTitle(communityId, newTitle)</text></g><g class="message" data-participant-1="db" data-participant-2="service"><polygon fill="#181818" points="708.146,509.8359,698.146,513.8359,708.146,517.8359,704.146,513.8359" style="stroke:#181818;stroke-width:1;"/><line style="stroke:#181818;stroke-width:1;stroke-dasharray:2.0,2.0;" x1="702.146" x2="1735.707" y1="513.8359" y2="513.8359"/><text fill="#000000" font-family="sans-serif" font-size="13" lengthAdjust="spacing" textLength="126.6104" x="714.146" y="509.0938">updateConfirmation</text></g><g class="message" data-participant-1="service" data-participant-2="controller"><polygon fill="#181818" points="397.2529,539.1465,387.2529,543.1465,397.2529,547.1465,393.2529,543.1465" style="stroke:#181818;stroke-width:1;"/><line style="stroke:#181818;stroke-width:1;stroke-dasharray:2.0,2.0;" x1="391.2529" x2="686.146" y1="543.1465" y2="543.1465"/><text fill="#000000" font-family="sans-serif" font-size="13" lengthAdjust="spacing" textLength="184.8945" x="403.2529" y="538.4043">updatedCommunityResponse</text></g><g class="message" data-participant-1="controller" data-participant-2="admin"><polygon fill="#181818" points="66.1382,568.457,56.1382,572.457,66.1382,576.457,62.1382,572.457" style="stroke:#181818;stroke-width:1;"/><line style="stroke:#181818;stroke-width:1;stroke-dasharray:2.0,2.0;" x1="60.1382" x2="375.2529" y1="572.457" y2="572.457"/><text fill="#000000" font-family="sans-serif" font-size="13" lengthAdjust="spacing" textLength="297.1147" x="72.1382" y="567.7148">200 OK (Community title updated successfully)</text></g><line style="stroke:#000000;stroke-width:1;stroke-dasharray:2.0,2.0;" x1="20" x2="1781.0396" y1="581.457" y2="581.457"/><text fill="#000000" font-family="sans-serif" font-size="11" font-weight="bold" lengthAdjust="spacing" textLength="120.2856" x="25" y="592.0918">[group update failed]</text><g class="message" data-participant-1="broker" data-participant-2="service"><polygon fill="#181818" points="708.146,612.7227,698.146,616.7227,708.146,620.7227,704.146,616.7227" style="stroke:#181818;stroke-width:1;"/><line style="stroke:#181818;stroke-width:1;stroke-dasharray:2.0,2.0;" x1="702.146" x2="1036.6655" y1="616.7227" y2="616.7227"/><text fill="#000000" font-family="sans-serif" font-size="13" lengthAdjust="spacing" textLength="124.6108" x="714.146" y="611.9805">groupUpdateFailure</text></g><g class="message" data-participant-1="service" data-participant-2="controller"><polygon fill="#181818" points="397.2529,642.0332,387.2529,646.0332,397.2529,650.0332,393.2529,646.0332" style="stroke:#181818;stroke-width:1;"/><line style="stroke:#181818;stroke-width:1;stroke-dasharray:2.0,2.0;" x1="391.2529" x2="686.146" y1="646.0332" y2="646.0332"/><text fill="#000000" font-family="sans-serif" font-size="13" lengthAdjust="spacing" textLength="91.3809" x="403.2529" y="641.291">errorResponse</text></g><g class="message" data-participant-1="controller" data-participant-2="admin"><polygon fill="#181818" points="66.1382,671.3438,56.1382,675.3438,66.1382,679.3438,62.1382,675.3438" style="stroke:#181818;stroke-width:1;"/><line style="stroke:#181818;stroke-width:1;stroke-dasharray:2.0,2.0;" x1="60.1382" x2="375.2529" y1="675.3438" y2="675.3438"/><text fill="#000000" font-family="sans-serif" font-size="13" lengthAdjust="spacing" textLength="155.0859" x="72.1382" y="670.6016">500 Internal Server Error</text></g><!--SRC=[ZLJBRjim4BppAnO-9K021mLwqQ50wgIjKJWjckG3A6db4gL8bQIS6a7-lNn9MYa8OXzicjoPdPrTabTE6rXTrwrGA-0MU5YnZXidAj5nvM2rqMtRA-6E6wsSqLAYYQ7L-FUD-7iq1r5X3BPfFO_SeRLyZv-D_fCvoxYSHzq8Wq7cSISgeoqXhOSJLdF7IsxHH-TL2YWPKzeXw0EQLDi5qLr0B1pwpkCnL9ILWnDE8cCH0PUVPfYVrm-RRx3cdLWF085s_JoYj_KBuvKJ1qzANOfAZDZ_Tg2RfAQ0vvIhWDKTFi7e7Jo4tHMyC3On12Mv_YAB7W5d9Fr5Fhnn-dnIChI0vKLWgyi23boA6TNjFs6TfOI4nLjQbt19bKo1gj6iHXfBawNc3iftNFLSVZMwx-vuYtFz2f-Y0IHn7WsMVgFueVq56FpRetKZssDCyIxdD41iN2wOazYHUDkyTeTI4nfIyJx07tF3L2DCovtGQkRL98LB1xQlAdyxcbucSDR1m7y61sWFI8Rx18sX947sB-p6hyKKBCOfblDMaG5EcnmpBOQYVrtjGb06piKixbfYgKTPlz1sMjda0xqO7fSlr8UhA_Zn7SusyyiyK15dvV6SCPJ-rQ0MGyE5nFeKfx_uoDxWoKulYaDZj3cXee- -egroQ1IN41vLVtmRi0nLpUWG3LUSR97tvpy0]--></g></svg>