<svg width="49" height="48" viewBox="0 0 49 48" fill="none" xmlns="http://www.w3.org/2000/svg">
    <path d="M0.5 8C0.5 3.58172 4.08172 0 8.5 0H40.5C44.9183 0 48.5 3.58172 48.5 8V40C48.5 44.4183 44.9183 48 40.5 48H8.5C4.08172 48 0.5 44.4183 0.5 40V8Z" fill="#FFEFE3"/>
    <path d="M34.2777 17.8317C34.2777 23.5552 29.8333 24.4441 29.8333 29.7783C29.8333 32.5321 27.0573 32.7641 24.9444 32.7641C23.1195 32.7641 19.0902 32.0717 19.0902 29.7766C19.0902 24.445 14.7222 23.5561 14.7222 17.8317C14.7222 12.4708 19.4199 8.125 24.5737 8.125C29.7293 8.125 34.2777 12.4708 34.2777 17.8317Z" fill="#FFD983"/>
    <path d="M28.2039 36.8881C28.2039 37.6241 26.2181 39.1104 24.4999 39.1104C22.7817 39.1104 20.7959 37.6241 20.7959 36.8881C20.7959 36.1521 22.7808 36.4437 24.4999 36.4437C26.219 36.4437 28.2039 36.1521 28.2039 36.8881Z" fill="#CCD6DD"/>
    <path d="M28.684 17.149C28.5173 16.9823 28.2912 16.8887 28.0555 16.8887C27.8198 16.8887 27.5938 16.9823 27.4271 17.149L24.5 20.0761L21.5729 17.149C21.4903 17.0665 21.3924 17.001 21.2845 16.9563C21.1767 16.9117 21.0611 16.8887 20.9444 16.8887C20.8277 16.8887 20.7121 16.9117 20.6043 16.9563C20.4965 17.001 20.3985 17.0665 20.316 17.149C20.2334 17.2315 20.168 17.3295 20.1233 17.4373C20.0787 17.5451 20.0557 17.6607 20.0557 17.7774C20.0557 17.8941 20.0787 18.0097 20.1233 18.1175C20.168 18.2254 20.2334 18.3233 20.316 18.4059L23.6111 21.701V31.1108C23.6111 31.3465 23.7047 31.5726 23.8714 31.7393C24.0381 31.906 24.2642 31.9996 24.5 31.9996C24.7357 31.9996 24.9618 31.906 25.1285 31.7393C25.2952 31.5726 25.3889 31.3465 25.3889 31.1108V21.701L28.684 18.4059C28.8506 18.2392 28.9442 18.0131 28.9442 17.7774C28.9442 17.5417 28.8506 17.3157 28.684 17.149Z" fill="#FFCC4D"/>
    <path d="M29.8332 35.556C29.8332 36.0275 29.6459 36.4797 29.3125 36.8131C28.9791 37.1465 28.5269 37.3338 28.0554 37.3338H20.9443C20.4728 37.3338 20.0206 37.1465 19.6872 36.8131C19.3538 36.4797 19.1665 36.0275 19.1665 35.556V30.2227H29.8332V35.556Z" fill="#99AAB5"/>
    <path d="M19.1659 36.4453C18.9433 36.4445 18.7291 36.3602 18.5657 36.2091C18.4022 36.0579 18.3015 35.851 18.2833 35.6291C18.265 35.4073 18.3307 35.1867 18.4673 35.0109C18.6039 34.8352 18.8015 34.7171 19.021 34.68L29.6876 32.9022C29.8028 32.8824 29.9208 32.8856 30.0347 32.9117C30.1486 32.9378 30.2562 32.9862 30.3513 33.0541C30.4464 33.1221 30.527 33.2082 30.5886 33.3076C30.6501 33.4069 30.6913 33.5175 30.7099 33.6329C30.7484 33.8653 30.6931 34.1035 30.5561 34.2952C30.4191 34.4869 30.2116 34.6163 29.9792 34.6551L19.3125 36.4329C19.2641 36.4411 19.215 36.4452 19.1659 36.4453ZM19.1659 32.8898C18.9433 32.8889 18.7291 32.8046 18.5657 32.6535C18.4022 32.5024 18.3015 32.2954 18.2833 32.0736C18.265 31.8517 18.3307 31.6311 18.4673 31.4554C18.6039 31.2796 18.8015 31.1615 19.021 31.1244L29.6876 29.3466C29.8028 29.3269 29.9207 29.3303 30.0346 29.3564C30.1485 29.3825 30.256 29.431 30.3511 29.4989C30.4461 29.5668 30.5268 29.6529 30.5883 29.7522C30.6499 29.8515 30.6912 29.962 30.7099 30.0773C30.7484 30.3097 30.6931 30.548 30.5561 30.7397C30.4191 30.9313 30.2116 31.0608 29.9792 31.0995L19.3125 32.8773C19.2641 32.8855 19.215 32.8897 19.1659 32.8898Z" fill="#CCD6DD"/>
</svg>
